<svg width="32" height="32" viewBox="0 0 32 32" fill="none" xmlns="http://www.w3.org/2000/svg">
<path d="M22.8662 16.3124L22.9485 14.3792C19.3541 14.228 15.7158 14.3217 12.1306 14.6642L12.3097 16.5921C15.8085 16.2642 19.3497 16.1664 22.8565 16.3129L22.8662 16.3124Z" fill="#444444"/>
<path d="M13.9287 21.1219L15.0388 19.5364C13.5947 18.5247 12.2592 17.3807 11.0823 16.1307C10.8241 15.8549 10.688 15.6786 10.6829 15.5917C10.695 15.465 11.0227 15.0972 11.2052 14.9026L11.3145 14.78C12.7172 13.226 13.4852 12.765 15.1612 11.7477L14.1546 10.0905C12.291 11.2155 11.4132 11.7895 9.88255 13.4768L9.78243 13.5892C9.30805 14.1011 8.67041 14.8066 8.76478 15.7702C8.83555 16.4929 9.28209 17.0098 9.68497 17.442C10.9544 18.7836 12.3818 20.0095 13.9372 21.1021L13.9287 21.1219Z" fill="#444444"/>
</svg>
