<svg width="32" height="32" viewBox="0 0 32 32" fill="none" xmlns="http://www.w3.org/2000/svg">
<path d="M9.2 16.9397L9 14.9497C12.7 14.5797 16.46 14.4597 20.18 14.5997L20.11 16.5997C16.48 16.4697 12.82 16.5797 9.21 16.9397H9.2Z" fill="#444444"/>
<path d="M18.7089 21.37L17.4689 19.8C18.8989 18.67 20.2089 17.41 21.3489 16.05C21.5989 15.75 21.7289 15.56 21.7289 15.47C21.7089 15.34 21.3489 14.98 21.1489 14.79L21.0289 14.67C19.4889 13.15 18.6689 12.72 16.8789 11.77L17.8189 10C19.8089 11.05 20.7489 11.59 22.4289 13.24L22.5389 13.35C23.0589 13.85 23.7589 14.54 23.7189 15.54C23.6889 16.29 23.2589 16.85 22.8689 17.32C21.6389 18.78 20.2389 20.13 18.6989 21.35L18.7089 21.37Z" fill="#444444"/>
</svg>
