<svg width="378" height="386" viewBox="0 0 378 386" fill="none" xmlns="http://www.w3.org/2000/svg">
<g clip-path="url(#clip0_1535_1514)">
<path d="M296.086 84.4126C296.565 84.4126 296.974 84.4126 297.316 84.277C300.869 83.3954 302.713 78.1059 302.713 74.8509C302.713 73.0878 302.167 67.6627 299.161 66.3742C298.614 66.103 297.999 66.0352 297.316 66.0352C296.291 66.0352 295.13 66.3742 294.242 66.8489C292.124 68.1374 290.553 71.5959 290.348 75.3256C290.143 78.8519 291.099 82.1069 292.875 83.3954C293.695 84.0057 294.857 84.4126 296.086 84.4126Z" fill="#F05D4B"/>
<path d="M256.741 107.266C255.511 108.826 254.213 110.318 252.915 111.809C252.096 112.691 250.524 114.929 249.158 114.997C246.015 115.132 243.488 108.69 242.394 106.588C239.73 101.298 231.805 105.977 234.47 111.199C237.407 116.963 241.643 124.219 249.158 124.151C256.126 124.151 260.977 116.76 264.734 111.877C268.287 107.198 260.294 102.655 256.809 107.266H256.741Z" fill="#F05D4B"/>
<path d="M249.494 95.4666C254.413 95.331 261.04 90.0415 260.562 86.4474C259.81 81.0901 255.916 78.3776 248.264 78.3098C241.433 78.0385 236.582 82.8533 237.197 87.5324C237.744 91.4656 243.96 95.67 249.494 95.5344V95.4666Z" fill="#F05D4B"/>
<path d="M197.044 84.0066C197.659 84.2778 198.41 84.4135 199.093 84.4135C199.981 84.4135 200.801 84.21 201.484 83.871C204.764 82.2434 205.378 76.7505 204.695 73.4955C204.354 71.7323 202.577 66.5785 199.366 65.9682C199.093 65.9682 198.888 65.9004 198.547 65.9004C197.18 65.9004 195.677 66.5107 194.653 67.4601C192.876 69.1554 192.057 72.8852 192.671 76.5471C193.218 80.0056 194.926 82.9894 196.907 83.9388L197.044 84.0066Z" fill="#F05D4B"/>
<path d="M494.557 179.828C494.215 178.675 493.191 175.42 490.253 173.996C487.589 172.708 484.514 173.521 482.26 174.539C481.918 174.267 481.577 173.996 481.235 173.725C482.806 171.08 483.216 168.029 482.26 165.316C482.055 164.841 480.893 161.722 477.751 160.366C473.378 158.467 468.596 161.179 467.093 162.4C466.752 162.671 466.342 163.01 466 163.349C465.727 163.078 465.454 162.807 465.112 162.603C466.615 158.738 466.41 154.737 464.429 151.821C464.156 151.482 462.311 148.77 459.168 148.091C451.79 146.396 443.524 156.839 440.381 160.433C440.313 160.569 440.108 160.705 440.039 160.773C435.462 162.264 430.133 165.791 426.991 169.995C423.78 170.809 420.501 171.216 417.29 172.64C415.035 173.657 413.122 174.946 411.209 176.505C410.526 177.048 409.843 177.522 409.228 178.133C409.092 178.268 408.135 179.082 407.725 179.489H407.452C406.291 179.421 404.104 179.896 403.08 180.032C400.893 180.371 398.912 180.913 396.931 181.795C396.248 182.134 395.633 182.473 394.95 182.812C394.95 182.202 394.813 181.591 394.745 180.981C394.335 178.472 393.447 176.031 392.285 173.793C391.534 172.369 390.236 171.012 389.143 169.792C389.416 168.096 389.689 166.401 389.826 164.706C390.099 161.586 389.963 158.467 389.348 155.415C388.801 152.838 387.708 150.194 386.342 147.956C385.522 146.667 384.566 145.447 383.541 144.429C383.267 144.158 382.926 143.819 382.584 143.412C382.584 142.666 382.516 141.785 382.516 141.174C382.516 139.683 382.448 138.258 382.243 136.834C381.833 133.783 381.081 131.002 379.647 128.222C378.144 125.306 375.889 122.865 373.293 120.966C373.43 116.965 372.815 113.032 371.38 109.234C370.151 106.047 368.579 103.267 366.393 100.622C365.71 99.7404 364.958 98.8588 364.139 98.1129C363.797 97.7738 363.387 97.4348 362.977 97.0957C363.045 94.7222 362.021 90.7212 361.747 89.704C360.996 86.9237 359.698 84.0755 357.99 81.6342C355.257 77.7011 351.568 74.3782 347.127 72.4794C345.761 67.6647 343.233 63.2568 339.612 59.6627C340.159 58.5777 340.569 57.4248 340.842 56.272C341.184 54.8479 341.389 53.4239 341.457 51.9998V51.7285C343.78 50.7791 345.761 49.0838 346.922 46.7103C348.084 44.3369 348.357 41.8278 348.152 39.3187C352.046 34.3683 351.91 27.1122 347.947 22.3653C347.811 18.6356 345.966 14.9736 342.892 12.668C341.116 6.29352 335.445 2.22472 328.682 3.03848C327.315 2.36034 323.285 0.529379 318.161 1.34314C314.198 1.95346 311.397 3.78442 310.168 4.80163C308.733 4.80163 304.77 5.07288 301.013 7.92104C298.28 9.95545 296.982 12.4645 296.367 13.753C293.293 15.5161 290.902 18.2287 289.399 21.3481C287.759 19.3137 285.71 17.6184 283.319 16.3977C279.015 14.2277 273.959 13.6852 269.245 14.838C263.37 10.2267 255.513 9.34512 248.613 12.3967C241.235 9.34512 232.627 9.88763 226.137 14.7024C220.057 13.9564 213.566 14.7024 208.579 17.4827C208.511 16.7368 208.238 15.3127 207.213 14.0243C204.958 11.1083 201.133 11.2439 200.723 11.2439C200.313 10.4301 199.493 9.00606 197.853 7.78542C196.077 6.42915 194.233 6.09008 193.344 5.95445C190.338 1.47877 184.736 -0.284382 179.271 1.47877C174.899 -0.759076 169.57 -0.555635 165.881 2.76722C158.844 2.42816 152.422 7.44635 151.739 14.4989C147.162 18.4999 145.864 26.4341 148.733 31.4523C147.435 36.6739 149.143 42.3024 153.174 46.0322C153.174 49.0838 153.788 51.9998 155.77 54.5767C156.18 55.1192 156.658 55.5939 157.136 56.0686C152.695 60.273 150.168 66.5118 148.665 72.6151C140.466 77.2264 136.709 85.9065 135.206 95.1969C131.175 96.621 127.759 99.7404 125.71 104.08C123.045 109.777 121.884 116.355 121.474 122.797C118.332 124.967 115.735 128.358 114.301 131.613C112.046 136.767 111.09 142.259 111.363 147.752C105.625 152.499 103.848 161.858 103.848 171.012C102.482 173.386 101.457 175.759 100.637 178.336C98.7244 177.522 96.8115 176.912 95.1036 176.437C91.6194 175.556 87.9302 175.42 84.3094 175.827C81.1668 173.725 77.6826 172.03 73.9934 171.284C72.4221 170.945 70.9192 170.809 69.4162 170.741C65.8636 167.35 60.8764 164.909 55.8209 163.349C54.7278 162.332 53.7031 161.315 52.8149 160.298C49.7406 156.839 41.4059 146.26 34.0276 147.956C30.9533 148.634 29.0403 151.346 28.7671 151.686C26.7175 154.601 26.581 158.602 28.084 162.536C27.9473 162.671 27.7423 162.807 27.6057 162.943C27.4691 163.01 27.3324 163.146 27.2641 163.282C26.9225 162.943 26.5126 162.603 26.1027 162.332C24.5997 161.112 19.7492 158.331 15.4451 160.298C12.4392 161.586 11.2778 164.502 11.0045 165.248C8.8867 170.402 11.961 175.285 12.3026 175.827L11.8243 176.844C11.2778 176.641 5.47079 174.674 2.12323 177.726C-0.267893 179.964 -0.0629609 183.49 0.0736744 185.524C0.551898 197.256 13.3273 207.293 16.3333 209.598C16.8115 212.853 18.9977 224.246 29.1087 231.909C33.1394 234.96 37.1701 236.52 40.1761 237.402C40.791 239.64 43.0455 247.438 50.6971 252.795C55.5476 256.186 60.4665 257.068 63.0626 257.339C64.3606 261.204 68.1864 270.359 77.6825 276.869C81.7133 279.582 85.6757 281.074 88.6817 281.955C83.5579 293.009 83.5579 306.029 88.8866 317.015C86.5638 320.677 85.3341 325.017 85.539 329.764C85.6757 333.832 86.8371 337.766 88.3401 341.563C89.5015 344.343 92.3026 348.141 92.2342 351.125C92.2342 354.448 90.5945 357.635 90.6629 361.093C90.7995 364.62 91.551 367.943 92.9174 371.198C94.4203 374.724 96.6065 377.979 99.3392 380.691C97.7679 386.862 100.159 394.051 106.171 398.73C110.202 401.849 114.984 403.951 120.039 404.969C121.474 422.871 121.474 440.774 120.039 458.677C119.766 461.661 122.636 463.763 125.3 463.899C129.604 464.17 133.908 464.238 138.212 464.17L138.622 496.246C138.622 501.671 139.1 506.282 145.727 506.35C152.012 506.35 158.434 505.672 164.719 505.265C170.936 504.926 171.005 495.228 164.719 495.567C161.44 495.771 158.161 495.906 154.882 496.11C152.969 496.246 150.578 496.652 148.391 496.788V495.432C148.391 493.872 148.391 492.312 148.391 490.753C148.391 487.091 148.323 483.497 148.255 479.835L148.05 463.695C154.813 463.22 161.508 462.339 168.135 461.05C170.185 460.643 172.302 458.134 172.029 456.032C170.116 441.317 168.682 426.533 167.794 411.682C168.272 411.547 168.818 411.343 169.365 411.207C172.986 413.988 177.358 415.751 181.867 416.565C182.892 429.381 183.438 442.198 183.438 455.015C183.438 457.795 185.829 460.304 188.699 460.237C192.593 460.169 196.487 460.101 200.449 459.965L200.928 496.313C200.996 501.671 201.406 506.35 208.033 506.418C214.318 506.418 220.74 505.739 227.025 505.333C233.242 504.993 233.31 495.296 227.025 495.635C223.746 495.839 220.398 495.974 217.119 496.178C215.206 496.246 212.883 496.72 210.629 496.856V495.5C210.629 493.94 210.629 492.38 210.629 490.82C210.629 487.159 210.56 483.564 210.492 479.902L210.219 459.694C215.548 459.626 220.945 459.491 226.273 459.355C229.074 459.355 231.671 456.982 231.534 454.133C231.124 441.52 230.919 428.907 230.782 416.293C235.496 416.293 240.279 415.344 244.788 413.649C250.458 416.768 256.88 417.989 263.233 417.582C261.594 429.924 260.022 442.266 258.383 454.608C258.041 457.524 261.115 459.694 263.643 459.83C272.525 460.304 281.406 460.169 290.287 459.965C290.082 462.678 289.877 465.39 289.604 468.103C288.989 474.138 287.896 480.242 287.281 481.869C283.25 493.465 273.139 498.009 275.121 502.417C275.53 503.298 276.624 504.654 278.195 505.333C279.698 506.011 281.133 505.943 282.636 505.672C286.393 505.061 289.604 503.569 294.181 500.382C298.075 497.737 299.373 495.906 300.671 496.449C301.491 496.788 301.696 497.805 304.292 503.841C304.497 504.315 304.907 505.265 305.864 505.672C306.683 506.011 307.776 506.011 308.46 505.4C309.416 504.654 309.348 503.163 309.279 502.756C309.279 500.45 309.689 483.564 310.441 459.016C315.086 458.813 319.732 458.609 324.378 458.473C329.706 458.338 334.967 458.134 340.296 457.999C340.091 461.254 339.817 464.577 339.476 467.9C338.861 474.003 337.7 480.038 337.153 481.666C333.122 493.262 323.011 497.805 324.992 502.213C325.402 503.095 326.495 504.451 328.067 505.197C329.57 505.875 331.004 505.807 332.507 505.536C336.265 504.926 339.476 503.434 344.053 500.247C347.947 497.602 349.245 495.771 350.543 496.313C351.363 496.652 351.568 497.67 354.164 503.705C354.369 504.18 354.779 505.129 355.735 505.536C356.555 505.875 357.648 505.875 358.332 505.265C359.288 504.519 359.22 503.027 359.151 502.62C359.151 500.247 359.561 482.751 360.381 457.321C368.852 457.117 377.324 456.846 385.864 456.575C389.279 456.439 391.875 453.32 390.987 449.929C386.752 433.789 382.448 417.514 380.057 400.968C380.74 400.222 381.355 399.476 381.901 398.662C387.435 397.848 392.559 393.644 395.496 388.965C399.8 382.116 401.098 373.842 399.664 365.908C403.968 359.398 406.974 352.142 408.135 344.276C409.228 336.816 409.433 328.068 405.402 321.694C408.818 311.929 409.023 301.485 405.949 291.652C406.291 290.432 406.7 289.143 407.042 287.923C407.52 286.16 407.93 284.396 408.203 282.633C412.712 281.616 416.88 279.514 420.364 276.53C423.507 273.817 425.761 270.562 427.196 266.968C432.456 265.815 437.375 263.035 440.996 259.034C443.729 255.983 445.71 252.524 447.076 248.862C451.312 247.574 455.343 245.065 458.485 241.81C462.038 238.215 464.634 234.147 466.273 229.807C474.54 225.941 480.005 216.786 482.533 207.428C491.756 195.696 496.265 185.05 494.557 179.489V179.828ZM310.441 19.585C316.385 15.584 325.949 14.6346 331.141 19.8562C335.104 23.8572 334.694 29.6213 334.557 31.0454C333.874 40.7427 324.856 45.8966 323.968 46.4391C323.148 45.3541 322.123 44.2012 320.893 42.9806C319.459 41.6243 318.092 40.4715 316.863 39.5899C319.117 36.2671 321.303 33.012 325.402 31.0454C330.048 28.8076 325.744 22.6366 321.098 24.8744C318.024 26.3663 315.496 28.3329 313.447 30.842C312.285 32.2661 311.329 33.758 310.373 35.3177C309.143 34.6395 307.845 33.8936 306.478 33.0798C305.18 32.2661 304.019 31.4523 302.926 30.7064C303.404 28.8754 305.112 23.2469 310.509 19.585H310.441ZM291.585 62.443C293.225 61.4258 295.274 60.8155 297.324 60.8155C298.69 60.8155 299.988 61.019 301.218 61.5615C308.05 64.4774 307.913 74.446 307.913 74.9207C307.776 80.278 304.839 87.6696 298.554 89.2293C297.734 89.4328 296.846 89.5684 296.026 89.5684C293.771 89.5684 291.449 88.8903 289.604 87.4662C282.841 82.1767 283.865 67.1222 291.517 62.443H291.585ZM130.834 453.659C131.927 437.655 131.858 421.651 130.56 405.647C131.38 405.647 132.268 405.511 133.02 405.376C136.436 409.444 141.081 412.225 146.615 413.445C150.168 414.259 153.72 414.327 157.136 413.92C157.956 426.533 159.117 439.147 160.688 451.692C150.782 453.32 140.808 453.862 130.834 453.591V453.659ZM179.954 24.1963C175.377 21.3481 169.98 27.8582 174.625 30.7064C177.905 32.7408 179.817 35.8602 180.979 39.3865C178.246 41.4887 175.582 43.7943 173.122 46.1678C171.414 44.6759 168.545 41.8956 166.564 37.4877C165.197 34.5039 162.67 28.8754 165.129 23.1791C166.359 20.3987 168.477 18.0931 171.141 16.5333C174.079 14.838 177.563 14.6346 180.842 15.4483C181.867 15.7196 182.823 16.0587 183.78 16.4655C189.177 18.7034 193.481 22.5009 196.214 27.6547C196.282 27.7904 196.35 27.9938 196.487 28.1294C194.916 28.9432 193.208 30.096 191.431 31.5201C190.202 32.5373 189.109 33.4867 188.221 34.4361C186.581 30.2995 183.916 26.6375 180.022 24.1963H179.954ZM191.158 63.8671C193.003 62.104 195.804 60.8155 198.673 60.8155C199.288 60.8155 199.835 60.8155 200.381 60.9511C207.759 62.3074 209.741 72.0725 209.877 72.5472C210.902 77.8367 209.672 85.6352 203.865 88.4834C202.431 89.1615 200.791 89.5684 199.083 89.5684C197.58 89.5684 196.077 89.2293 194.779 88.619C186.991 84.8893 184.736 69.9703 191.158 63.7993V63.8671ZM193.754 449.658C193.618 438.672 193.071 427.686 192.251 416.7C198.332 415.887 204.139 413.581 209.672 410.801C212.952 412.699 216.436 414.123 220.057 415.005C220.057 426.33 220.33 437.655 220.671 449.047L193.754 449.658ZM250.048 138.191C248.34 138.258 221.355 138.869 213.225 119.406C207.144 104.759 216.026 89.1615 224.975 81.363C227.913 78.7861 237.341 71.2588 250.936 72.1404C263.233 72.8863 271.09 80.0745 273.823 82.6514C276.214 84.8893 290.424 98.791 286.393 114.863C282.362 130.867 263.097 137.716 250.116 138.191H250.048ZM324.378 448.234C306.205 448.776 287.759 450.132 269.519 449.59C271.022 438.129 272.525 426.669 274.028 415.208C275.735 414.53 277.443 413.784 279.083 412.835C293.43 419.82 310.304 418.667 324.036 410.868C327.384 412.157 331.141 412.292 334.694 411.411C337.836 410.597 340.569 409.037 343.028 407.071C351.5 411.818 361.952 412.089 370.492 408.224C372.678 421.108 375.752 433.857 379.1 446.538L324.378 448.166V448.234Z" fill="#F05D4B"/>
</g>
<defs>
<clipPath id="clip0_1535_1514">
<rect width="378" height="386" fill="white"/>
</clipPath>
</defs>
</svg>
