<svg width="32" height="32" viewBox="0 0 32 32" fill="none" xmlns="http://www.w3.org/2000/svg">
<path d="M9.93553 26C9.26923 26 8.77783 25.8001 8.42803 25.5752C7.07044 24.6924 7.03712 22.8434 7.02046 22.0522C6.92052 17.2382 7.18705 12.3742 7.81171 7.59346L9.46081 7.81C8.84448 12.5074 8.58627 17.2881 8.68621 22.0189C8.70287 22.8351 8.79449 23.8262 9.33586 24.176C9.8689 24.5258 10.7767 24.201 11.2681 23.9761C12.734 23.3098 14.0166 22.2354 15.0077 20.9361C14.8162 20.7196 14.633 20.4947 14.4581 20.2615C13.9333 19.5785 13.2087 18.5208 12.9672 17.2715C12.709 15.9222 13.1004 14.573 13.9916 13.7484C15.0827 12.7323 16.89 12.7323 17.8562 13.7484C18.5391 14.473 18.7723 15.5474 18.5308 16.955C18.2976 18.3042 17.8229 19.5952 17.1399 20.7695C18.6058 22.2021 20.3881 23.3265 22.2954 24.0261C22.6202 24.1427 22.9784 24.2593 23.2032 24.176C23.5197 24.0677 23.7279 23.5097 23.7862 22.6102C24.0611 18.5957 23.9029 14.548 23.3198 10.5752C23.2116 9.81723 23.0783 9.09263 22.6785 8.61789C22.1205 7.95992 21.0294 7.80168 20.1382 7.73505C17.6729 7.55181 15.1993 7.76836 12.8006 8.37636L12.3925 6.76058C14.9661 6.10261 17.6146 5.86941 20.2632 6.0693C21.4792 6.16091 22.9867 6.41077 23.9445 7.53516C24.6275 8.34304 24.8274 9.35915 24.9689 10.3253C25.5686 14.423 25.7268 18.5874 25.4437 22.7185C25.3271 24.3759 24.7607 25.4003 23.7446 25.7501C23.0283 26 22.3204 25.8084 21.7207 25.5919C19.6802 24.8506 17.7729 23.6596 16.1821 22.1604C15.0577 23.5763 13.6169 24.734 11.9594 25.4836C11.1599 25.8501 10.4852 25.9833 9.93553 25.9833V26ZM15.9905 14.6562C15.6824 14.6562 15.3576 14.7645 15.1243 14.9811C14.6663 15.4058 14.4581 16.1887 14.608 16.9716C14.7412 17.6629 15.1077 18.3875 15.7823 19.262C15.8323 19.3287 15.8906 19.4036 15.9406 19.4703C16.3987 18.5957 16.7151 17.6546 16.8817 16.6885C16.9816 16.0971 17.0233 15.3059 16.6402 14.9061C16.4819 14.7395 16.2404 14.6646 15.9822 14.6646L15.9905 14.6562Z" fill="#444444"/>
</svg>
