<svg width="32" height="32" viewBox="0 0 32 32" fill="none" xmlns="http://www.w3.org/2000/svg">
<path d="M26 8.02921L17.9345 7.49997L17.6537 7.4707L14.5335 7.52924L14.8144 7.49997L6 8.01946V9.97068L14.8144 9.5L15.0952 9.51951L18.2153 9.46098L17.9345 9.5L26 9.98043V8.02921Z" fill="#444444"/>
<path d="M26 15.0293H17.8409L17.5601 15L14.4399 15.0585L14.7207 15.0293L6 15.0195V16.9707L14.8144 16.9805L15.0952 17L18.2153 16.9415L17.9345 16.9805H26V15.0293Z" fill="#444444"/>
<path d="M26 22.0293L17.9009 22.4707L17.6201 22.4415L14.5 22.5L14.7808 22.4707L6 22.0195V23.9708L14.8744 24.422L15.1552 24.4415L18.2754 24.3829L17.9945 24.422L26 23.9805V22.0293Z" fill="#444444"/>
</svg>
