<svg width="32" height="32" viewBox="0 0 32 32" fill="none" xmlns="http://www.w3.org/2000/svg">
<path d="M12.9591 6.04943C11.7923 5.88937 10.6106 6.11946 9.68705 6.71885C8.75112 7.32658 8.09226 8.31112 8.02052 9.58744C7.896 11.8008 8.29923 14.8569 10.3129 18.3833C12.2978 21.8587 14.7237 24.0221 16.6979 25.3276C19.0117 26.859 21.7395 25.5977 22.9344 23.326C23.1107 22.9908 23.202 22.6166 23.2 22.237C23.198 21.8574 23.1027 21.4842 22.9228 21.151L21.8805 19.2194C21.5294 18.5687 20.9611 18.0653 20.2769 17.799C19.5926 17.5327 18.8371 17.5208 18.145 17.7655L16.7762 18.249C16.4497 18.3649 16.1709 18.2982 16.0151 18.1432C15.1468 17.2728 14.3444 15.809 14.0509 14.5735C13.9973 14.3476 14.0863 14.0641 14.3477 13.8382L15.3892 12.9354C15.843 12.5422 16.1538 12.0069 16.2721 11.4146C16.3905 10.8223 16.3096 10.2071 16.0423 9.66663L14.8837 7.32408C14.7187 6.99039 14.4756 6.70245 14.1756 6.48527C13.8755 6.26808 13.5276 6.1282 13.1619 6.07777L12.9591 6.04943ZM9.25495 9.65913C9.30278 8.81714 9.72251 8.1819 10.3558 7.77092C11.0015 7.35159 11.8797 7.16319 12.7917 7.28907L12.9945 7.31658C13.3326 7.36326 13.6254 7.57501 13.7779 7.88346L14.9357 10.226C15.0794 10.5169 15.1228 10.8479 15.0592 11.1666C14.9955 11.4852 14.8284 11.7733 14.5844 11.985L13.5421 12.8887C13.0193 13.3422 12.6598 14.0766 12.8478 14.8653C13.1933 16.3183 14.1053 17.9906 15.1451 19.031C15.7223 19.6087 16.5387 19.6587 17.1844 19.4303L18.5532 18.946C18.9684 18.7991 19.4217 18.8062 19.8322 18.9659C20.2428 19.1256 20.5838 19.4276 20.7945 19.818L21.8376 21.7495C22.0026 22.058 22.005 22.429 21.8426 22.7382C20.8811 24.5656 18.9037 25.2934 17.3749 24.2813C15.5385 23.0667 13.2584 21.0393 11.3849 17.758C9.49739 14.4534 9.14363 11.6424 9.25495 9.65913Z" fill="#444444"/>
<path fill-rule="evenodd" clip-rule="evenodd" d="M12.9998 5.75239L13.2021 5.78066C13.6167 5.83784 14.0109 5.9964 14.3507 6.24233C14.6904 6.48824 14.9653 6.81402 15.1519 7.19117L16.3104 9.53371C16.6071 10.1337 16.6968 10.8164 16.5655 11.4735C16.4342 12.1306 16.0893 12.7251 15.5849 13.1621C15.5849 13.1621 15.5849 13.1621 15.5849 13.1621L14.5435 14.065C14.3485 14.2335 14.3193 14.4089 14.342 14.5043C14.6233 15.6884 15.3994 17.1021 16.2267 17.9314L16.0143 18.1432L16.2259 17.9306C16.2818 17.9862 16.4311 18.053 16.6751 17.9664L18.0443 17.4828C18.8041 17.2141 19.6337 17.2272 20.3849 17.5195C21.136 17.8118 21.7591 18.3641 22.1437 19.077M22.1437 19.077L23.186 21.0085C23.186 21.0085 23.186 21.0085 23.186 21.0085C23.3893 21.3852 23.4969 21.8068 23.4992 22.2355C23.5015 22.6642 23.3984 23.0869 23.1991 23.4657C21.95 25.8405 19.04 27.238 16.5316 25.5779C14.524 24.2502 12.0629 22.054 10.0516 18.5321C8.00766 14.9527 7.59262 11.8386 7.72021 9.57066C7.79775 8.19117 8.51343 7.12279 9.52289 6.46732C10.5139 5.82414 11.7706 5.58377 12.9998 5.75239M22.9336 23.326C21.7387 25.5977 19.0109 26.859 16.6971 25.3276C14.723 24.0221 12.297 21.8588 10.3121 18.3833C8.29845 14.857 7.89522 11.8008 8.01973 9.58751C8.09147 8.31119 8.75034 7.32666 9.68626 6.71893C10.6098 6.11953 11.7915 5.88945 12.9583 6.04951L13.1612 6.07785C13.5268 6.12828 13.8747 6.26815 14.1748 6.48534C14.4748 6.70253 14.7179 6.99046 14.8829 7.32415L16.0415 9.66671C16.3088 10.2072 16.3897 10.8224 16.2713 11.4147C16.153 12.007 15.8422 12.5422 15.3884 12.9354L14.3469 13.8383C14.0855 14.0642 13.9965 14.3476 14.0501 14.5736M22.922 21.151L21.8797 19.2195C21.5286 18.5688 20.9603 18.0654 20.2761 17.7991C19.5919 17.5328 18.8363 17.5209 18.1443 17.7656M22.922 21.151C23.1019 21.4843 23.1972 21.8574 23.1992 22.2371C23.2012 22.6167 23.1099 22.9909 22.9336 23.326M12.7909 7.28914C11.8789 7.16326 11.0007 7.35166 10.355 7.77099C9.72172 8.18198 9.302 8.81722 9.25417 9.6592C9.14285 11.6425 9.4966 14.4535 11.3841 17.7581C13.2576 21.0393 15.5377 23.0668 17.3741 24.2814C18.9029 25.2934 20.8803 24.5657 21.8418 22.7383C22.0042 22.429 22.0018 22.0581 21.8369 21.7496L20.7937 19.818C20.583 19.4277 20.242 19.1257 19.8315 18.966C19.4209 18.8063 18.9676 18.7992 18.5524 18.946L17.1836 19.4304C16.5379 19.6588 15.7216 19.6088 15.1443 19.0311C14.1045 17.9907 13.1925 16.3184 12.847 14.8653C12.659 14.0767 13.0185 13.3423 13.5413 12.8888L14.5836 11.9851C14.8277 11.7734 14.9948 11.4853 15.0584 11.1666C15.122 10.848 15.0786 10.5169 14.9349 10.2261L13.7771 7.88353C13.6246 7.57508 13.3319 7.36334 12.9938 7.31665L12.7909 7.28914ZM14.6659 10.359L13.5082 8.01653C13.3994 7.79646 13.1916 7.64693 12.9531 7.61388C12.9529 7.61386 12.9532 7.61389 12.9531 7.61388L12.7506 7.58642C11.9014 7.4692 11.0967 7.64701 10.5184 8.02259C9.95908 8.38558 9.59571 8.93685 9.55369 9.67613M14.3871 11.7584C14.3871 11.7584 14.3871 11.7584 14.3871 11.7584C14.5805 11.5906 14.7135 11.3617 14.7642 11.1079C14.8149 10.854 14.7802 10.5903 14.6659 10.359C14.6659 10.3589 14.6659 10.359 14.6659 10.359M14.3871 11.7584L13.3448 12.6621C12.7596 13.1697 12.3351 14.0117 12.5552 14.9349C12.9129 16.4392 13.8512 18.1616 14.9321 19.2431M18.6525 19.2289L17.2837 19.7132C16.5603 19.9691 15.6122 19.9238 14.9321 19.2431M21.5762 22.5988C21.6919 22.3785 21.6907 22.113 21.5726 21.8917C21.5725 21.8915 21.5727 21.8918 21.5726 21.8917L20.5298 19.9606C20.3526 19.6324 20.0663 19.3793 19.7227 19.2456C19.3791 19.1119 18.9999 19.106 18.6525 19.2289C18.6525 19.2289 18.6525 19.2289 18.6525 19.2289M21.5762 22.5988C20.672 24.3171 18.8785 24.9175 17.5397 24.0312C15.7368 22.8388 13.4917 20.8442 11.6447 17.6093C9.78746 14.3579 9.44547 11.6048 9.55369 9.67613" fill="#444444"/>
<path d="M20.1122 14.6795L18.8601 13.1278C20.5346 11.4886 22.3841 10.0317 24.3636 8.80146L25.4837 10.4589C23.556 11.6648 21.7517 13.0774 20.1173 14.6759L20.1122 14.6795Z" fill="#444444"/>
<path d="M27.0763 15.1753L25.157 14.6107C25.6709 12.8621 26.0118 11.0767 26.1561 9.30803C26.1868 8.91872 26.183 8.68853 26.131 8.61509C26.0396 8.52055 25.5377 8.43482 25.2647 8.39535L25.0974 8.36677C22.9622 8.01635 22.0445 8.13934 20.0347 8.39857L19.7788 6.41084C22.0097 6.11764 23.0889 6.01506 25.4135 6.39067L25.5668 6.41686C26.2802 6.52438 27.2502 6.68292 27.7955 7.52212C28.2045 8.15152 28.1772 8.85704 28.1305 9.46599C27.9705 11.3683 27.6082 13.2792 27.0566 15.1648L27.0763 15.1753Z" fill="#444444"/>
</svg>
