<svg width="32" height="32" viewBox="0 0 32 32" fill="none" xmlns="http://www.w3.org/2000/svg">
<path d="M28.1165 12.8551C27.9229 11.4445 27.5173 10.4672 26.8442 9.7665L25.5166 11.048C25.9038 11.4537 26.1527 12.0991 26.291 13.104C26.5768 15.2061 26.3648 17.4373 26.0882 19.733C25.8393 21.8351 24.9265 22.6004 22.5939 22.6465C18.5649 22.7294 14.4806 22.7294 10.47 22.6649C9.28065 22.6465 7.95301 22.5727 7.28919 21.9734C6.71757 21.4479 6.47785 20.5905 6.44097 20.0188V19.8805C5.96155 16.6721 5.93389 11.7948 7.36295 10.9835C9.5388 9.74806 16.094 9.68352 21.045 10.0062C21.7273 10.0523 22.5202 10.1076 23.2762 10.2275L23.562 8.4112C22.7322 8.28213 21.8932 8.21759 21.1649 8.17149C18.5188 7.99632 9.631 7.57221 6.45019 9.37927C3.51832 11.048 4.29278 18.0458 4.59703 20.0649C4.67079 21.3373 5.20553 22.5635 6.04453 23.3287C7.17855 24.3705 8.90264 24.4812 10.4423 24.5088C12.2678 24.5365 14.1026 24.5549 15.9465 24.5549C18.1777 24.5549 20.4089 24.5365 22.6308 24.4904C24.6776 24.4535 27.4527 23.9372 27.9229 19.9543C28.2087 17.5387 28.4392 15.1785 28.1165 12.8643V12.8551Z" fill="#444444"/>
<path d="M7.94563 19.1243C13.4775 19.0229 19.083 19.0874 24.6057 19.3363L24.6886 17.4924C19.1291 17.2435 13.4867 17.1789 7.91797 17.2803L7.95485 19.1243H7.94563Z" fill="#444444"/>
<path d="M14.5721 14.93L14.6551 13.086C12.4239 12.9846 10.1466 12.957 7.90625 13.0031L7.94313 14.847C10.1466 14.8009 12.3778 14.8378 14.5721 14.93Z" fill="#444444"/>
</svg>
