<svg width="32" height="32" viewBox="0 0 32 32" fill="none" xmlns="http://www.w3.org/2000/svg">
<path d="M24.7307 11.8475C23.7222 10.589 21.9469 10.6306 20.9967 10.6556H20.9634C20.955 10.5306 20.9384 10.4056 20.9217 10.2889C20.6466 8.65529 19.6048 7.1967 18.1962 6.48824C16.6626 5.7131 14.7623 5.87146 13.4621 6.88831C12.2118 7.86348 11.7367 9.38041 11.5534 10.4806C11.5284 10.6306 11.52 10.7723 11.5034 10.9224C10.5782 10.964 9.57803 11.0807 8.71121 11.4391C7.63602 11.8892 6.95256 12.9727 7.00257 14.1396L7.32763 21.7826C7.36097 22.6161 7.41931 23.8663 8.21111 24.7748C9.21129 25.9083 10.8699 25.9417 11.7617 25.9583C13.187 25.9833 14.6206 26 16.0542 26C17.7961 26 19.5298 25.975 21.2551 25.9333C23.0804 25.8916 25.0391 25.5333 25.2141 21.8493C25.3225 19.4822 25.3975 17.0818 25.4225 14.7147C25.4308 13.7228 25.3891 12.681 24.7223 11.8475H24.7307ZM14.4872 8.19687C15.2707 7.5801 16.4876 7.48841 17.4461 7.97183C18.3796 8.44692 19.088 9.43876 19.2797 10.564C19.2797 10.6056 19.2797 10.6556 19.2881 10.6973L13.187 10.8557C13.187 10.8557 13.187 10.7723 13.2036 10.739C13.337 9.93051 13.6704 8.83865 14.4956 8.18854L14.4872 8.19687ZM23.5555 21.7743C23.4471 24.108 22.6803 24.233 21.2217 24.2747C18.0962 24.3497 14.929 24.358 11.7951 24.2914C10.9116 24.2747 9.93642 24.208 9.46133 23.6746C9.08627 23.2412 9.0196 22.5327 8.98626 21.7159L8.6612 14.0729C8.64453 13.5978 8.91124 13.1561 9.34465 12.981C9.96142 12.7227 10.7199 12.631 11.4617 12.5893C11.57 14.1563 12.0618 15.6982 12.9203 17.0234L14.3205 16.1149C13.6287 15.0481 13.2287 13.8062 13.1286 12.5393L19.1714 12.3809C19.038 12.8977 18.8297 13.4061 18.5296 13.8729L19.9298 14.773C20.4133 14.0229 20.73 13.1811 20.88 12.3393H21.0217C21.1467 12.3393 21.2717 12.3309 21.3884 12.3309C22.2386 12.3309 23.0304 12.4309 23.4138 12.8977C23.7388 13.3061 23.7555 13.9812 23.7472 14.7063C23.7222 17.0568 23.6555 19.4405 23.5388 21.7826L23.5555 21.7743Z" fill="#444444"/>
</svg>
