<svg width="32" height="32" viewBox="0 0 32 32" fill="none" xmlns="http://www.w3.org/2000/svg">
<path d="M24.7119 16.6948C25.7628 15.0445 24.4664 12.6883 22.1633 13.1495C21.3232 13.3189 20.4957 13.5323 19.6808 13.7895C19.9986 13.5323 20.3132 13.275 20.631 13.0209C22.2294 11.7251 20.9016 8.92017 18.9634 9.00174C13.0639 9.25588 7.85037 12.111 4.34529 16.8141C3.58072 17.8432 4.18483 19.4307 5.19167 20.0331C5.736 20.3563 6.29605 20.419 6.81521 20.2998C6.91904 21.3258 7.48539 22.2764 8.36952 22.882C9.58088 23.7071 10.7167 23.7636 11.7928 23.431C11.7959 23.4404 11.7991 23.4498 11.8022 23.4593C12.5165 25.3512 14.2533 25.7245 15.924 25.3449C16.3991 26.5622 17.8118 27.4972 19.319 26.7097C22.4024 25.1033 24.5577 22.5023 25.8477 19.3146C26.3102 18.1726 25.6589 17.178 24.7056 16.698L24.7119 16.6948Z" fill="#F05D4B"/>
<path d="M24.7307 11.8475C23.7222 10.589 21.9469 10.6306 20.9967 10.6556H20.9634C20.955 10.5306 20.9384 10.4056 20.9217 10.2889C20.6466 8.65529 19.6048 7.1967 18.1962 6.48824C16.6626 5.7131 14.7623 5.87146 13.4621 6.88831C12.2118 7.86348 11.7367 9.38041 11.5534 10.4806C11.5284 10.6306 11.52 10.7723 11.5034 10.9224C10.5782 10.964 9.57803 11.0807 8.71121 11.4391C7.63602 11.8892 6.95256 12.9727 7.00257 14.1396L7.32763 21.7826C7.36097 22.6161 7.41931 23.8663 8.21111 24.7748C9.21129 25.9083 10.8699 25.9417 11.7617 25.9583C13.187 25.9833 14.6206 26 16.0542 26C17.7961 26 19.5298 25.975 21.2551 25.9333C23.0804 25.8916 25.0391 25.5333 25.2141 21.8493C25.3225 19.4822 25.3975 17.0818 25.4225 14.7147C25.4308 13.7228 25.3891 12.681 24.7223 11.8475H24.7307ZM14.4872 8.19687C15.2707 7.5801 16.4876 7.48841 17.4461 7.97183C18.3796 8.44692 19.088 9.43876 19.2797 10.564C19.2797 10.6056 19.2797 10.6556 19.2881 10.6973L13.187 10.8557C13.187 10.8557 13.187 10.7723 13.2036 10.739C13.337 9.93051 13.6704 8.83865 14.4956 8.18854L14.4872 8.19687ZM23.5555 21.7743C23.4471 24.108 22.6803 24.233 21.2217 24.2747C18.0962 24.3497 14.929 24.358 11.7951 24.2914C10.9116 24.2747 9.93642 24.208 9.46133 23.6746C9.08627 23.2412 9.0196 22.5327 8.98626 21.7159L8.6612 14.0729C8.64453 13.5978 8.91124 13.1561 9.34465 12.981C9.96142 12.7227 10.7199 12.631 11.4617 12.5893C11.57 14.1563 12.0618 15.6982 12.9203 17.0234L14.3205 16.1149C13.6287 15.0481 13.2287 13.8062 13.1286 12.5393L19.1714 12.3809C19.038 12.8977 18.8297 13.4061 18.5296 13.8729L19.9298 14.773C20.4133 14.0229 20.73 13.1811 20.88 12.3393H21.0217C21.1467 12.3393 21.2717 12.3309 21.3884 12.3309C22.2386 12.3309 23.0304 12.4309 23.4138 12.8977C23.7388 13.3061 23.7555 13.9812 23.7472 14.7063C23.7222 17.0568 23.6555 19.4405 23.5388 21.7826L23.5555 21.7743Z" fill="#444444"/>
<path d="M18.8327 22.1358C18.4727 22.1358 18.1327 22.0658 17.8127 21.9258C17.4927 21.7858 17.2143 21.5874 16.9777 21.3308C16.7443 21.0741 16.576 20.7708 16.4727 20.4208L17.6377 20.1058C17.721 20.3924 17.8727 20.6141 18.0927 20.7708C18.316 20.9241 18.561 20.9991 18.8277 20.9958C19.0643 20.9958 19.276 20.9408 19.4627 20.8308C19.6493 20.7208 19.796 20.5724 19.9027 20.3858C20.0093 20.1958 20.0627 19.9841 20.0627 19.7508C20.0627 19.3941 19.9477 19.0958 19.7177 18.8558C19.4877 18.6158 19.191 18.4958 18.8277 18.4958C18.7177 18.4958 18.6093 18.5108 18.5027 18.5408C18.3993 18.5708 18.2993 18.6124 18.2027 18.6658L17.6527 17.7158L20.0727 15.6458L20.1777 15.9358H16.7527V14.8008H21.1677V15.9408L19.2227 17.8108L19.2127 17.4558C19.6493 17.4858 20.021 17.6074 20.3277 17.8208C20.6377 18.0341 20.8743 18.3091 21.0377 18.6458C21.2043 18.9824 21.2877 19.3508 21.2877 19.7508C21.2877 20.2041 21.176 20.6108 20.9527 20.9708C20.7327 21.3308 20.436 21.6158 20.0627 21.8258C19.6927 22.0324 19.2827 22.1358 18.8327 22.1358Z" fill="#FFFAF9"/>
<path d="M10.6172 21.9904V20.9404L13.6972 18.1954C13.9372 17.9821 14.1039 17.7804 14.1972 17.5904C14.2905 17.4004 14.3372 17.2171 14.3372 17.0404C14.3372 16.8004 14.2855 16.5871 14.1822 16.4004C14.0789 16.2104 13.9355 16.0604 13.7522 15.9504C13.5722 15.8404 13.3639 15.7854 13.1272 15.7854C12.8772 15.7854 12.6555 15.8437 12.4622 15.9604C12.2722 16.0737 12.1239 16.2254 12.0172 16.4154C11.9105 16.6054 11.8605 16.8104 11.8672 17.0304H10.6272C10.6272 16.5504 10.7339 16.1321 10.9472 15.7754C11.1639 15.4187 11.4605 15.1421 11.8372 14.9454C12.2172 14.7487 12.6555 14.6504 13.1522 14.6504C13.6122 14.6504 14.0255 14.7537 14.3922 14.9604C14.7589 15.1637 15.0472 15.4471 15.2572 15.8104C15.4672 16.1704 15.5722 16.5854 15.5722 17.0554C15.5722 17.3987 15.5255 17.6871 15.4322 17.9204C15.3389 18.1537 15.1989 18.3687 15.0122 18.5654C14.8289 18.7621 14.6005 18.9804 14.3272 19.2204L12.1422 21.1554L12.0322 20.8554H15.5722V21.9904H10.6172Z" fill="#FFFAF9"/>
</svg>
