<svg width="32" height="32" viewBox="0 0 32 32" fill="none" xmlns="http://www.w3.org/2000/svg">
<path d="M27.6881 12.7909C27.4971 11.399 27.0968 10.4346 26.4326 9.74315L25.1225 11.0078C25.5046 11.4081 25.7503 12.0449 25.8867 13.0366C26.1688 15.1109 25.9595 17.3126 25.6866 19.5779C25.4409 21.6523 24.5403 22.4074 22.2385 22.4529C18.2627 22.5347 14.2324 22.5347 10.2748 22.4711C9.10119 22.4529 7.79109 22.3801 7.13605 21.7887C6.57198 21.2701 6.33544 20.424 6.29904 19.86V19.7235C5.82596 16.5575 5.79866 11.7447 7.20883 10.9441C9.35593 9.72496 15.8245 9.66127 20.7101 9.9797C21.3833 10.0252 22.1657 10.0798 22.9117 10.198L23.1938 8.40577C22.375 8.2784 21.5471 8.21471 20.8283 8.16922C18.2172 7.99636 9.4469 7.57786 6.30814 9.36104C3.41502 11.0078 4.17924 17.913 4.47947 19.9055C4.55226 21.161 5.07993 22.371 5.90784 23.1261C7.02687 24.1542 8.72817 24.2633 10.2475 24.2906C12.0489 24.3179 13.8594 24.3361 15.6789 24.3361C17.8806 24.3361 20.0823 24.3179 22.2749 24.2724C24.2946 24.236 27.0331 23.7266 27.4971 19.7963C27.7791 17.4127 28.0065 15.0836 27.6881 12.8V12.7909Z" fill="#444444"/>
<path d="M13 17.725V16.4375H17.0564C17.1202 16.4375 17.198 16.4354 17.2897 16.4313C17.3855 16.4229 17.4912 16.4021 17.6068 16.3688C17.9379 16.2729 18.1772 16.1 18.3248 15.85C18.4724 15.5958 18.5462 15.3 18.5462 14.9625C18.5462 14.7583 18.5162 14.5542 18.4564 14.35C18.4006 14.1417 18.3028 13.9583 18.1632 13.8C18.0276 13.6417 17.8422 13.5313 17.6068 13.4688C17.5031 13.4396 17.3974 13.4229 17.2897 13.4187C17.186 13.4146 17.1083 13.4125 17.0564 13.4125H14.8009V12H17.1162C17.1601 12 17.2459 12.0021 17.3735 12.0063C17.5051 12.0104 17.6507 12.025 17.8103 12.05C18.3048 12.1292 18.7137 12.3021 19.0368 12.5687C19.3638 12.8354 19.6051 13.1729 19.7607 13.5812C19.9202 13.9854 20 14.4313 20 14.9188C20 15.6646 19.8185 16.2813 19.4556 16.7688C19.0926 17.2563 18.5442 17.5583 17.8103 17.675C17.6507 17.6958 17.5051 17.7104 17.3735 17.7188C17.2459 17.7229 17.1601 17.725 17.1162 17.725H13ZM13 19.775V18.5938H18.1034V19.775H13ZM13.8556 21V12H15.2974V21H13.8556Z" fill="#444444"/>
</svg>
