<svg width="32" height="32" viewBox="0 0 32 32" fill="none" xmlns="http://www.w3.org/2000/svg">
<path d="M15.8467 25C14.4369 25 13.0347 24.9846 11.6403 24.9461C10.7543 24.9229 9.10563 24.8844 8.14261 23.536C7.47235 22.5959 7.3722 21.3938 7.33368 20.1378L7.0024 10.9452C6.95618 9.64293 7.58021 8.46399 8.59715 7.94772C9.6141 7.42375 10.8159 7.32358 11.856 7.29275L20.6849 7.00765C21.5709 6.98453 23.3891 6.92289 24.3598 8.41005C24.9684 9.33471 25.0069 10.5137 24.9992 11.6464C24.9761 14.5051 24.9068 17.387 24.7989 20.2226C24.6525 24.0291 23.1579 24.8536 20.9623 24.9229C19.2674 24.9769 17.557 25 15.8467 25ZM21.1009 8.54104C20.9854 8.54104 20.8621 8.54104 20.7388 8.54104L11.9022 8.82615C11.0317 8.85697 10.0455 8.93403 9.29823 9.3193C8.82828 9.55817 8.52011 10.2054 8.54323 10.8912L8.8668 20.0839C8.90532 21.0933 8.96695 22.0488 9.39068 22.6421C9.82211 23.2431 10.5848 23.3818 11.6711 23.405C14.7296 23.482 17.8421 23.4743 20.916 23.3818C22.1564 23.3433 23.1348 23.3125 23.2581 20.1609C23.366 17.3407 23.4353 14.4743 23.4584 11.631C23.4661 10.6986 23.443 9.81245 23.0732 9.24995C22.7034 8.68745 22.0408 8.54104 21.1009 8.54104Z" fill="#444444"/>
</svg>
