<svg width="32" height="32" viewBox="0 0 32 32" fill="none" xmlns="http://www.w3.org/2000/svg">
<path d="M15.8467 25C14.4369 25 13.0347 24.9846 11.6403 24.9461C10.7543 24.9229 9.10563 24.8844 8.14261 23.536C7.47235 22.5959 7.3722 21.3938 7.33368 20.1378L7.0024 10.9452C6.95618 9.64293 7.58021 8.46399 8.59715 7.94772C9.6141 7.42375 10.8159 7.32358 11.856 7.29275L20.6849 7.00765C21.5709 6.98453 23.3891 6.92289 24.3598 8.41005C24.9684 9.33471 25.0069 10.5137 24.9992 11.6464C24.9761 14.5051 24.9068 17.387 24.7989 20.2226C24.6525 24.0291 23.1579 24.8536 20.9623 24.9229C19.2674 24.9769 17.557 25 15.8467 25ZM21.1009 8.54104C20.9854 8.54104 20.8621 8.54104 20.7388 8.54104L11.9022 8.82615C11.0317 8.85697 10.0455 8.93403 9.29823 9.3193C8.82828 9.55817 8.52011 10.2054 8.54323 10.8912L8.8668 20.0839C8.90532 21.0933 8.96695 22.0488 9.39068 22.6421C9.82211 23.2431 10.5848 23.3818 11.6711 23.405C14.7296 23.482 17.8421 23.4743 20.916 23.3818C22.1564 23.3433 23.1348 23.3125 23.2581 20.1609C23.366 17.3407 23.4353 14.4743 23.4584 11.631C23.4661 10.6986 23.443 9.81245 23.0732 9.24995C22.7034 8.68745 22.0408 8.54104 21.1009 8.54104Z" fill="#444444"/>
<path d="M19.6012 21.9445C17.3451 22.0121 15.0865 22.0179 12.8304 21.9621C12.0727 21.9445 11.2216 21.8681 10.7229 21.1689C10.3105 20.5931 10.2625 19.7647 10.2362 18.9979L10.0012 12.294C9.97722 11.5742 10.3153 10.9044 10.8571 10.6283C11.4997 10.2993 12.2813 10.2317 12.9934 10.2111C15.1417 10.1436 17.2875 10.0731 19.4358 10.0055C20.2246 9.97905 21.1333 10.0202 21.6272 10.7752C21.9916 11.3333 22.006 12.1089 21.9988 12.8257C21.9796 14.9057 21.9317 16.9826 21.8526 19.0626C21.7543 21.6155 20.8552 21.9122 19.6012 21.9504V21.9445Z" fill="#444444"/>
</svg>
