<svg width="32" height="32" viewBox="0 0 32 32" fill="none" xmlns="http://www.w3.org/2000/svg">
<path fill-rule="evenodd" clip-rule="evenodd" d="M24.7199 10.9515C24.2874 10.851 23.7815 10.8417 23.2303 10.859L23.2255 10.8592C20.1749 10.9388 17.1152 11.0272 14.063 11.1156C13.0377 11.1514 12.0895 11.2334 11.3581 11.5672L11.3569 11.5677C10.9433 11.7557 10.6312 12.2378 10.6537 12.8323C10.6537 12.8328 10.6538 12.8334 10.6538 12.8339L10.8662 17.8001C10.8838 18.2774 10.9405 19.6358 11.0643 20.959C11.1263 21.6226 11.2036 22.259 11.2974 22.7643C11.3445 23.0177 11.3926 23.2208 11.4393 23.3698C11.4735 23.4791 11.4971 23.5264 11.5008 23.5353C11.6989 23.7741 11.9816 23.9338 12.378 24.0362C12.7967 24.1444 13.2791 24.1731 13.8153 24.1864C17.0154 24.248 20.2128 24.248 23.4081 24.1599L23.9718 24.1444L23.9728 24.1465C24.5121 24.0942 24.839 23.9791 25.0686 23.7726C25.3597 23.5108 25.6932 22.9123 25.7606 21.3775C25.8752 18.7594 25.9458 16.1501 25.9722 13.5321C25.9816 12.5751 25.9325 11.9056 25.6143 11.4737C25.4223 11.2151 25.1365 11.0484 24.7199 10.9515ZM25.1206 9.22768C25.8073 9.38732 26.5213 9.72473 27.0372 10.4212L27.0383 10.4227C27.763 11.4053 27.7503 12.6979 27.742 13.5458L27.7419 13.5494C27.7153 16.1876 27.6442 18.8171 27.5288 21.4551C27.4546 23.1414 27.0802 24.3439 26.2519 25.0886C25.4318 25.8261 24.3656 25.9245 23.4632 25.9468L22.9013 25.9608L22.8927 25.9437C19.8527 26.0178 16.8145 26.0143 13.7788 25.9558L13.7741 25.9557C13.2316 25.9424 12.5689 25.9135 11.9352 25.7497C11.2878 25.5825 10.6143 25.2606 10.105 24.6239C9.92446 24.3987 9.8185 24.1164 9.75035 23.8987C9.67445 23.6564 9.61125 23.3775 9.55737 23.0874C9.44933 22.5056 9.36621 21.8086 9.30217 21.1238C9.17395 19.7528 9.1157 18.3574 9.0977 17.8677L8.88529 12.9025C8.83762 11.6752 9.48079 10.4768 10.6239 9.95683C11.7146 9.45929 12.9952 9.3819 14.004 9.34682L14.0091 9.34664C17.0611 9.25817 20.1233 9.16968 23.177 9.09002C23.7492 9.07206 24.4501 9.07181 25.1206 9.22768Z" fill="#444444"/>
<path fill-rule="evenodd" clip-rule="evenodd" d="M19.3339 7.77124C19.3331 7.77125 19.3324 7.77127 19.3316 7.77129L10.1687 8.03664L10.1662 8.03671C9.15034 8.06321 8.20764 8.14515 7.46633 8.47928C7.06047 8.66719 6.74782 9.15032 6.77095 9.74593L7.09825 18.2114C7.12064 18.6992 7.14575 19.1379 7.22557 19.5361C7.30445 19.9296 7.4257 20.2203 7.59771 20.4312C7.82985 20.7133 8.17789 20.8915 8.67314 20.992L8.32122 22.7265C7.59582 22.5793 6.81139 22.2622 6.22941 21.5537L6.22795 21.5519C5.80746 21.0373 5.60154 20.439 5.49028 19.884C5.38002 19.3339 5.35196 18.7649 5.33015 18.2894L5.32986 18.283L5.00247 9.81461C5.00247 9.81456 5.00247 9.81466 5.00247 9.81461C4.95491 8.58852 5.59669 7.39097 6.72938 6.8702L6.7346 6.8678C7.83299 6.37141 9.10084 6.29412 10.1187 6.26753C10.1192 6.26752 10.1196 6.26751 10.12 6.2675L19.2851 6.0021L19.2898 6.00197C19.9239 5.98699 20.6676 6.05542 21.3712 6.27545C22.0703 6.49407 22.8002 6.88557 23.2991 7.56766L21.8707 8.61254C21.6705 8.33893 21.3253 8.11543 20.843 7.96459C20.3659 7.81541 19.8231 7.75989 19.3339 7.77124Z" fill="#444444"/>
</svg>
