<svg width="40" height="86" viewBox="0 0 40 86" fill="none" xmlns="http://www.w3.org/2000/svg">
<g clip-path="url(#clip0_1525_1069)">
<path d="M2.3125 37.6709C3.94056 37.7288 9.56055 37.5434 14.578 29.9304C21.3625 19.629 21.3973 4.26962 21.3915 2.20703C21.4494 4.78527 22.1157 26.7728 31.1135 36.4078C33.3209 38.7659 35.5573 39.8899 37.533 40.3708C35.4241 40.7706 30.2039 42.3175 25.5688 49.9132C17.9442 62.3873 18.3845 80.5856 18.4656 83.0248C20.1806 68.2332 17.8978 53.5401 12.3416 45.0464C8.63933 39.3975 4.50835 38.0475 2.31829 37.6709H2.3125Z" fill="#F05D4B"/>
<path d="M2.31285 39.9945C8.74976 40.1799 13.9816 35.429 17.1276 30.2435C21.0442 23.795 22.6839 16.1298 23.4023 8.69635C23.6051 6.54105 23.7267 4.37997 23.7209 2.21888L19.0743 2.21888C19.1786 6.5932 19.6363 10.9501 20.32 15.2665C21.3745 21.8657 23.101 28.7487 26.7221 34.4498C29.1208 38.2158 32.5044 41.4835 36.9308 42.6191V38.1462C29.7002 39.5541 24.5668 46.0606 21.6352 52.3932C18.1937 59.8267 16.7336 68.0481 16.2585 76.1768C16.1311 78.4595 16.0731 80.7539 16.1427 83.0366C16.1832 84.2881 17.1855 85.3541 18.466 85.3541C19.8391 85.3541 20.6444 84.2881 20.7893 83.0366C21.7221 74.7978 21.5425 66.3794 19.8449 58.2507C18.4486 51.4952 15.8298 44.0907 10.54 39.3629C8.39055 37.4394 5.78913 35.9562 2.92699 35.4463C1.69291 35.2262 0.429861 35.7824 0.0648518 37.0686C-0.24222 38.1926 0.447243 39.7048 1.69291 39.9249C2.53301 40.0756 3.37311 40.3073 4.17266 40.6376C3.81344 40.4869 4.48552 40.794 4.57822 40.8404C4.84474 40.9678 5.11125 41.1185 5.37198 41.2691C5.85865 41.5588 6.33954 41.8832 6.78566 42.2367C9.23644 44.2066 10.9572 46.9296 12.2956 49.7454C15.1751 55.8231 16.2875 62.8047 16.612 69.4733C16.8379 74.0041 16.6641 78.5406 16.1542 83.0482H20.7893C20.6329 78.1119 20.9573 73.0887 21.7511 68.2566C23.0315 60.4987 25.4823 51.9703 31.3224 46.3561C32.5391 45.1857 33.8601 44.2413 35.407 43.4997C35.5635 43.4244 35.7199 43.3491 35.8763 43.2853C35.5925 43.4128 35.7547 43.3317 35.9517 43.268C36.2182 43.1753 36.4963 43.071 36.7686 42.9899C37.2205 42.8508 37.684 42.7407 38.1417 42.648C40.4361 42.2019 40.2796 38.7198 38.1417 38.1752C31.8323 36.5587 28.7963 29.5424 27.035 23.9109C26.1022 20.9155 25.4127 17.8332 24.8913 14.7335C24.4683 12.2016 24.196 9.9536 23.9759 7.22472C23.8426 5.57349 23.7441 3.91067 23.7094 2.24785C23.6456 -0.730168 19.0511 -0.74755 19.0627 2.24785C19.0917 6.85971 18.6166 11.3325 17.6606 15.7706C16.2643 22.2596 13.6224 30.0929 7.6837 33.8125C6.41486 34.612 5.73698 34.9075 4.27115 35.232C4.02202 35.2899 3.76709 35.3363 3.51216 35.371C4.05099 35.2899 3.5759 35.3594 3.32097 35.371C2.99072 35.3884 2.64889 35.4 2.31285 35.3884C-0.682549 35.3073 -0.682549 39.9423 2.31285 40.0292L2.30126 40.0003L2.31285 39.9945Z" fill="#F05D4B"/>
</g>
<defs>
<clipPath id="clip0_1525_1069">
<rect width="39.815" height="85.3485" fill="white"/>
</clipPath>
</defs>
</svg>
