<svg width="77" height="72" viewBox="0 0 77 72" fill="none" xmlns="http://www.w3.org/2000/svg">
<g clip-path="url(#clip0_1525_1067)">
<path fill-rule="evenodd" clip-rule="evenodd" d="M29.2665 28.7526C31.6154 26.8586 33.6481 24.6059 35.2887 22.0631C37.4295 18.7507 38.9061 15.0916 39.8704 11.2754C39.7304 7.72519 40.2385 4.1669 41.2549 0.753682C41.603 -0.418982 43.3837 -0.148987 43.3797 1.0398C43.3757 2.22858 43.3077 3.41333 43.1956 4.59406C42.9755 6.91521 42.5994 9.2283 42.0432 11.4971C42.1112 12.8712 42.2913 14.2373 42.5914 15.5913C44.1119 22.4258 48.5456 28.2206 54.1956 32.2182C59.6856 36.1029 66.14 38.424 72.7624 39.3791C73.9188 39.4073 75.0792 39.5322 76.2236 39.7579C77.4241 39.9916 77.144 41.9944 75.9395 41.8977C74.8471 41.8131 73.7587 41.6962 72.6743 41.5431C70.6496 41.4947 68.6169 41.805 66.6842 42.4578C61.6583 44.1665 57.7849 48.3131 56.4564 53.4873C55.34 57.8354 56.0643 62.5261 58.2651 66.3987C58.8213 67.1523 59.3455 67.93 59.8377 68.7158C60.4779 69.7515 58.8973 71.0128 58.137 70.0376C57.5808 69.3284 57.0727 68.5869 56.6125 67.8172C56.5685 67.7608 56.5285 67.7044 56.4844 67.648C56.4404 67.5915 56.4004 67.5351 56.3564 67.4787C56.3284 67.4424 56.3124 67.4223 56.3044 67.4102C56.2844 67.386 56.2684 67.3659 56.2524 67.3417C56.2324 67.3175 56.2163 67.2933 56.1963 67.2692C55.9843 66.9992 55.7722 66.7332 55.5521 66.4713C55.0719 65.899 54.5758 65.3429 54.0556 64.8029C51.8748 62.5422 49.3538 60.5676 46.4128 59.3869C42.6074 57.8556 38.6059 57.8878 34.7325 59.1774C29.0825 61.0593 23.9926 64.2629 19.8311 68.4821C18.9948 69.6185 18.0625 70.6985 17.0341 71.6495C17.0221 71.6656 17.0101 71.6818 16.9981 71.6939L16.9901 71.6858C16.5539 72.0807 15.9057 72.1371 15.4615 71.6858C15.0174 71.2345 15.0974 70.6058 15.4615 70.1424C16.3619 69.002 17.3182 67.9139 18.3346 66.8783C18.6427 66.4471 18.9468 65.9877 19.2709 65.4638C20.9955 62.6712 22.156 59.4917 22.2 56.1671C22.248 52.8063 21.1436 49.5905 19.2669 46.8422C16.0738 42.1717 10.9159 39.3065 5.44588 38.3716C3.99736 38.3394 2.55283 38.2266 1.11231 38.0331C1.10431 38.0331 1.0923 38.0331 1.0843 38.0331C0.504088 37.9485 0.00390625 37.5939 0.00390625 36.9411C0.00390625 36.3447 0.500087 35.8611 1.0843 35.853C2.66888 35.8288 4.25745 35.9457 5.82202 36.2117C6.41824 36.2197 7.01846 36.2197 7.61467 36.1996C15.2374 35.982 23.1363 33.5117 29.2065 28.7969C29.2265 28.7808 29.2465 28.7647 29.2705 28.7526H29.2665ZM40.8548 6.18179C40.8628 6.13343 40.8588 6.15358 40.8548 6.20194C40.8548 6.20194 40.8548 6.19388 40.8548 6.18179Z" fill="#F05D4B"/>
</g>
<defs>
<clipPath id="clip0_1525_1067">
<rect width="77" height="72" fill="white"/>
</clipPath>
</defs>
</svg>
