<svg width="32" height="32" viewBox="0 0 32 32" fill="none" xmlns="http://www.w3.org/2000/svg">
<path d="M23.168 21.3891C23.0622 24.1223 22.2952 24.1399 21.1314 24.1752C18.2571 24.2545 15.3476 24.2634 12.4821 24.2016C11.5035 24.1752 10.8246 24.0606 10.4631 23.5668C10.0928 23.0643 10.0399 22.2179 10.0046 21.3274L9.6696 11.9199L7.90625 11.9816L8.24129 21.3803C8.28537 22.5617 8.37354 23.6991 9.03479 24.5984C9.987 25.8945 11.574 25.9385 12.4381 25.9562C13.7429 25.9914 15.0654 26.0002 16.3791 26.0002C17.9838 26.0002 19.5884 25.9738 21.1843 25.9297C23.3355 25.868 24.7903 25.0833 24.9314 21.4508C25.0372 18.8499 25.0989 14.8647 25.1165 12.2461L23.3532 12.2285C23.3267 14.8383 23.265 18.8058 23.168 21.3803V21.3891Z" fill="#444444"/>
<path d="M13.4665 16.5312L11.7031 16.6282C11.8001 18.3651 11.9324 20.1285 12.1087 21.8566L13.8632 21.6802C13.6869 19.9698 13.5546 18.2417 13.4665 16.5312Z" fill="#444444"/>
<path d="M17.443 16.584H15.6797C15.6797 18.3033 15.7061 20.0666 15.7855 21.8123L17.5488 21.733C17.4695 20.0137 17.4342 18.2768 17.443 16.5752V16.584Z" fill="#444444"/>
<path d="M19.6917 16.4864C19.5154 18.2056 19.3743 19.969 19.2773 21.7147L21.0407 21.8117C21.1377 20.0924 21.2699 18.3555 21.4463 16.6627L19.6917 16.4775V16.4864Z" fill="#444444"/>
<path d="M21.0149 9.21293C21.0325 8.81618 21.0149 8.41942 20.9532 8.04031C20.6887 6.49738 19.71 5.12197 18.3875 4.46071C16.9416 3.72892 15.1341 3.87881 13.9086 4.83983C12.7272 5.76559 12.2775 7.18508 12.11 8.21664C12.0571 8.55168 12.0306 8.88671 12.013 9.22175C10.0028 9.34518 7.99258 9.53915 6 9.8301L6.25569 11.5758C8.19537 11.2937 10.1527 11.0997 12.1188 10.9851C12.3128 12.1665 12.736 13.3127 13.3884 14.3178L14.8696 13.3568C14.3847 12.6074 14.0585 11.7698 13.891 10.8881C15.5133 10.8264 17.1444 10.8264 18.7755 10.8705C18.7049 11.0115 18.6432 11.1526 18.555 11.2937L20.0451 12.2459C20.3007 11.8403 20.5123 11.4083 20.6711 10.9675C22.5402 11.0733 24.4182 11.2496 26.2873 11.5053L26.5254 9.75957C24.6915 9.5127 22.8664 9.33636 21.0325 9.22175L21.0149 9.21293ZM13.7764 9.11595C13.794 8.90435 13.8116 8.69274 13.8469 8.48996C13.9615 7.76699 14.2613 6.78833 14.9931 6.21524C15.6808 5.67742 16.7476 5.59807 17.594 6.02127C18.4228 6.44448 19.0488 7.32615 19.2163 8.32244C19.2604 8.57813 19.2692 8.84263 19.2604 9.11595C17.4353 9.04541 15.6014 9.04541 13.7852 9.11595H13.7764Z" fill="#444444"/>
</svg>
