<svg width="112" height="24" viewBox="0 0 112 24" fill="none" xmlns="http://www.w3.org/2000/svg">
<g clip-path="url(#clip0_2764_3541)">
<path d="M19.8785 4H17.2089V17.5377H19.8785V4Z" fill="black"/>
<path d="M14.1422 4.75753H11.4726V18.295H14.1422V4.75753Z" fill="black"/>
<path d="M8.40592 5.60323H5.73629V19.1432H8.40592V5.60323Z" fill="black"/>
<path d="M2.66964 6.45833H0L1.01725e-05 20H2.66965L2.66964 6.45833Z" fill="black"/>
<path d="M90.3879 11.2121L86.0894 6.43292H83.5765V17.4985H86.2002V10.4384L90.1246 14.6213H90.6095L94.4664 10.4384V17.4985H97.0901V6.43292H94.5772L90.3879 11.2121Z" fill="black"/>
<path d="M109.59 6.43292L103.087 13.6251V6.43292H100.463V17.4985H102.867L109.37 10.3063V17.4985H111.994V6.43292H109.59Z" fill="black"/>
<path d="M69.4444 10.482C69.4444 12.2437 70.4078 13.6316 71.8867 14.2135L69.1136 17.4985H72.325L74.8476 14.51H77.5773V17.4985H80.201V6.43292H73.5213C71.0308 6.43292 69.4444 8.13668 69.4444 10.482ZM77.5789 8.87008V12.1422H74.0078C72.8164 12.1422 72.1773 11.4781 72.1773 10.5045C72.1773 9.53095 72.8389 8.86686 74.0078 8.86686L77.5789 8.87008Z" fill="black"/>
<path d="M57.2521 8.64603C57.0915 12.4517 56.2886 14.9082 54.7166 14.9082H54.3232V17.5646L54.7423 17.5871C57.8943 17.7628 59.6365 14.9968 59.9223 8.95551H64.0683V17.4985H66.6872V6.43292H57.3404L57.2521 8.64603Z" fill="black"/>
<path d="M47.3755 6.27832C43.8268 6.27832 41.2738 8.73482 41.2738 11.965C41.2738 15.3064 44.0516 17.6759 47.3755 17.6759C50.8374 17.6759 53.5269 15.1743 53.5269 11.965C53.5269 8.75578 50.8374 6.27832 47.3755 6.27832ZM47.3755 15.0195C45.3699 15.0195 44.0035 13.7139 44.0035 11.965C44.0035 10.1726 45.3715 8.90246 47.3755 8.90246C49.3794 8.90246 50.7924 10.2306 50.7924 11.965C50.7924 13.6994 49.3601 15.0195 47.3755 15.0195Z" fill="black"/>
<path d="M38.4911 6.4538H29.231L29.1427 8.6669C29.011 11.8552 28.1793 14.8871 26.6073 14.9307L25.8799 14.9532V19.9996L28.5261 19.9942V17.5H37.7188V19.9942H40.3875V14.9307H38.4911V6.4538ZM35.8674 14.9307H30.2683C31.2157 13.4929 31.7231 11.4119 31.8114 8.978H35.8674V14.9307Z" fill="black"/>
</g>
<defs>
<clipPath id="clip0_2764_3541">
<rect width="112" height="16" fill="white" transform="translate(0 4)"/>
</clipPath>
</defs>
</svg>
