<svg width="32" height="32" viewBox="0 0 32 32" fill="none" xmlns="http://www.w3.org/2000/svg">
<path d="M19.6232 24.2689C20.8912 23.2168 20.8462 21.3913 20.8192 20.4111L19.0207 20.4561C19.0477 21.4543 18.9937 22.4524 18.4722 22.8841C18.0945 23.1988 17.438 23.2168 16.7456 23.2078C14.4165 23.1808 12.0605 23.1089 9.73138 23.001C7.47424 22.8931 7.35734 22.1557 7.32137 20.6449C7.24943 17.4346 7.24044 14.1793 7.30339 10.9689C7.32137 10.0696 7.38432 9.07147 7.90589 8.59486C8.31056 8.22616 9.00298 8.16322 9.79433 8.12724L17.3751 7.79452C17.8067 7.77653 18.2114 8.04631 18.3822 8.45997C18.697 9.25132 18.7689 10.2945 18.7869 11.2117L20.5854 11.1667C20.5585 10.0876 20.4775 8.84665 20.0459 7.78553C19.5962 6.66145 18.4902 5.94205 17.2941 5.996L9.7134 6.32873C8.87709 6.3647 7.61813 6.41865 6.69189 7.26396C5.54983 8.2981 5.52286 10.0157 5.50487 10.9329C5.47789 12.3987 5.45991 13.8735 5.45991 15.3393C5.45991 17.1288 5.47789 18.9094 5.52285 20.6809C5.56782 22.7132 6.09838 24.6196 9.64146 24.7905C11.9885 24.9074 14.3716 24.9793 16.7276 25.0063C17.7258 25.0153 18.7779 24.9704 19.6322 24.2599L19.6232 24.2689Z" fill="#444444"/>
<path d="M23.7159 14.8623C21.3059 14.8263 18.8869 14.8982 16.4948 15.0871L16.6387 16.8766C18.9858 16.6877 21.3688 16.6248 23.7339 16.6608C23.0145 17.2273 22.2681 17.7579 21.4587 18.2165L22.349 19.7812C23.518 19.1157 24.6151 18.3334 25.6043 17.4701C25.8471 17.2543 26.3147 16.8496 26.4316 16.2291C26.6025 15.3479 25.982 14.6284 25.7122 14.3227C24.741 13.2076 23.6259 12.1915 22.394 11.2832L21.3238 12.731C22.1961 13.3695 22.9785 14.0979 23.7159 14.8533L23.7159 14.8623Z" fill="#444444"/>
</svg>
