<svg width="283" height="269" viewBox="0 0 283 269" fill="none" xmlns="http://www.w3.org/2000/svg">
<g clip-path="url(#clip0_1535_1211)">
<path d="M170.271 79.6805C170.481 79.6805 170.661 79.6805 170.821 79.6205C172.391 79.2305 173.211 76.8705 173.211 75.4105C173.211 74.6205 172.971 72.2005 171.641 71.6305C171.401 71.5105 171.121 71.4805 170.821 71.4805C170.371 71.4805 169.851 71.6305 169.461 71.8405C168.521 72.4105 167.831 73.9605 167.731 75.6205C167.641 77.1905 168.061 78.6505 168.851 79.2205C169.211 79.4905 169.731 79.6705 170.271 79.6705V79.6805Z" fill="#444444"/>
<path d="M152.841 89.8803C152.291 90.5803 151.721 91.2403 151.151 91.9103C150.791 92.3003 150.091 93.3003 149.491 93.3303C148.101 93.3903 146.981 90.5203 146.491 89.5803C145.311 87.2203 141.801 89.3103 142.981 91.6403C144.281 94.2103 146.161 97.4503 149.491 97.4203C152.581 97.4203 154.731 94.1203 156.391 91.9403C157.961 89.8503 154.421 87.8203 152.881 89.8803H152.851H152.841Z" fill="#444444"/>
<path d="M149.631 84.6101C151.811 84.5501 154.751 82.1901 154.531 80.5801C154.201 78.1901 152.471 76.9801 149.081 76.9501C146.051 76.8301 143.901 78.9801 144.181 81.0701C144.421 82.8301 147.181 84.7001 149.631 84.6401V84.6101Z" fill="#444444"/>
<path d="M126.38 79.4902C126.65 79.6102 126.98 79.6702 127.29 79.6702C127.68 79.6702 128.05 79.5802 128.35 79.4302C129.8 78.7002 130.08 76.2502 129.77 74.8002C129.62 74.0102 128.83 71.7102 127.41 71.4402C127.29 71.4402 127.2 71.4102 127.05 71.4102C126.45 71.4102 125.78 71.6802 125.32 72.1102C124.53 72.8702 124.17 74.5302 124.44 76.1702C124.68 77.7102 125.44 79.0402 126.32 79.4702L126.38 79.5002V79.4902Z" fill="#444444"/>
<path d="M258.201 122.26C258.051 121.74 257.591 120.29 256.291 119.66C255.111 119.08 253.751 119.45 252.751 119.9C252.601 119.78 252.451 119.66 252.301 119.54C253.001 118.36 253.181 117 252.751 115.79C252.661 115.58 252.141 114.19 250.751 113.58C248.811 112.73 246.691 113.94 246.031 114.49C245.881 114.61 245.701 114.76 245.551 114.91C245.431 114.79 245.311 114.67 245.161 114.58C245.831 112.85 245.741 111.07 244.861 109.77C244.741 109.62 243.921 108.41 242.531 108.11C239.261 107.35 235.601 112.02 234.211 113.62C234.181 113.68 234.091 113.74 234.061 113.77C232.031 114.44 229.671 116.01 228.281 117.89C226.861 118.25 225.411 118.43 223.981 119.07C222.981 119.52 222.131 120.1 221.291 120.8C220.991 121.04 220.681 121.25 220.411 121.53C220.351 121.59 219.931 121.95 219.741 122.13H219.621C219.101 122.1 218.141 122.31 217.681 122.37C216.711 122.52 215.831 122.76 214.961 123.16C214.661 123.31 214.381 123.46 214.081 123.61C214.081 123.34 214.021 123.07 213.991 122.79C213.811 121.67 213.421 120.58 212.901 119.58C212.571 118.94 211.991 118.34 211.511 117.79C211.631 117.03 211.751 116.28 211.811 115.52C211.931 114.13 211.871 112.74 211.601 111.37C211.361 110.22 210.871 109.04 210.271 108.04C209.911 107.47 209.481 106.92 209.031 106.47C208.911 106.35 208.761 106.2 208.611 106.02C208.611 105.69 208.581 105.29 208.581 105.02C208.581 104.36 208.551 103.72 208.461 103.08C208.281 101.72 207.941 100.48 207.311 99.2396C206.651 97.9396 205.651 96.8496 204.501 95.9996C204.561 94.2196 204.291 92.4596 203.651 90.7696C203.111 89.3496 202.411 88.1096 201.441 86.9296C201.141 86.5396 200.801 86.1396 200.441 85.8096C200.291 85.6596 200.111 85.5096 199.931 85.3596C199.961 84.2996 199.511 82.5096 199.381 82.0596C199.051 80.8196 198.471 79.5496 197.721 78.4596C196.511 76.6996 194.881 75.2196 192.911 74.3696C192.301 72.2196 191.181 70.2496 189.581 68.6496C189.821 68.1696 190.001 67.6496 190.121 67.1396C190.271 66.5096 190.361 65.8696 190.391 65.2296V65.1096C191.421 64.6896 192.301 63.9296 192.811 62.8696C193.321 61.8096 193.441 60.6896 193.351 59.5696C195.081 57.3596 195.011 54.1196 193.261 51.9996C193.201 50.3396 192.381 48.6996 191.021 47.6696C190.231 44.8196 187.721 43.0096 184.721 43.3696C184.121 43.0696 182.331 42.2496 180.061 42.6096C178.301 42.8796 177.061 43.6996 176.521 44.1496C175.891 44.1496 174.131 44.2696 172.471 45.5396C171.261 46.4496 170.681 47.5696 170.411 48.1396C169.051 48.9296 167.991 50.1396 167.321 51.5296C166.591 50.6196 165.691 49.8696 164.631 49.3196C162.721 48.3496 160.481 48.1096 158.401 48.6196C155.801 46.5596 152.321 46.1696 149.261 47.5296C145.991 46.1696 142.181 46.4096 139.301 48.5596C136.611 48.2296 133.731 48.5596 131.521 49.7996C131.491 49.4696 131.371 48.8296 130.921 48.2596C129.921 46.9596 128.231 47.0196 128.051 47.0196C127.871 46.6596 127.501 46.0196 126.781 45.4796C125.991 44.8696 125.181 44.7196 124.781 44.6596C123.451 42.6596 120.971 41.8796 118.551 42.6596C116.611 41.6596 114.251 41.7496 112.621 43.2296C109.501 43.0796 106.661 45.3196 106.351 48.4696C104.321 50.2596 103.751 53.7996 105.021 56.0396C104.441 58.3696 105.201 60.8796 106.991 62.5496C106.991 63.9096 107.261 65.2096 108.141 66.3596C108.321 66.5996 108.531 66.8096 108.751 67.0196C106.781 68.8996 105.661 71.6796 105.001 74.4096C101.371 76.4696 99.7006 80.3396 99.0406 84.4896C97.2506 85.1296 95.7406 86.5196 94.8306 88.4596C93.6506 90.9996 93.1406 93.9396 92.9506 96.8096C91.5606 97.7796 90.4106 99.2896 89.7706 100.75C88.7706 103.05 88.3506 105.5 88.4706 107.95C85.9306 110.07 85.1406 114.25 85.1406 118.33C84.5306 119.39 84.0806 120.45 83.7206 121.6C82.8706 121.24 82.0306 120.96 81.2706 120.75C79.7306 120.36 78.0906 120.3 76.4906 120.48C75.1006 119.54 73.5506 118.79 71.9206 118.45C71.2206 118.3 70.5606 118.24 69.8906 118.21C68.3206 116.7 66.1106 115.61 63.8706 114.91C63.3906 114.46 62.9306 114 62.5406 113.55C61.1806 112.01 57.4906 107.29 54.2206 108.04C52.8606 108.34 52.0106 109.55 51.8906 109.7C50.9806 111 50.9206 112.79 51.5906 114.54C51.5306 114.6 51.4406 114.66 51.3806 114.72C51.3206 114.75 51.2606 114.81 51.2306 114.87C51.0806 114.72 50.9006 114.57 50.7206 114.45C50.0506 113.9 47.9006 112.66 46.0006 113.54C44.6706 114.12 44.1506 115.42 44.0306 115.75C43.0906 118.05 44.4506 120.23 44.6006 120.47L44.3906 120.92C44.1506 120.83 41.5806 119.95 40.0906 121.31C39.0306 122.31 39.1206 123.88 39.1806 124.79C39.3906 130.03 45.0506 134.51 46.3806 135.53C46.5906 136.98 47.5606 142.07 52.0406 145.49C53.8306 146.85 55.6106 147.55 56.9406 147.94C57.2106 148.94 58.2106 152.42 61.6006 154.81C63.7506 156.32 65.9306 156.72 67.0806 156.84C67.6606 158.57 69.3506 162.65 73.5606 165.56C75.3506 166.77 77.1006 167.44 78.4306 167.83C76.1606 172.76 76.1606 178.57 78.5206 183.48C77.4906 185.11 76.9506 187.05 77.0406 189.17C77.1006 190.99 77.6206 192.74 78.2806 194.44C78.7906 195.68 80.0406 197.38 80.0106 198.71C80.0106 200.19 79.2806 201.62 79.3106 203.16C79.3706 204.73 79.7006 206.22 80.3106 207.67C80.9806 209.24 81.9406 210.7 83.1606 211.91C82.4606 214.66 83.5206 217.87 86.1906 219.96C87.9806 221.35 90.1006 222.29 92.3306 222.75C92.9706 230.74 92.9706 238.73 92.3306 246.72C92.2106 248.05 93.4806 248.99 94.6606 249.05C96.5706 249.17 98.4706 249.2 100.381 249.17L100.561 263.49C100.561 265.91 100.771 267.97 103.711 268C106.491 268 109.341 267.7 112.121 267.52C114.871 267.37 114.901 263.04 112.121 263.19C110.671 263.28 109.211 263.34 107.761 263.43C106.911 263.49 105.851 263.67 104.891 263.73V261.04C104.891 259.41 104.861 257.8 104.831 256.17L104.741 248.97C107.741 248.76 110.701 248.37 113.641 247.79C114.551 247.61 115.491 246.49 115.371 245.55C114.521 238.98 113.891 232.38 113.491 225.76C113.701 225.7 113.941 225.61 114.191 225.55C115.791 226.79 117.731 227.58 119.731 227.94C120.181 233.66 120.431 239.38 120.431 245.1C120.431 246.34 121.491 247.46 122.761 247.43C124.491 247.4 126.211 247.37 127.971 247.31L128.181 263.53C128.211 265.92 128.391 268.01 131.331 268.04C134.111 268.04 136.961 267.74 139.741 267.56C142.491 267.41 142.521 263.08 139.741 263.23C138.291 263.32 136.801 263.38 135.351 263.47C134.501 263.5 133.471 263.71 132.481 263.77V261.08C132.481 259.45 132.451 257.84 132.421 256.21L132.301 247.19C134.661 247.16 137.051 247.1 139.411 247.04C140.651 247.04 141.801 245.98 141.741 244.71C141.561 239.08 141.471 233.45 141.411 227.82C143.501 227.82 145.621 227.4 147.611 226.64C150.121 228.03 152.971 228.58 155.781 228.4C155.051 233.91 154.361 239.42 153.631 244.93C153.481 246.23 154.841 247.2 155.961 247.26C159.901 247.47 163.831 247.41 167.761 247.32C167.671 248.53 167.581 249.74 167.461 250.95C167.191 253.64 166.701 256.37 166.431 257.1C164.641 262.28 160.171 264.3 161.041 266.27C161.221 266.66 161.711 267.27 162.401 267.57C163.061 267.87 163.701 267.84 164.371 267.72C166.031 267.45 167.461 266.78 169.491 265.36C171.221 264.18 171.791 263.36 172.371 263.6C172.731 263.75 172.821 264.2 173.971 266.9C174.061 267.11 174.241 267.53 174.671 267.72C175.031 267.87 175.521 267.87 175.821 267.6C176.241 267.27 176.211 266.6 176.181 266.42C176.181 265.39 176.361 257.85 176.701 246.9C178.761 246.81 180.821 246.72 182.881 246.66C185.241 246.6 187.571 246.51 189.931 246.45C189.841 247.9 189.721 249.39 189.571 250.87C189.301 253.6 188.781 256.29 188.541 257.02C186.751 262.2 182.281 264.22 183.151 266.19C183.331 266.58 183.821 267.19 184.511 267.52C185.171 267.82 185.811 267.79 186.481 267.67C188.151 267.4 189.571 266.73 191.601 265.31C193.331 264.13 193.901 263.31 194.481 263.55C194.841 263.7 194.931 264.15 196.081 266.85C196.171 267.06 196.351 267.48 196.781 267.67C197.141 267.82 197.631 267.82 197.931 267.55C198.351 267.22 198.321 266.55 198.291 266.37C198.291 265.31 198.471 257.5 198.831 246.15C202.581 246.06 206.341 245.94 210.121 245.82C211.631 245.76 212.781 244.37 212.391 242.85C210.511 235.65 208.611 228.38 207.551 221C207.851 220.67 208.131 220.33 208.371 219.97C210.821 219.61 213.091 217.73 214.391 215.64C216.301 212.58 216.871 208.89 216.241 205.35C218.151 202.44 219.481 199.2 219.991 195.69C220.471 192.36 220.571 188.46 218.781 185.61C220.291 181.25 220.381 176.59 219.021 172.2C219.171 171.65 219.351 171.08 219.501 170.54C219.711 169.75 219.891 168.97 220.021 168.18C222.021 167.73 223.861 166.79 225.411 165.46C226.801 164.25 227.801 162.8 228.441 161.19C230.771 160.68 232.951 159.43 234.551 157.65C235.761 156.29 236.641 154.74 237.241 153.11C239.121 152.54 240.901 151.42 242.291 149.96C243.861 148.36 245.011 146.54 245.741 144.6C249.401 142.87 251.821 138.79 252.941 134.61C257.031 129.37 259.021 124.62 258.271 122.14V122.29L258.201 122.26ZM176.631 50.7396C179.261 48.9496 183.501 48.5296 185.801 50.8596C187.561 52.6496 187.371 55.2196 187.311 55.8496C187.011 60.1796 183.011 62.4796 182.621 62.7196C182.261 62.2396 181.801 61.7196 181.261 61.1796C180.631 60.5696 180.021 60.0596 179.471 59.6696C180.471 58.1896 181.441 56.7296 183.251 55.8596C185.311 54.8596 183.401 52.1096 181.341 53.0996C179.981 53.7696 178.861 54.6496 177.951 55.7596C177.441 56.3996 177.011 57.0596 176.591 57.7596C176.041 57.4596 175.471 57.1196 174.861 56.7596C174.291 56.3996 173.771 56.0296 173.291 55.6996C173.501 54.8796 174.261 52.3696 176.651 50.7396H176.621H176.631ZM168.271 69.8696C169.001 69.4196 169.901 69.1396 170.811 69.1396C171.411 69.1396 171.991 69.2296 172.541 69.4696C175.571 70.7696 175.511 75.2196 175.511 75.4296C175.451 77.8196 174.151 81.1196 171.361 81.8196C171.001 81.9096 170.601 81.9696 170.241 81.9696C169.241 81.9696 168.211 81.6696 167.401 81.0296C164.401 78.6696 164.861 71.9496 168.251 69.8596H168.281L168.271 69.8696ZM97.0506 244.48C97.5306 237.34 97.5006 230.19 96.9306 223.05C97.2906 223.05 97.6906 222.99 98.0206 222.93C99.5306 224.75 101.591 225.99 104.041 226.53C105.621 226.89 107.191 226.92 108.701 226.74C109.061 232.37 109.581 238 110.271 243.6C105.881 244.33 101.461 244.57 97.0406 244.45V244.48H97.0506ZM118.811 52.7996C116.781 51.5296 114.391 54.4296 116.451 55.7096C117.901 56.6196 118.751 58.0096 119.271 59.5796C118.061 60.5196 116.881 61.5496 115.791 62.6096C115.031 61.9396 113.761 60.6996 112.881 58.7396C112.281 57.4096 111.151 54.8996 112.251 52.3496C112.791 51.1096 113.731 50.0796 114.911 49.3796C116.211 48.6196 117.761 48.5296 119.211 48.8996C119.661 49.0196 120.091 49.1696 120.511 49.3496C122.901 50.3496 124.811 52.0396 126.021 54.3396C126.051 54.3996 126.081 54.4896 126.141 54.5496C125.441 54.9096 124.691 55.4296 123.901 56.0596C123.351 56.5096 122.871 56.9396 122.481 57.3596C121.751 55.5096 120.571 53.8796 118.851 52.7896H118.821L118.811 52.7996ZM123.781 70.4996C124.601 69.7096 125.841 69.1396 127.111 69.1396C127.381 69.1396 127.631 69.1396 127.871 69.1996C131.141 69.8096 132.021 74.1596 132.081 74.3796C132.531 76.7396 131.991 80.2196 129.421 81.4896C128.781 81.7896 128.061 81.9696 127.301 81.9696C126.631 81.9696 125.971 81.8196 125.391 81.5496C121.941 79.8896 120.941 73.2296 123.791 70.4696V70.4996H123.781ZM124.931 242.7C124.871 237.8 124.631 232.89 124.271 227.99C126.961 227.63 129.541 226.6 131.991 225.36C133.441 226.21 134.991 226.84 136.591 227.24C136.591 232.29 136.711 237.35 136.861 242.43L124.931 242.7ZM149.871 103.68C149.111 103.71 137.161 103.98 133.551 95.2996C130.861 88.7596 134.791 81.7996 138.761 78.3196C140.061 77.1696 144.241 73.8096 150.261 74.1996C155.711 74.5296 159.191 77.7396 160.401 78.8896C161.461 79.8896 167.751 86.0896 165.971 93.2696C164.181 100.41 155.651 103.47 149.901 103.68H149.871ZM182.801 242.09C174.751 242.33 166.581 242.94 158.491 242.7C159.151 237.58 159.821 232.47 160.491 227.35C161.251 227.05 162.001 226.71 162.731 226.29C169.091 229.41 176.561 228.89 182.651 225.41C184.131 225.99 185.801 226.05 187.371 225.65C188.761 225.29 189.971 224.59 191.061 223.71C194.811 225.83 199.441 225.95 203.231 224.23C204.201 229.98 205.561 235.67 207.041 241.33L182.801 242.06V242.09Z" fill="#444444"/>
<path d="M56.3006 121.52L26.8006 67.4599C29.0006 67.7699 31.2106 68.0899 33.4106 68.3999C36.5606 68.8499 38.5006 65.0699 36.1206 62.8599C33.9406 60.8299 31.7206 58.8399 29.4906 56.8599C31.0006 53.8099 32.5306 50.7699 34.0006 47.6999C35.1306 45.3499 32.7406 42.2199 30.1306 43.2799C26.4506 44.7599 22.8306 46.3799 19.2706 48.1099C17.7006 46.8099 16.1206 45.5199 14.5306 44.2499C12.4406 42.5799 9.05061 44.0299 9.26061 46.8599C9.41061 48.9399 9.62061 51.0199 9.80061 53.0999C6.94061 54.7199 4.13061 56.4199 1.37061 58.1999C-0.869385 59.6499 -0.239385 63.5799 2.52061 63.9799C5.32061 64.3799 8.12061 64.7799 10.9206 65.1799C11.3006 68.8799 11.6906 72.5799 12.1306 76.2699C12.1806 76.6699 12.3006 77.0199 12.4506 77.3299C12.6906 80.2199 16.9906 81.2199 18.5006 78.3699C19.6606 76.1899 20.7806 73.9899 21.9106 71.7899C31.5206 89.4099 41.1306 107.02 50.7506 124.64C52.7106 128.24 58.2806 125.11 56.3006 121.5V121.52Z" fill="#444444"/>
<path d="M103.752 84.6898C97.6116 69.3898 88.8216 51.5898 71.5216 46.7398C67.9116 45.7298 63.5816 45.6098 60.3916 47.8598C56.8816 50.3198 55.9016 54.4598 56.5216 58.5198C57.1216 62.4498 59.0716 66.1698 61.0816 69.5498C63.1916 73.0998 65.7116 76.4298 68.4216 79.5498C71.6916 83.2998 75.2816 86.7298 79.0316 89.9998C75.1016 90.8698 71.5016 93.8898 70.8516 97.9698C70.1116 102.66 73.4316 106.54 77.0616 109.01C80.8916 111.62 85.7616 112.76 90.3516 112.22C92.0616 112.02 93.5416 110.9 93.5416 109.03C93.5416 107.46 92.0716 105.64 90.3516 105.84C87.5416 106.17 84.7416 105.88 82.1816 104.62C80.3116 103.71 77.1616 101.76 77.1016 99.3598C77.0616 97.3498 79.5816 96.1998 81.2616 96.0798C84.3016 95.8598 87.2816 97.5898 89.8716 98.9498C92.9016 100.54 96.6916 96.3198 93.7316 93.9398C82.9016 85.2298 71.5016 76.1198 65.0216 63.5298C63.7516 61.0598 62.0516 57.7398 62.8316 54.8798C63.5616 52.1798 66.7416 52.1998 68.9816 52.7098C75.5016 54.1798 81.1216 58.8698 85.3416 63.8498C90.8916 70.4098 94.4216 78.4998 97.6016 86.4098C98.2416 88.0098 99.7316 89.1298 101.522 88.6398C103.042 88.2198 104.392 86.3198 103.752 84.7198V84.6898Z" fill="#444444"/>
<path d="M240.818 48.2601C237.508 45.8401 233.178 45.7301 229.288 46.4301C220.888 47.9501 213.198 53.5101 207.488 59.6401C200.028 67.6301 195.088 77.4701 190.278 87.1801C188.458 90.8501 193.958 94.0801 195.788 90.4001C202.648 76.5501 210.358 60.8701 225.358 54.3401C228.148 53.1301 231.448 52.0501 234.538 52.4801C237.948 52.9601 239.348 55.8001 238.538 59.0301C237.628 62.7001 234.928 66.1001 232.558 68.9701C230.128 71.9001 227.428 74.6001 224.568 77.1201C219.048 81.9701 212.948 86.0801 206.768 90.0501C205.438 90.8001 204.148 91.6401 202.908 92.5201C199.598 94.8501 202.618 100.26 206.128 98.0301C207.708 97.0201 209.288 96.0101 210.868 94.9901C212.108 94.3801 213.408 93.9601 214.778 93.9401C217.278 93.9201 219.468 95.4501 218.688 98.1301C217.808 101.16 214.898 103.48 212.388 105.15C209.498 107.08 206.388 108.43 203.018 109.28C199.038 110.29 200.728 116.45 204.718 115.43C209.618 114.18 214.138 111.94 218.108 108.81C221.808 105.89 225.388 101.66 225.258 96.6601C225.158 93.0901 222.988 90.2701 220.008 88.7701C222.868 86.7101 225.668 84.5601 228.338 82.2601C231.808 79.2801 235.048 76.0401 237.898 72.4501C240.718 68.8901 243.758 64.9001 244.768 60.3801C245.768 55.8901 244.668 51.0601 240.828 48.2501L240.818 48.2601Z" fill="#444444"/>
<path d="M280.719 84.0796C278.549 83.2096 276.199 83.1196 273.989 82.3996C271.999 81.7496 271.289 80.6296 271.219 78.5796C271.109 75.0296 271.169 71.4596 271.219 67.8896C271.299 66.2296 271.309 64.5696 271.279 62.9296C271.219 59.3696 265.759 59.3596 265.739 62.9296L265.719 66.1396C265.489 73.5496 263.719 82.3896 255.489 84.0996C251.999 84.8196 253.479 90.1596 256.959 89.4396C257.299 89.3696 257.629 89.2596 257.969 89.1596C258.129 89.2596 258.309 89.3496 258.499 89.4296C262.849 91.0896 264.889 95.5096 264.159 99.8196C264.039 100.41 263.899 101 263.709 101.57C262.579 104.97 267.869 106.37 269.049 103.04C269.739 101.08 269.999 99.0996 269.879 97.1896C269.989 95.1696 270.129 93.1596 270.859 91.2896C272.319 87.5796 276.159 88.5796 279.229 89.4396C282.749 90.4196 283.929 85.3896 280.699 84.0996L280.719 84.0796Z" fill="#444444"/>
<path d="M60.8184 191.16C59.9984 190.99 59.2084 190.98 58.4384 191.09C57.3084 190.75 56.3284 189.78 55.8084 188.75C55.3284 187.81 55.1384 186.76 55.0884 185.69C55.3984 184.42 55.4984 183.08 55.3384 181.73C55.0684 179.41 52.0284 179.43 51.7384 181.73C51.5984 182.81 51.5084 183.94 51.5084 185.07C50.7084 188.08 48.3084 190.4 44.9684 191.04C42.6984 191.48 43.6584 194.95 45.9284 194.51C46.0984 194.48 46.2684 194.43 46.4384 194.39C46.6384 194.49 46.8784 194.56 47.1284 194.58C48.6884 194.75 49.9084 196.17 50.4884 197.52C51.0884 198.91 51.1984 200.45 51.1784 201.97C51.1484 202.54 51.1284 203.11 51.1184 203.66C51.0684 205.99 54.6084 205.97 54.7184 203.66C54.7484 203.13 54.7584 202.6 54.7584 202.06C54.8184 200.33 55.0084 198.55 55.8284 197.04C56.3684 196.05 57.3084 195.08 58.4184 194.72C59.1884 194.83 59.9884 194.81 60.7984 194.62C62.4984 194.23 62.5384 191.51 60.7984 191.15L60.8184 191.16Z" fill="#444444"/>
<path d="M99.4212 14.7604C98.3412 14.5304 97.2912 14.5204 96.2712 14.6704C94.7712 14.2204 93.4912 12.9404 92.8012 11.5704C92.1712 10.3204 91.9212 8.94036 91.8412 7.52036C92.2412 5.84036 92.3812 4.08036 92.1712 2.28036C91.8112 -0.789642 87.7912 -0.769642 87.4112 2.28036C87.2312 3.71036 87.1112 5.20036 87.1112 6.69036C86.0512 10.6704 82.8812 13.7404 78.4712 14.5804C75.4612 15.1604 76.7412 19.7504 79.7412 19.1704C79.9712 19.1304 80.1912 19.0604 80.4112 19.0104C80.6812 19.1404 80.9912 19.2304 81.3312 19.2704C83.3912 19.4904 85.0112 21.3704 85.7812 23.1604C86.5712 24.9904 86.7212 27.0304 86.7012 29.0404C86.6712 29.7904 86.6412 30.5404 86.6212 31.2804C86.5512 34.3604 91.2312 34.3304 91.3812 31.2804C91.4112 30.5804 91.4312 29.8804 91.4312 29.1704C91.5112 26.8804 91.7612 24.5304 92.8412 22.5304C93.5512 21.2204 94.8012 19.9404 96.2712 19.4604C97.2912 19.6004 98.3512 19.5804 99.4212 19.3304C101.671 18.8204 101.721 15.2204 99.4212 14.7404V14.7604Z" fill="#444444"/>
</g>
<defs>
<clipPath id="clip0_1535_1211">
<rect width="282.61" height="268.03" fill="white"/>
</clipPath>
</defs>
</svg>
