<svg width="32" height="32" viewBox="0 0 32 32" fill="none" xmlns="http://www.w3.org/2000/svg">
<path d="M15.8113 26C12.2821 23.8932 9.2508 20.9507 7.03729 17.4927C6.18389 16.1681 5.05491 14.1324 5.00157 11.8478C4.94824 9.45647 6.25501 7.23407 8.17516 6.4429C9.91752 5.72284 12.0599 6.0962 14.3801 7.50965C14.7179 7.71411 15.0379 7.92746 15.3313 8.14081C16.4336 7.19851 17.6159 6.55846 18.8427 6.22955C21.7051 5.46504 24.7631 6.66514 25.9543 9.01199C26.71 10.4966 26.8255 12.3545 26.2655 14.1057C25.0476 17.9638 22.6119 20.5685 19.785 23.5909L19.7227 23.662L18.4248 22.4442L18.4871 22.373C21.2695 19.395 23.4741 17.0482 24.5676 13.5723C24.9765 12.2745 24.8965 10.8788 24.3631 9.82094C23.4653 8.05191 21.074 7.48298 19.296 7.95413C18.3093 8.21193 17.4381 8.72752 16.6736 9.3409C17.0914 9.79427 17.4203 10.2743 17.6692 10.7899C18.5049 12.5056 18.256 14.5324 17.0736 15.7147C16.3536 16.4348 15.2424 16.7637 14.1756 16.5859C13.2244 16.4259 12.4599 15.8748 12.0777 15.0747C11.5088 13.8924 11.7932 12.4789 12.9133 10.861C13.2778 10.3365 13.6511 9.8565 14.0423 9.41202C13.8556 9.28757 13.66 9.15422 13.4556 9.02977C12.1932 8.25637 10.3709 7.4652 8.85965 8.08747C7.39287 8.69196 6.75282 10.4432 6.78838 11.8033C6.82394 13.199 7.38398 14.7013 8.54852 16.5326C10.6109 19.7595 13.4467 22.5064 16.7358 24.471L15.8202 26H15.8113ZM15.3846 10.5677C14.9935 11.0121 14.6557 11.4566 14.3623 11.8744C13.8645 12.5945 13.3311 13.6079 13.6689 14.3102C13.8467 14.6747 14.2468 14.7991 14.469 14.8347C14.9668 14.9236 15.4913 14.7724 15.8113 14.4613C16.5492 13.7235 16.4958 12.4523 16.0691 11.5722C15.9002 11.2255 15.678 10.8966 15.3935 10.5766L15.3846 10.5677Z" fill="#444444"/>
</svg>
