<svg width="32" height="32" viewBox="0 0 32 32" fill="none" xmlns="http://www.w3.org/2000/svg">
<path fill-rule="evenodd" clip-rule="evenodd" d="M10.9394 8.0067C12.7817 7.08215 15.0685 6.80915 17.7168 7.44568L17.7197 7.44637C22.5325 8.6198 25.4629 12.3734 25.8557 16.255C26.0523 18.1977 25.6112 20.175 24.4449 21.8475C23.2762 23.5235 21.4177 24.8389 18.874 25.5249C15.3978 26.4756 11.1793 25.5851 8.77295 23.1816L8.7719 23.1805C5.881 20.2835 5.42132 15.7208 6.98756 12.2271C7.77912 10.4615 9.10346 8.9281 10.9394 8.0067ZM10.0457 21.9087C7.75684 19.6147 7.32351 15.8779 8.63005 12.9635C9.27491 11.5251 10.3285 10.3273 11.7468 9.61547C13.1585 8.90698 15.0019 8.6447 17.2948 9.1955C21.3824 10.1927 23.7506 13.3308 24.0649 16.4362C24.2218 17.9872 23.8684 19.5274 22.9684 20.8179C22.0712 22.1045 20.5924 23.1975 18.4036 23.7874L18.4002 23.7883C15.4467 24.5966 11.9261 23.7862 10.0457 21.9087Z" fill="#444444"/>
<path d="M15.0293 11L15.0293 13.8557L15 13.954L15.0585 15.046L15.0293 14.9477L15.0195 18L16.9707 18L16.9805 14.915L17 14.8167L16.9415 13.7246L16.9805 13.8229L16.9805 11L15.0293 11Z" fill="#444444"/>
<path d="M15.0293 20L15.0293 20.8159L15 20.844L15.0585 21.156L15.0293 21.1279L15.0195 22L16.9707 22L16.9805 21.1186L17 21.0905L16.9415 20.7785L16.9805 20.8066L16.9805 20L15.0293 20Z" fill="#444444"/>
</svg>
