<svg width="32" height="32" viewBox="0 0 32 32" fill="none" xmlns="http://www.w3.org/2000/svg">
<path d="M25.9938 15.6861C25.7849 11.6465 23.1028 7.15132 17.5965 6.18869C13.0261 5.38936 9.12403 7.15992 7.17719 10.9245C5.15516 14.8352 5.79018 19.9406 8.68119 23.0691C10.4191 24.9428 13.1514 26 15.9171 26C16.8947 26 17.8806 25.8711 18.8248 25.596C23.4203 24.2638 26.2278 20.3703 25.9855 15.6861H25.9938ZM23.4872 12.506C22.3842 12.9099 21.1142 13.2193 19.7606 13.417C19.5183 11.5347 19.0003 9.71261 18.2483 8.09676C20.8301 8.81874 22.5514 10.5377 23.4872 12.506ZM18.2483 15.8924C18.2483 16.5026 18.1981 17.1042 18.1313 17.7059C17.4545 17.6371 16.7693 17.5942 16.0842 17.5856C15.3489 17.5856 14.6136 17.6114 13.8867 17.6715C13.8198 17.0613 13.7697 16.451 13.7697 15.8322C13.7697 15.6517 13.7781 15.4712 13.7864 15.2907C14.5384 15.3595 15.3071 15.3939 16.0675 15.3939H16.1093C16.8195 15.3939 17.5297 15.3595 18.2316 15.3079C18.2316 15.497 18.2483 15.6947 18.2483 15.8838V15.8924ZM17.8723 19.4163C17.5046 21.1611 16.8696 22.7941 16.0257 24.2037C15.1734 22.7941 14.5301 21.1439 14.1541 19.3819C14.7891 19.3303 15.4325 19.3046 16.0675 19.3131C16.6691 19.3131 17.279 19.3561 17.8723 19.4163ZM16.1093 13.6921H16.0675C15.3489 13.6921 14.622 13.6577 13.9034 13.5975C14.1708 11.4574 14.8392 9.42038 15.8168 7.73578C15.9338 7.73578 16.0508 7.75297 16.1677 7.76156C17.1537 9.44617 17.8221 11.4746 18.0979 13.6147C17.4378 13.6663 16.7777 13.7007 16.1093 13.7007V13.6921ZM13.8449 7.88189C13.0428 9.54931 12.4997 11.4316 12.249 13.3912C10.8369 13.1764 9.50838 12.8412 8.33861 12.4114C8.43052 12.188 8.53079 11.9559 8.64776 11.741C9.75069 9.61807 11.5722 8.31164 13.8449 7.89049V7.88189ZM7.85399 14.053C9.13239 14.5172 10.5862 14.8782 12.1237 15.1102C12.1153 15.3595 12.0986 15.6087 12.0986 15.858C12.0986 16.537 12.1571 17.2246 12.2323 17.9036C10.7617 18.1442 9.3747 18.531 8.19657 19.0381C7.6451 17.4652 7.51977 15.7205 7.85399 14.0616V14.053ZM8.9235 20.5766C9.96794 20.1383 11.1962 19.8031 12.4913 19.5882C12.8172 21.1782 13.3352 22.691 14.0287 24.0661C12.4078 23.7309 10.9121 22.9832 9.89274 21.883C9.52509 21.4877 9.20759 21.0493 8.9235 20.5766ZM18.3736 23.9372C18.265 23.9716 18.148 23.9802 18.0394 24.006C18.6995 22.6652 19.2091 21.1868 19.5183 19.6398C20.8051 19.8804 21.9915 20.2328 23.0026 20.6969C22.0667 22.0979 20.5795 23.2926 18.3736 23.9372ZM23.7963 19.1842C22.6433 18.6427 21.2646 18.2302 19.7857 17.9551C19.8609 17.2761 19.9194 16.5886 19.9194 15.901C19.9194 15.6431 19.9027 15.3853 19.8943 15.1274C21.3983 14.9125 22.8187 14.5687 24.0637 14.1132C24.2058 14.6633 24.2893 15.222 24.3227 15.772C24.3812 16.8636 24.2225 18.0497 23.7963 19.1756V19.1842Z" fill="#444444"/>
</svg>
