<svg width="85" height="29" viewBox="0 0 85 29" fill="none" xmlns="http://www.w3.org/2000/svg">
<path d="M1.73665 12.5832C2.55729 13.4051 3.71488 13.8609 4.96563 13.8609C5.11112 13.8609 5.26299 13.8543 5.40849 13.8398C6.94002 13.7103 8.36562 12.9254 9.35473 11.6649C9.45683 11.5381 9.43386 11.3531 9.30496 11.254L8.41794 10.5828C8.3018 10.4969 8.13972 10.5141 8.04783 10.6277C7.33694 11.5117 6.34145 12.056 5.27193 12.1512C4.32621 12.2331 3.45579 11.9424 2.88019 11.3663C2.42329 10.9078 2.1591 10.2327 2.08635 9.5205C2.06338 9.29456 2.29821 9.13336 2.49348 9.23906C2.77809 9.40026 3.0091 9.49539 3.11247 9.53371C3.40985 9.64734 6.05046 10.5683 7.44925 8.84532C8.13078 8.00631 8.30563 6.80394 7.89212 5.85261C7.27313 4.4243 5.82711 4.03453 4.67974 4.15344C3.53875 4.27368 2.65812 4.81805 2.10677 5.27389C1.92426 5.42452 1.64731 5.27389 1.6639 5.03738C1.7073 4.40316 1.99829 3.84955 2.28928 3.42806C2.70917 2.82555 3.31412 2.41463 4.08499 2.20191C5.43784 1.82534 6.64903 2.45823 7.15188 2.7912C7.2744 2.87312 7.43649 2.84273 7.522 2.72249L8.17673 1.81477C8.27245 1.68528 8.23671 1.49238 8.11036 1.40781C7.38289 0.914975 5.68289 0.00328857 3.66127 0.562192C2.23568 0.955934 1.40227 1.80156 0.949192 2.45295C0.0136832 3.75838 -0.235193 5.21047 0.224265 6.52515C0.332749 6.8264 0.462931 7.10387 0.602045 7.35359C0.637781 7.4223 0.651819 7.50422 0.625017 7.57953C0.122165 9.33948 0.508877 11.3571 1.73027 12.5832H1.73665ZM2.72576 6.99024C2.72576 6.99024 3.55279 5.97681 4.83289 5.84336C5.19025 5.80505 6.06067 5.79844 6.38101 6.53836C6.55586 6.94531 6.40398 7.4659 6.17936 7.75394C5.60631 8.45554 4.14498 8.11069 3.67148 7.93496C3.59235 7.90457 3.19799 7.74601 2.76788 7.38398C2.65174 7.28753 2.63515 7.11312 2.71811 6.99685V6.99024H2.72449H2.72576Z" fill="#F05D4B"/>
<path d="M11.6725 12.6478L12.6974 13.0547C12.8365 13.1129 13.0011 13.0375 13.0547 12.8935L14.5237 8.94421C14.6028 8.73809 14.8645 8.70109 14.9972 8.8689C15.084 8.9746 15.1555 9.06709 15.2154 9.15033L15.3903 9.3657C16.2212 10.3937 17.4055 11.8524 18.8643 11.8524C19.1757 11.8524 19.4961 11.7836 19.8241 11.6396C20.4329 11.3622 20.863 10.8931 21.0748 10.2668C21.422 9.24678 21.1769 7.87926 20.3537 6.19462C20.2874 6.0506 20.1151 6.00303 19.9759 6.07438L19.0034 6.60818C18.8707 6.67689 18.8209 6.84469 18.8809 6.98475C19.4565 8.16597 19.6888 9.17676 19.5127 9.71056C19.4527 9.88496 19.3467 9.99859 19.1617 10.0871C18.4508 10.4056 17.6365 9.49783 16.6538 8.28225L16.479 8.06291C16.2671 7.79866 15.9136 7.32299 15.4898 6.7337C15.4362 6.65839 15.4171 6.55269 15.4528 6.46284L17.5663 0.794529C17.6225 0.650509 17.5459 0.480064 17.4081 0.42457L16.3832 0.0176141C16.2441 -0.0365585 16.0795 0.0387547 16.0259 0.181453L14.4216 4.47959C14.3425 4.69232 14.0706 4.72271 13.9417 4.54169C13.019 3.21909 12.1384 1.92819 11.7848 1.42214C11.6993 1.2953 11.5232 1.26491 11.4007 1.35343L10.5009 2.0035C10.3784 2.09203 10.3426 2.27437 10.4345 2.39725C10.894 3.07507 12.257 5.05435 13.4414 6.7337C13.4976 6.80901 13.5078 6.90811 13.4772 7.00457L11.5091 12.2857C11.453 12.4298 11.5296 12.5976 11.6674 12.6557V12.6491L11.6712 12.6451L11.6725 12.6478Z" fill="#F05D4B"/>
<path d="M28.1257 11.4127V12.8714C28.1257 13.0286 28.2482 13.1528 28.4001 13.1528H29.499C29.6509 13.1528 29.7734 13.026 29.7734 12.8714V0.945496C29.7734 0.788263 29.6509 0.664062 29.499 0.664062H27.5233C27.4148 0.664062 27.3217 0.728805 27.2757 0.827902L22.0583 12.1843C21.992 12.3284 22.0519 12.4988 22.191 12.5609L23.1865 13.0432C23.3193 13.1053 23.4839 13.0471 23.5503 12.9137L24.3212 11.2978C24.3709 11.2053 24.4603 11.1432 24.5687 11.1432H27.8411C27.993 11.1432 28.1155 11.27 28.1155 11.4246L28.1219 11.418L28.1257 11.4114V11.4127ZM28.1257 4.21964V9.14406C28.1257 9.29865 28.0032 9.4255 27.8513 9.4255H25.6115C25.4098 9.4255 25.2771 9.20617 25.3639 9.01854L27.6037 4.09412C27.7326 3.81665 28.127 3.9131 28.127 4.21435V4.22096L28.1257 4.21964Z" fill="#F05D4B"/>
<path d="M37.165 4.10337C37.2939 3.8259 37.6882 3.92235 37.6882 4.2236V12.8674C37.6882 13.0247 37.8107 13.1489 37.9626 13.1489H39.0615C39.2134 13.1489 39.3359 13.022 39.3359 12.8674V0.945496C39.3359 0.788263 39.2134 0.664062 39.0615 0.664062H37.0858C36.9773 0.664062 36.8842 0.728805 36.8382 0.827902L31.6208 12.1843C31.5545 12.3284 31.6144 12.4988 31.7535 12.5609L32.749 13.0432C32.8818 13.1053 33.0464 13.0471 33.1128 12.9137L33.8173 11.4484L34.8728 9.13614L37.1547 4.11129L37.1611 4.10469L37.165 4.10072V4.10337Z" fill="#F05D4B"/>
<path d="M48.1941 5.69235L49.7626 12.8775C49.792 13.0281 49.9452 13.1272 50.0906 13.0902L51.1589 12.8405C51.3044 12.8101 51.4001 12.6516 51.3644 12.5009L48.7837 0.654297H47.3148C47.1858 0.654297 47.0761 0.746787 47.0467 0.87363L45.4195 8.13144C45.3531 8.42609 44.946 8.42609 44.8835 8.13144L43.3124 0.933088C43.2766 0.782461 43.1311 0.683365 42.9844 0.720361L41.9161 0.970084C41.7706 1.00047 41.6749 1.15903 41.7106 1.30965L44.2479 12.937C44.2772 13.0664 44.387 13.1563 44.5159 13.1563H45.7666C45.8955 13.1563 46.0053 13.0598 46.0346 12.937L47.6619 5.68971C47.7283 5.39506 48.1354 5.39506 48.1979 5.68971V5.69632L48.1941 5.69235Z" fill="#F05D4B"/>
<path d="M57.8019 16.267C56.1606 16.226 54.5538 17.1271 53.6962 18.562C53.4179 19.0245 53.2227 19.5385 53.1142 20.0657C53.1014 20.1304 53.0644 20.1859 53.0185 20.2295C51.6822 21.3328 50.9471 23.168 51.2087 24.9108C51.529 27.0103 53.2303 28.7121 55.2583 28.9698C55.4332 28.9936 55.6055 29.0002 55.7816 29.0002C57.5479 29.0002 59.2556 27.8903 59.9831 26.2427C60.0494 26.092 59.9831 25.911 59.8312 25.8555L58.7987 25.4618C58.666 25.4142 58.5205 25.475 58.4579 25.6058C57.9283 26.7157 56.6686 27.4411 55.4638 27.2838C54.1773 27.12 53.0491 25.9863 52.841 24.6465C52.7683 24.1735 52.8181 23.6873 52.9572 23.2288C53.0299 22.9923 53.3579 22.9646 53.46 23.1918C53.4894 23.2566 53.52 23.3187 53.5532 23.3808C53.954 24.1577 54.5627 24.7787 55.2468 25.1169C56.0764 25.5318 57.0362 25.5384 57.8134 25.1381C58.9046 24.5726 59.5274 23.176 59.253 21.8877C59.0118 20.7329 58.1044 19.7512 56.9506 19.3812C56.6163 19.2755 56.2666 19.2095 55.9054 19.2068C55.6476 19.2029 55.5416 18.8752 55.7395 18.7034C56.3048 18.2278 57.04 17.9463 57.7547 17.9701C58.7145 17.9939 59.6729 18.5528 60.209 19.3746C60.2881 19.4949 60.4438 19.5358 60.5663 19.4605L61.5325 18.9161C61.6716 18.8342 61.715 18.6453 61.6282 18.5092C60.8012 17.1773 59.3258 16.304 57.7904 16.2656L57.7968 16.2723L57.8032 16.2683L57.8019 16.267ZM56.458 20.9972C57.0464 21.1887 57.5262 21.6922 57.6424 22.2431C57.7585 22.7743 57.4969 23.39 57.0693 23.6093C56.7554 23.7732 56.3278 23.76 55.9513 23.579C55.5735 23.39 55.2328 23.0412 54.9979 22.5761C54.8091 22.2127 54.6942 21.7992 54.6636 21.3803C54.6508 21.2535 54.7159 21.1372 54.832 21.0923C55.3783 20.873 55.9564 20.8426 56.4529 20.9998L56.4555 20.9958L56.458 20.9972Z" fill="#F05D4B"/>
<path d="M12.231 16.4023H11.6286C11.5188 16.4023 11.4269 16.4671 11.381 16.5662L7.17311 25.7372C7.06463 25.9803 6.7162 25.942 6.6575 25.6791L4.70224 17.0524C4.67289 16.9229 4.56313 16.8331 4.43422 16.8331H3.10435C2.97545 16.8331 2.86569 16.919 2.83633 17.0458L0.00810738 28.1974C-0.0276283 28.3481 0.0578819 28.5053 0.203377 28.5436L1.26524 28.8317C1.41073 28.87 1.56261 28.7841 1.59962 28.6335L3.44511 21.3426C3.51786 21.0546 3.91223 21.0612 3.98115 21.3492L5.64541 28.6916C5.67477 28.8224 5.78452 28.9109 5.91342 28.9109H7.36838C7.47048 28.9109 7.57003 28.8462 7.61598 28.7537C7.86357 28.2331 8.11245 27.7125 8.36387 27.192L9.41935 24.8797L11.7013 19.8562C11.8302 19.5787 12.2246 19.6752 12.2246 19.9764V28.6203C12.2246 28.7775 12.3471 28.9017 12.4964 28.9017H13.5953C13.7472 28.9017 13.8697 28.7748 13.8697 28.6176V16.6851C13.8697 16.5279 13.7472 16.4037 13.5979 16.4037H12.2323L12.231 16.4023Z" fill="#F05D4B"/>
<path d="M24.9631 17.8704L25.2018 16.7367C25.2388 16.5623 25.1086 16.3945 24.9337 16.3945H18.6022C18.4732 16.3945 18.3609 16.487 18.3341 16.6205L15.8696 28.5424C15.8326 28.7168 15.9615 28.8846 16.1377 28.8846H20.5472C20.6761 28.8846 20.7884 28.7921 20.8152 28.6587L21.0539 27.525C21.0896 27.3467 20.9607 27.1789 20.7859 27.1789H18.1861C18.0112 27.1789 17.8823 27.0111 17.9181 26.8366L18.5664 23.7092C18.5894 23.5797 18.7055 23.4832 18.8344 23.4832H22.579C22.7079 23.4832 22.8202 23.3907 22.847 23.2573L23.0857 22.1197C23.1227 21.9413 22.9925 21.7774 22.8177 21.7774H19.3016C19.1267 21.7774 18.9978 21.6096 19.0335 21.4352L19.6819 18.3078C19.7049 18.1783 19.821 18.0818 19.9499 18.0818H24.7168C24.8457 18.0818 24.958 17.9893 24.9848 17.8559L24.972 17.8664L24.9657 17.8704H24.9631Z" fill="#F05D4B"/>
<path d="M47.6627 22.6798C47.5465 22.5807 47.5338 22.3983 47.6397 22.2794C48.1693 21.6531 48.4897 20.8405 48.4897 19.95C48.4897 18.0592 47.0373 16.512 45.2275 16.409L43.0413 16.4023H41.5787C41.4498 16.4023 41.3375 16.4948 41.3107 16.6283L38.8462 28.5502C38.8092 28.7246 38.9393 28.8924 39.1142 28.8924H45.77V28.8713C47.4942 28.6797 48.8368 27.1721 48.8368 25.3435C48.8368 24.2785 48.3799 23.3259 47.6588 22.6758H47.6652L47.6614 22.6798H47.6627ZM45.0527 18.1015C46.098 18.1015 46.9352 19.0264 46.8356 20.1284C46.7501 21.0903 45.9155 21.7958 44.9838 21.7958H42.5027C42.0994 21.7958 41.9705 21.628 42.0062 21.4536L42.6546 18.3261C42.6775 18.1966 42.7937 18.1002 42.9226 18.1002H45.0527V18.1015ZM45.4037 27.1972H41.1524C40.9775 27.1972 40.8486 27.0294 40.8844 26.855L41.5327 23.7275C41.5557 23.5981 41.6718 23.5016 41.8007 23.5016H45.3309C46.2639 23.5016 47.0973 24.2072 47.1841 25.1691C47.2836 26.271 46.4464 27.1959 45.4011 27.1959H45.4049L45.4037 27.1972Z" fill="#F05D4B"/>
<path d="M35.2144 25.0431H33.9407C33.8118 25.0431 33.702 24.9467 33.6727 24.8238L31.8106 16.6041C31.7812 16.4746 31.6715 16.3848 31.5426 16.3848H30.2127C30.0838 16.3848 29.974 16.4733 29.9447 16.6001L27.858 24.8304C27.8286 24.9573 27.7189 25.0458 27.59 25.0458H24.7349C24.5601 25.0458 24.4312 25.207 24.4669 25.3854L25.1153 28.6555C25.1382 28.7863 25.2544 28.8815 25.3833 28.8815H26.5013C26.6761 28.8815 26.8051 28.7176 26.7693 28.5419L26.4783 27.0872C26.4413 26.9128 26.574 26.7476 26.7463 26.7476H34.9247C35.0766 26.7476 35.1991 26.8744 35.1991 27.0317V28.5974C35.1991 28.7546 35.3216 28.8788 35.471 28.8788H36.5698C36.7217 28.8788 36.8442 28.752 36.8442 28.5948V25.3616C36.8442 25.1872 36.7051 25.0431 36.5366 25.0431H35.217H35.2144ZM31.0933 20.8956L31.9574 24.6904C32.0008 24.8648 31.8642 25.0431 31.6894 25.0431H29.8668C29.6843 25.0431 29.5554 24.8687 29.5988 24.6838L30.5586 20.889C30.6313 20.601 31.0257 20.6076 31.0946 20.8956H31.0933Z" fill="#F05D4B"/>
<path d="M73.9772 25.058H71.6454C71.4935 25.058 71.371 24.9312 71.371 24.7739V16.6877C71.371 16.5305 71.2485 16.4062 71.0992 16.4062H69.1273C69.0176 16.4062 68.9257 16.471 68.8797 16.5701L65.056 24.9021C65.0101 25.0012 64.9169 25.0633 64.8071 25.0633H62.3822C62.187 25.0633 62.0312 25.2245 62.0312 25.4267V28.6149C62.0312 28.7721 62.1538 28.8963 62.3031 28.8963H63.402C63.5538 28.8963 63.6764 28.7695 63.6764 28.6123V27.0399C63.6764 26.8854 63.7989 26.7585 63.9482 26.7585H72.5758C72.7086 26.7585 72.8209 26.851 72.8438 26.9845L73.1782 28.6691C73.2012 28.7999 73.3173 28.895 73.4462 28.895H74.5643C74.7391 28.895 74.868 28.7312 74.8323 28.5555C74.614 27.4429 74.3958 26.3291 74.1775 25.2192C74.1571 25.1228 74.078 25.0554 73.9823 25.0554H73.9784L73.9772 25.058ZM66.9079 24.8704L69.1899 19.8469C69.3162 19.5694 69.7093 19.6659 69.7093 19.9671V24.7726C69.7093 24.9272 69.5868 25.0541 69.4375 25.0541H66.8211L66.9041 24.8651V24.8717H66.9079V24.8704Z" fill="#F05D4B"/>
<path d="M82.4434 16.5288C82.423 16.4429 82.3502 16.3848 82.2685 16.3848H80.9425C80.8136 16.3848 80.7038 16.4812 80.6745 16.6041L79.0472 23.8579C78.9808 24.1526 78.5737 24.1526 78.5112 23.8579L76.9363 16.6596C76.8992 16.509 76.7538 16.4099 76.6083 16.4469L75.54 16.6966C75.3945 16.727 75.295 16.8855 75.332 17.0362L77.8692 28.6635C77.8986 28.7943 78.0083 28.8828 78.1372 28.8828H79.388C79.5143 28.8828 79.6228 28.7903 79.656 28.6635L81.2833 21.4136C81.3496 21.1189 81.7593 21.1189 81.8193 21.4136L83.3878 28.5987C83.4172 28.7493 83.5703 28.8484 83.7158 28.8114L84.7841 28.5617C84.9296 28.5313 85.0291 28.3728 84.9921 28.2222C84.1421 24.3244 83.2921 20.4239 82.4447 16.5261V16.5301L82.4434 16.5288Z" fill="#F05D4B"/>
</svg>
