<svg width="31" height="24" viewBox="0 0 31 24" fill="none" xmlns="http://www.w3.org/2000/svg">
<g clip-path="url(#clip0_3011_15436)">
<path d="M10.3847 12C10.3847 8.98476 11.7615 6.28605 13.9154 4.50528C12.4954 3.55451 10.7907 3 8.95764 3C4.01034 3 0 7.02931 0 12C0 16.9707 4.01034 21 8.95764 21C10.7919 21 12.4966 20.4455 13.9154 19.4947C11.7615 17.714 10.3847 15.0152 10.3847 12Z" fill="#F05D4B"/>
<path d="M19 12C19 9.15959 17.6309 7.13271 15.5 5.5C13.3691 7.13271 12 9.16075 12 12C12 14.8392 13.3691 16.8673 15.5 18.5C17.6309 16.8673 19 14.8392 19 12Z" fill="#F05D4B"/>
<path d="M22.0423 3C20.208 3 18.5033 3.55451 17.0845 4.50528C19.2384 6.28605 20.6153 8.98476 20.6153 12C20.6153 15.0152 19.2384 17.714 17.0845 19.4947C18.5045 20.4443 20.2092 21 22.0423 21C26.9896 21 30.9999 16.9707 30.9999 12C30.9999 7.02931 26.9884 3 22.0423 3Z" fill="#F05D4B"/>
</g>
<defs>
<clipPath id="clip0_3011_15436">
<rect width="31" height="24" fill="white"/>
</clipPath>
</defs>
</svg>
