<svg width="56" height="24" viewBox="0 0 56 24" fill="none" xmlns="http://www.w3.org/2000/svg">
<path d="M1 4.50244H6.06604C6.52659 4.50244 7.90824 4.34622 8.52231 6.53336C8.98285 7.93938 9.59692 10.1265 10.518 13.4072H10.8251C11.7462 9.9703 12.5137 7.62693 12.8208 6.53336C13.4348 4.34622 14.97 4.50244 15.5841 4.50244H20.3431V19.5H15.4305V10.5952H15.1235L12.5137 19.5H8.82934L6.21956 10.5952H5.75901V19.5H1M22.3388 4.50244H27.2513V13.4072H27.7119L30.9357 6.06469C31.5498 4.65867 32.9314 4.50244 32.9314 4.50244H37.5369V19.5H32.6244V10.5952H32.3174L29.0935 17.9378C28.4794 19.3438 26.9443 19.5 26.9443 19.5H22.3388M44.1381 14.9695V19.5H39.5326V11.6888H54.5772C53.9632 13.5635 51.8139 14.9695 49.3577 14.9695" fill="#F05D4B"/>
<path d="M54.8843 10.7509C55.4983 7.93889 53.6561 4.50195 49.6647 4.50195H39.2256C39.5326 7.78267 42.2959 10.7509 45.2127 10.7509" fill="#F05D4B"/>
</svg>
