<svg width="32" height="32" viewBox="0 0 32 32" fill="none" xmlns="http://www.w3.org/2000/svg">
<path d="M24.7119 13.6948C25.7628 12.0445 24.4664 9.68828 22.1633 10.1495C21.3232 10.3189 20.4957 10.5323 19.6808 10.7895C19.9986 10.5323 20.3132 10.275 20.631 10.0209C22.2294 8.72508 20.9016 5.92017 18.9634 6.00174C13.0639 6.25588 7.85037 9.11099 4.34529 13.8141C3.58072 14.8432 4.18483 16.4307 5.19167 17.0331C5.736 17.3563 6.29605 17.419 6.81521 17.2998C6.91904 18.3258 7.48539 19.2764 8.36952 19.882C9.58088 20.7071 10.7167 20.7636 11.7928 20.431C11.7959 20.4404 11.7991 20.4498 11.8022 20.4593C12.5165 22.3512 14.2533 22.7245 15.924 22.3449C16.3991 23.5622 17.8118 24.4972 19.319 23.7097C22.4024 22.1033 24.5577 19.5023 25.8477 16.3146C26.3102 15.1726 25.6589 14.178 24.7056 13.698L24.7119 13.6948Z" fill="#F05D4B"/>
<path d="M13.5234 19.9904V18.9404L16.6034 16.1954C16.8434 15.9821 17.0101 15.7804 17.1034 15.5904C17.1968 15.4004 17.2434 15.2171 17.2434 15.0404C17.2434 14.8004 17.1918 14.5871 17.0884 14.4004C16.9851 14.2104 16.8418 14.0604 16.6584 13.9504C16.4784 13.8404 16.2701 13.7854 16.0334 13.7854C15.7834 13.7854 15.5618 13.8437 15.3684 13.9604C15.1784 14.0737 15.0301 14.2254 14.9234 14.4154C14.8168 14.6054 14.7668 14.8104 14.7734 15.0304H13.5334C13.5334 14.5504 13.6401 14.1321 13.8534 13.7754C14.0701 13.4187 14.3668 13.1421 14.7434 12.9454C15.1234 12.7487 15.5618 12.6504 16.0584 12.6504C16.5184 12.6504 16.9318 12.7537 17.2984 12.9604C17.6651 13.1637 17.9534 13.4471 18.1634 13.8104C18.3734 14.1704 18.4784 14.5854 18.4784 15.0554C18.4784 15.3987 18.4318 15.6871 18.3384 15.9204C18.2451 16.1537 18.1051 16.3687 17.9184 16.5654C17.7351 16.7621 17.5068 16.9804 17.2334 17.2204L15.0484 19.1554L14.9384 18.8554H18.4784V19.9904H13.5234Z" fill="#FFFAF9"/>
</svg>
