<svg width="32" height="32" viewBox="0 0 32 32" fill="none" xmlns="http://www.w3.org/2000/svg">
<path d="M16.6385 13C16.7368 13 16.8351 13 16.9333 13.0192C17.6302 13.096 18.1753 13.4416 18.6399 13.768C20.2213 14.8624 21.6955 16.0816 23 17.3968L21.7759 18.7984C20.5519 17.56 19.167 16.408 17.6749 15.3808C17.3622 15.16 17.0495 14.968 16.7457 14.9296C16.3258 14.8816 15.888 15.1312 15.477 15.4096C13.9045 16.4656 12.4838 17.6752 11.2777 19L10 17.656C11.3134 16.2256 12.8323 14.92 14.5299 13.7872C15.1107 13.3936 15.8165 13.0096 16.6385 13.0096L16.6385 13Z" fill="#444444"/>
</svg>
