<svg width="32" height="32" viewBox="0 0 32 32" fill="none" xmlns="http://www.w3.org/2000/svg">
<path d="M15.3615 19C15.2632 19 15.1649 19 15.0667 18.9808C14.3698 18.904 13.8247 18.5584 13.3601 18.232C11.7787 17.1376 10.3045 15.9184 9 14.6032L10.2241 13.2016C11.4481 14.44 12.833 15.592 14.3251 16.6192C14.6378 16.84 14.9505 17.032 15.2543 17.0704C15.6742 17.1184 16.112 16.8688 16.523 16.5904C18.0955 15.5344 19.5162 14.3248 20.7223 13L22 14.344C20.6866 15.7744 19.1677 17.08 17.4701 18.2128C16.8893 18.6064 16.1835 18.9904 15.3615 18.9904V19Z" fill="#444444"/>
</svg>
