<svg width="32" height="32" viewBox="0 0 32 32" fill="none" xmlns="http://www.w3.org/2000/svg">
<path d="M24.7119 16.6948C25.7628 15.0445 24.4664 12.6883 22.1633 13.1495C21.3232 13.3189 20.4957 13.5323 19.6808 13.7895C19.9986 13.5323 20.3132 13.275 20.631 13.0209C22.2294 11.7251 20.9016 8.92017 18.9634 9.00174C13.0639 9.25588 7.85037 12.111 4.34529 16.8141C3.58072 17.8432 4.18483 19.4307 5.19167 20.0331C5.736 20.3563 6.29605 20.419 6.81521 20.2998C6.91904 21.3258 7.48539 22.2764 8.36952 22.882C9.58088 23.7071 10.7167 23.7636 11.7928 23.431C11.7959 23.4404 11.7991 23.4498 11.8022 23.4593C12.5165 25.3512 14.2533 25.7245 15.924 25.3449C16.3991 26.5622 17.8118 27.4972 19.319 26.7097C22.4024 25.1033 24.5577 22.5023 25.8477 19.3146C26.3102 18.1726 25.6589 17.178 24.7056 16.698L24.7119 16.6948Z" fill="#F05D4B"/>
<path d="M13.6407 16.2563C13.4019 16.2563 13.1544 16.2386 12.9068 16.2121C9.69721 15.7965 8.49473 13.0733 8.7423 10.7125C9.00756 8.19257 10.9174 5.76991 14.0209 6.01748C15.7627 6.15895 17.1686 7.13155 17.8847 8.69655C18.7159 10.5268 18.486 12.8257 17.31 14.4172C16.4258 15.6109 15.1349 16.2475 13.6318 16.2475L13.6407 16.2563ZM13.6053 7.76816C11.7043 7.76816 10.6698 9.35085 10.5107 10.8982C10.3604 12.3659 10.9528 14.1785 13.1367 14.4614C14.6133 14.6559 15.4532 13.9751 15.8953 13.3827C16.6911 12.3129 16.8503 10.686 16.2755 9.43927C15.9572 8.7496 15.2941 7.90079 13.8882 7.78585C13.791 7.78585 13.6937 7.777 13.6053 7.777V7.76816Z" fill="#444444"/>
<path d="M14.1904 25.9998C12.705 25.9998 11.2284 25.6726 9.90209 25.036C7.90384 24.0634 6.52452 22.4808 6.10895 20.6947C5.64918 18.6965 6.65714 16.1235 8.89412 15.4869L9.38043 17.1845C8.1691 17.5293 7.56785 19.112 7.84194 20.288C8.12488 21.5347 9.18591 22.7106 10.6802 23.4268C12.6165 24.3641 14.9685 24.479 16.9844 23.7274C18.4168 23.1969 19.5043 22.2685 19.9641 21.181C20.1498 20.7389 20.2205 20.2526 20.1851 19.784C19.7607 20.0581 19.2656 20.288 18.6909 20.3676C17.5945 20.5267 16.5423 19.9962 16.1356 19.0943C15.9057 18.5903 15.8968 18.0156 16.1091 17.4674C16.3389 16.8662 16.7987 16.3799 17.3734 16.1235C18.2665 15.7344 19.3894 15.8848 20.2912 16.5214C20.4681 16.6451 20.6361 16.7866 20.7864 16.9458C22.3337 15.31 23.377 13.2057 23.713 10.9775L25.4637 11.2428C25.057 13.9838 23.713 16.5744 21.7325 18.5108C22.0861 19.5629 22.0596 20.7743 21.591 21.8707C20.9278 23.418 19.5132 24.6647 17.6033 25.3809C16.5246 25.7876 15.3575 25.9821 14.1992 25.9821L14.1904 25.9998ZM18.4256 17.6973C18.3018 17.6973 18.178 17.715 18.0808 17.7681C17.9481 17.83 17.8155 17.9626 17.7625 18.1217C17.7448 18.1659 17.7094 18.2897 17.7448 18.3781C17.8244 18.555 18.1515 18.6699 18.4433 18.6346C18.797 18.5815 19.1506 18.3781 19.4601 18.1483C19.3982 18.0952 19.3363 18.0422 19.2656 17.9891C19.0003 17.8034 18.6909 17.6973 18.4256 17.6973Z" fill="#444444"/>
</svg>
