<svg width="32" height="32" viewBox="0 0 32 32" fill="none" xmlns="http://www.w3.org/2000/svg">
<path fill-rule="evenodd" clip-rule="evenodd" d="M12.1558 8.77318C13.7437 7.98215 15.7015 7.756 17.9471 8.29176L17.9503 8.29252C22.0416 9.28271 24.5561 12.4593 24.8937 15.7717C25.0628 17.4299 24.6835 19.1225 23.6771 20.555C22.6683 21.9911 21.0727 23.1049 18.9139 23.6829C15.9592 24.4847 12.3636 23.7415 10.293 21.6885L10.2918 21.6873C7.80639 19.2149 7.42 15.336 8.75816 12.3731C9.43655 10.871 10.5744 9.56097 12.1558 8.77318ZM11.7016 20.2687C13.1873 21.7412 16.0118 22.3987 18.3914 21.7523L18.3951 21.7513C20.1624 21.2785 21.3355 20.409 22.0406 19.4054C22.7484 18.3978 23.0283 17.1936 22.9041 15.9746C22.6552 13.5331 20.7739 11.0343 17.4814 10.2368C15.6278 9.79487 14.1593 10.0095 13.0476 10.5633C11.9291 11.1205 11.0942 12.0597 10.5809 13.1963C9.53578 15.5103 9.89012 18.4661 11.7016 20.2687Z" fill="#444444"/>
</svg>
