<svg width="32" height="32" viewBox="0 0 32 32" fill="none" xmlns="http://www.w3.org/2000/svg">
<path d="M19 16.1278C19 16.2186 19 16.3093 18.9808 16.4C18.904 17.0433 18.5584 17.5464 18.232 17.9753C17.1376 19.4351 15.9184 20.7959 14.6032 22L13.2016 20.8701C14.44 19.7402 15.592 18.4619 16.6192 17.0845C16.84 16.7959 17.032 16.5072 17.0704 16.2268C17.1184 15.8392 16.8688 15.4351 16.5904 15.0557C15.5344 13.6041 14.3248 12.2928 13 11.1794L14.344 10C15.7744 11.2124 17.08 12.6144 18.2128 14.1814C18.6064 14.7175 18.9904 15.3691 18.9904 16.1278L19 16.1278Z" fill="#444444"/>
</svg>
