<svg width="57" height="24" viewBox="0 0 57 24" fill="none" xmlns="http://www.w3.org/2000/svg">
<g clip-path="url(#clip0_2769_9384)">
<path d="M29.9361 13.9319H31.9531C35.7851 13.9319 37.8411 12.3999 37.8411 9.35388C37.8411 6.39988 36.0851 4.92188 31.9531 4.92188H27.6001V18.0069H29.9361V13.9319ZM29.9361 7.07288H32.1611C34.4391 7.07288 35.4111 7.68988 35.4111 9.29688C35.4111 11.0729 34.2901 11.7829 32.1211 11.7829H29.9261L29.9361 7.07288ZM41.3531 18.1669C42.8511 18.1669 43.9901 17.4179 44.4381 16.3359V18.0179H46.4941V11.8499C46.4941 9.41088 45.1481 8.48388 42.4191 8.48388C40.8121 8.48388 39.6891 8.85988 39.0751 9.32588V12.0559C39.7091 11.0649 40.6991 10.3919 42.4191 10.3919C43.6731 10.3919 44.3071 10.8039 44.3071 12.1309V12.5409H42.1941C39.8971 12.5409 38.3461 13.1379 38.3461 15.2699C38.3461 17.1009 39.4661 18.1669 41.3531 18.1669ZM42.4581 13.9619H44.3071V14.7189C44.2141 15.3529 43.5211 16.1819 42.0461 16.1819C41.0701 16.1819 40.5511 15.7329 40.5511 15.0229C40.5511 14.2029 41.1681 13.9629 42.4581 13.9629V13.9619ZM49.9811 19.7739C49.5615 19.7662 49.1606 19.5988 48.8601 19.3059V21.3449C49.1401 21.5889 49.7741 21.7549 50.3551 21.7549C51.5891 21.7549 52.4281 21.2499 53.2521 19.0089L56.9901 8.67188H54.6731L52.5801 15.0819L50.0201 8.67188H47.5801L51.5241 18.0549C51.1651 19.3249 50.6611 19.7749 49.9821 19.7749L49.9811 19.7739ZM6.2041 9.33988V12.2109L10.0091 14.5969L19.1191 7.89388C18.7977 7.18683 18.395 6.51966 17.9191 5.90587L10.0091 11.7259L6.2041 9.33988Z" fill="#00D800"/>
<path d="M10.008 22C11.4733 22.0003 12.9207 21.6786 14.2479 21.0576C15.5751 20.4367 16.7496 19.5317 17.6883 18.4066C18.627 17.2816 19.3071 15.964 19.6803 14.5471C20.0535 13.1301 20.1108 11.6485 19.848 10.207L17.694 11.793V12C17.6969 13.7194 17.1237 15.3903 16.0661 16.746C15.0084 18.1016 13.5272 19.064 11.8587 19.4795C10.1902 19.8951 8.43065 19.7398 6.86071 19.0386C5.29077 18.3373 4.00093 17.1304 3.19698 15.6105C2.39303 14.0906 2.12131 12.3452 2.42516 10.6528C2.72901 8.96044 3.59093 7.41858 4.87339 6.27325C6.15585 5.12792 7.78497 4.44512 9.5008 4.33379C11.2166 4.22245 12.9203 4.689 14.34 5.65899L16.291 4.22699C15.0468 3.21995 13.5791 2.52631 12.0111 2.20436C10.4431 1.88241 8.82074 1.94156 7.28038 2.37685C5.74001 2.81214 4.32665 3.61084 3.15908 4.70582C1.9915 5.8008 1.10385 7.16006 0.570717 8.66936C0.0375844 10.1787 -0.125444 11.7939 0.095333 13.3793C0.31611 14.9647 0.914242 16.4739 1.83945 17.7801C2.76467 19.0863 3.98992 20.1513 5.41224 20.8856C6.83455 21.62 8.41236 22.0021 10.013 22H10.008Z" fill="#00D800"/>
</g>
<defs>
<clipPath id="clip0_2769_9384">
<rect width="57" height="20" fill="white" transform="translate(0 2)"/>
</clipPath>
</defs>
</svg>
