<svg width="40" height="24" viewBox="0 0 40 24" fill="none" xmlns="http://www.w3.org/2000/svg">
<g clip-path="url(#clip0_2765_3085)">
<path d="M35.4526 9.88805V15.0222H33.6993V11.4207H32.0111V15.0222H30.2578V9.8877H35.4526V9.88805Z" fill="black"/>
<path fill-rule="evenodd" clip-rule="evenodd" d="M26.6571 15.2059C28.2266 15.2059 29.3922 14.1996 29.3922 12.6741C29.3922 11.1977 28.5322 10.239 27.0951 10.239C26.4318 10.239 25.8845 10.4831 25.4723 10.9044C25.5707 10.0337 26.2748 9.39814 27.0501 9.39814C27.229 9.39814 28.5759 9.39517 28.5759 9.39517L29.3376 7.87109C29.3376 7.87109 27.6466 7.91134 26.8604 7.91134C25.0643 7.94407 23.8511 9.65119 23.8511 11.7246C23.8511 14.1401 25.0343 15.2059 26.6571 15.2059ZM26.6666 11.589C27.2494 11.589 27.6534 11.9894 27.6534 12.674C27.6534 13.2901 27.2944 13.7978 26.6666 13.7992C26.0661 13.7992 25.6621 13.3288 25.6621 12.6845C25.6621 11.9997 26.0661 11.589 26.6666 11.589Z" fill="black"/>
<path d="M22.4238 13.3036C22.4238 13.3036 22.0098 13.5531 21.3914 13.6004C20.6804 13.6224 20.0469 13.1529 20.0469 12.3187C20.0469 11.5049 20.6059 11.0385 21.3735 11.0385C21.8441 11.0385 22.4667 11.3796 22.4667 11.3796C22.4667 11.3796 22.9222 10.5055 23.1582 10.0683C22.7261 9.72586 22.1505 9.53809 21.4811 9.53809C19.7915 9.53809 18.4829 10.6899 18.4829 12.3083C18.4829 13.9474 19.7129 15.0725 21.4811 15.0385C21.9753 15.0193 22.6571 14.8378 23.0727 14.5587L22.4238 13.3036Z" fill="black"/>
<path d="M0 6.57129L2.43213 11.1169V13.8896L0.00284519 18.4263L0 6.57129Z" fill="#5B57A2"/>
<path d="M9.33838 9.46217L11.6174 8.00162L16.2815 7.99707L9.33838 12.4445V9.46217Z" fill="#D90751"/>
<path d="M9.32557 6.54422L9.33846 12.5625L6.90063 10.9962V2L9.32574 6.54422H9.32557Z" fill="#FAB718"/>
<path d="M16.2816 7.99743L11.6173 8.00198L9.32557 6.54423L6.90063 2L16.2814 7.99743H16.2816Z" fill="#ED6F26"/>
<path d="M9.33846 18.4515V15.5316L6.90063 13.9951L6.90197 23.0003L9.33846 18.4515Z" fill="#63B22F"/>
<path d="M11.6117 17.0043L2.43197 11.1169L0 6.57129L16.2716 16.9983L11.6115 17.0043H11.6117Z" fill="#1487C9"/>
<path d="M6.9021 23L9.33825 18.4512L11.6116 17.004L16.2715 16.998L6.9021 23Z" fill="#017F36"/>
<path d="M0.00292969 18.426L6.92059 13.995L4.5949 12.5029L2.43222 13.8893L0.00292969 18.426Z" fill="#984995"/>
</g>
<defs>
<clipPath id="clip0_2765_3085">
<rect width="40" height="21" fill="white" transform="translate(0 2)"/>
</clipPath>
</defs>
</svg>
