<svg width="32" height="32" viewBox="0 0 32 32" fill="none" xmlns="http://www.w3.org/2000/svg">
<path d="M23.9167 26.775L19.6961 22.2682C21.2788 20.8644 22.173 18.924 22.1372 16.7064C22.0836 12.772 19.1774 9.31144 15.0552 8.301C11.237 7.3621 7.90172 8.64974 6.14016 11.7436C4.25342 15.0611 4.75417 19.5231 7.30261 22.1162C8.80485 23.6453 11.1655 24.5127 13.553 24.5127C14.3935 24.5127 15.243 24.4054 16.0478 24.1818C16.8347 23.9672 17.559 23.6721 18.2117 23.3055L22.6111 28L23.9167 26.775ZM15.5828 22.456C13.097 23.1356 10.1551 22.465 8.5813 20.8644C6.56937 18.8167 6.19382 15.2757 7.69606 12.6289C9.06417 10.2325 11.5858 9.29355 14.635 10.0357C18.5157 10.9925 20.322 14.1758 20.3488 16.7243C20.3667 18.4232 19.6961 19.8897 18.471 20.9538L17.1208 19.5141L15.8153 20.7392L16.933 21.9374C16.5128 22.1341 16.0657 22.3219 15.5739 22.456H15.5828Z" fill="#444444"/>
</svg>
