<svg width="32" height="32" viewBox="0 0 32 32" fill="none" xmlns="http://www.w3.org/2000/svg">
<path d="M24.7289 11.8367C23.6768 10.5688 21.8513 10.6137 20.8711 10.6407L20.916 12.4392C21.9142 12.4123 22.9124 12.4662 23.344 12.9878C23.6588 13.3655 23.6768 14.0219 23.6678 14.7144C23.6408 17.0434 23.5689 19.3995 23.4609 21.7286C23.353 23.9857 22.6156 24.1026 21.1049 24.1386C17.8945 24.2105 14.6392 24.2195 11.4289 24.1566C10.5296 24.1386 9.53143 24.0756 9.05482 23.5541C8.68613 23.1494 8.62318 22.457 8.58721 21.6656L8.25448 14.0849C8.2365 13.6532 8.50627 13.2486 8.91993 13.0777C9.71128 12.763 10.7544 12.691 11.6717 12.673L11.6267 10.8745C10.5476 10.9015 9.30661 10.9824 8.24549 11.4141C7.12142 11.8637 6.40201 12.9698 6.45596 14.1658L6.78869 21.7466C6.82466 22.5829 6.87862 23.8418 7.72392 24.7681C8.75807 25.9101 10.4756 25.9371 11.3929 25.9551C12.8587 25.9821 14.3335 26.0001 15.7993 26.0001C17.5888 26.0001 19.3693 25.9821 21.1409 25.9371C23.1732 25.8921 25.0796 25.3616 25.2505 21.8185C25.3674 19.4714 25.4393 17.0884 25.4663 14.7323C25.4753 13.7342 25.4303 12.682 24.7199 11.8277L24.7289 11.8367Z" fill="#444444"/>
<path d="M15.3212 7.74506C15.2853 10.1551 15.3572 12.5741 15.5461 14.9661L17.3356 14.8222C17.1467 12.4752 17.0838 10.0921 17.1198 7.72708C17.6863 8.44649 18.2168 9.19287 18.6755 10.0022L20.2402 9.11194C19.5747 7.9429 18.7924 6.84581 17.9291 5.85662C17.7133 5.61382 17.3086 5.14621 16.6881 5.0293C15.8068 4.85845 15.0874 5.47893 14.7817 5.74871C13.6666 6.71991 12.6504 7.83499 11.7422 9.06697L13.19 10.1371C13.8285 9.26481 14.5569 8.48246 15.3122 7.74506H15.3212Z" fill="#444444"/>
</svg>
