<svg width="70" height="62" viewBox="0 0 70 62" fill="none" xmlns="http://www.w3.org/2000/svg">
<g clip-path="url(#clip0_1525_1065)">
<path d="M20.8225 0.000162747C12.9027 0.214787 5.21666 4.78214 1.90703 12.0756C-2.48447 21.7563 0.821403 33.6811 10.6599 38.5007C18.9754 42.571 28.0411 40.2478 35.3464 34.9726C40.0056 31.6139 43.9334 26.6813 42.6442 20.5815C41.4832 15.0841 36.0966 12.2676 30.7891 12.8851C20.7546 14.0562 14.1957 24.2263 14.2145 33.7752C14.2334 43.9943 22.0438 52.5944 31.69 55.1736C41.4342 57.7792 51.9738 53.4943 57.9824 45.6059C60.8623 41.833 63.1165 37.1715 62.585 32.2992C61.9442 26.4253 57.0551 22.0236 50.99 23.221C44.9323 24.4221 41.1515 30.1379 39.3346 35.6014C37.3895 41.4603 37.7476 48.3358 41.095 53.6261C44.1445 58.4457 49.5575 62.0868 55.4078 61.9964C61.62 61.8947 66.9388 57.3086 69.4832 51.9015C70.5387 49.6574 69.9846 46.92 67.7116 45.6511C65.6572 44.5064 62.5134 45.1654 61.4542 47.4208C60.3195 49.8306 58.3556 52.391 55.7584 52.7901C53.6739 53.1064 51.103 51.6191 49.6329 49.8306C45.9275 45.3273 46.704 36.3959 51.5441 32.8301C51.7062 32.7096 52.6146 32.2427 52.5468 32.2841C52.837 32.1034 53.0783 31.9754 53.2931 32.2314C52.9953 31.8662 53.2253 32.0507 53.2931 32.3896C53.2328 32.0733 53.4703 33.3723 53.4665 33.2707C53.6324 35.575 52.3055 38.0978 50.6168 40.1989C47.0282 44.6495 41.0196 47.6429 35.4218 46.5999C29.8543 45.5645 24.9011 41.6523 23.6345 36.0118C22.5942 31.3842 24.7993 25.5178 29.1531 22.916C29.99 22.4114 30.9286 22.05 31.8069 21.9747C32.8058 21.8881 33.5559 21.8617 33.7331 22.5093C34.3211 24.6556 31.1434 26.7679 29.7223 27.7319C26.8952 29.6371 23.6195 31.3315 20.1477 31.5348C19.6389 31.565 18.9867 31.4671 18.4778 31.5537C18.2366 31.5951 19.6652 31.7834 18.6324 31.5537C17.5995 31.324 16.6685 31.1169 15.711 30.7554C15.0287 30.4994 16.284 31.019 15.5866 30.6914C15.2285 30.522 14.8666 30.3525 14.5198 30.1605C13.8036 29.7727 13.34 29.4827 12.8839 29.11C11.6324 28.0896 10.5882 26.8093 9.93611 25.322C8.73363 22.5922 8.84294 19.305 9.95118 16.5639C10.5845 14.9937 11.5721 13.5554 12.8123 12.4069C13.389 11.876 13.9959 11.443 14.6706 11.0364C14.9345 10.8782 16.2086 10.2343 15.9259 10.3586C16.6345 10.0574 17.3847 9.82015 18.1235 9.62059C18.3911 9.54905 18.6588 9.48881 18.9264 9.4248C19.0697 9.38714 20.1364 9.18005 19.3976 9.3156C18.753 9.43233 20.012 9.25535 20.2194 9.229C20.4832 9.19887 20.7509 9.19511 21.0147 9.18381C26.9253 9.0219 26.7595 -0.161747 20.8376 0.000162747H20.8225Z" fill="#D3E579"/>
</g>
<defs>
<clipPath id="clip0_1525_1065">
<rect width="70" height="62" fill="white"/>
</clipPath>
</defs>
</svg>
