<svg width="46" height="24" viewBox="0 0 46 24" fill="none" xmlns="http://www.w3.org/2000/svg">
<g clip-path="url(#clip0_3008_15411)">
<path d="M29.9547 4.02344C26.6919 4.02344 23.776 5.72219 23.776 8.86005C23.776 12.459 28.9473 12.7075 28.9473 14.5158C28.9473 15.2771 28.0788 15.9586 26.5949 15.9586C24.4894 15.9586 22.9158 15.0064 22.9158 15.0064L22.2423 18.1734C22.2423 18.1734 24.0552 18.9777 26.4619 18.9777C30.0292 18.9777 32.8366 17.1958 32.8366 14.0039C32.8366 10.2008 27.6437 9.95959 27.6437 8.28163C27.6437 7.6852 28.3566 7.03194 29.836 7.03194C31.5053 7.03194 32.867 7.72447 32.867 7.72447L33.5261 4.66607C33.5261 4.66607 32.044 4.02344 29.9542 4.02344H29.9547ZM0.102069 4.25443L0.0229492 4.71597C0.0229492 4.71597 1.39559 4.96821 2.63207 5.47179C4.22413 6.04882 4.33729 6.38515 4.60547 7.42833L7.52693 18.7393H11.4434L17.4767 4.25443H13.5695L9.69261 14.1027L8.11067 5.75453C7.96577 4.79912 7.23069 4.25397 6.33139 4.25397H0.102529L0.102069 4.25443ZM19.0481 4.25443L15.9831 18.7393H19.7091L22.7631 4.25443H19.0481ZM39.829 4.25443C38.9307 4.25443 38.4546 4.73768 38.1054 5.58174L32.6466 18.7393H36.5539L37.3096 16.5462H42.0697L42.5292 18.7393H45.9769L42.9695 4.25443H39.829ZM40.3373 8.16798L41.4956 13.6033H38.3929L40.3378 8.16798H40.3373Z" fill="#F05D4B"/>
</g>
<defs>
<clipPath id="clip0_3008_15411">
<rect width="46" height="15" fill="white" transform="translate(0 4)"/>
</clipPath>
</defs>
</svg>
