<svg width="71" height="62" viewBox="0 0 71 62" fill="none" xmlns="http://www.w3.org/2000/svg">
<g clip-path="url(#clip0_1509_1142)">
<path d="M21.4162 0.000162747C13.4965 0.214787 5.81041 4.78214 2.50078 12.0756C-1.89072 21.7563 1.41515 33.6811 11.2536 38.5007C19.5692 42.571 28.6349 40.2478 35.9402 34.9726C40.5993 31.6139 44.5272 26.6813 43.238 20.5815C42.077 15.0841 36.6903 12.2676 31.3828 12.8851C21.3484 14.0562 14.7894 24.2263 14.8083 33.7752C14.8271 43.9943 22.6376 52.5944 32.2838 55.1736C42.028 57.7792 52.5676 53.4943 58.5762 45.6059C61.4561 41.833 63.7103 37.1715 63.1788 32.2992C62.5379 26.4253 57.6489 22.0236 51.5837 23.221C45.5261 24.4221 41.7453 30.1379 39.9283 35.6014C37.9833 41.4603 38.3414 48.3358 41.6887 53.6261C44.7383 58.4457 50.1513 62.0868 56.0016 61.9964C62.2138 61.8947 67.5326 57.3086 70.077 51.9015C71.1324 49.6574 70.5783 46.92 68.3053 45.6511C66.2509 44.5064 63.1071 45.1654 62.0479 47.4208C60.9133 49.8306 58.9494 52.391 56.3522 52.7901C54.2676 53.1064 51.6968 51.6191 50.2267 49.8306C46.5212 45.3273 47.2978 36.3959 52.1378 32.8301C52.2999 32.7096 53.2084 32.2427 53.1405 32.2841C53.4308 32.1034 53.672 31.9754 53.8869 32.2314C53.5891 31.8662 53.819 32.0507 53.8869 32.3896C53.8266 32.0733 54.0641 33.3723 54.0603 33.2707C54.2261 35.575 52.8993 38.0978 51.2105 40.1989C47.6219 44.6495 41.6133 47.6429 36.0156 46.5999C30.448 45.5645 25.4949 41.6523 24.2283 36.0118C23.1879 31.3842 25.3931 25.5178 29.7469 22.916C30.5837 22.4114 31.5223 22.05 32.4006 21.9747C33.3995 21.8881 34.1497 21.8617 34.3268 22.5093C34.9149 24.6556 31.7372 26.7679 30.3161 27.7319C27.4889 29.6371 24.2132 31.3315 20.7415 31.5348C20.2326 31.565 19.5805 31.4671 19.0716 31.5537C18.8303 31.5951 20.259 31.7834 19.2261 31.5537C18.1933 31.324 17.2622 31.1169 16.3048 30.7554C15.6225 30.4994 16.8777 31.019 16.1804 30.6914C15.8223 30.522 15.4604 30.3525 15.1136 30.1605C14.3974 29.7727 13.9337 29.4827 13.4776 29.11C12.2261 28.0896 11.182 26.8093 10.5299 25.322C9.32738 22.5922 9.43669 19.305 10.5449 16.5639C11.1782 14.9937 12.1658 13.5554 13.406 12.4069C13.9827 11.876 14.5896 11.443 15.2644 11.0364C15.5282 10.8782 16.8023 10.2343 16.5196 10.3586C17.2283 10.0574 17.9784 9.82015 18.7173 9.62059C18.9849 9.54905 19.2525 9.48881 19.5202 9.4248C19.6634 9.38714 20.7302 9.18005 19.9914 9.3156C19.3468 9.43233 20.6058 9.25535 20.8131 9.229C21.077 9.19887 21.3446 9.19511 21.6085 9.18381C27.5191 9.0219 27.3532 -0.161747 21.4313 0.000162747H21.4162Z" fill="#D3E579"/>
</g>
<defs>
<clipPath id="clip0_1509_1142">
<rect width="70" height="62" fill="white" transform="translate(0.59375)"/>
</clipPath>
</defs>
</svg>
