<svg width="77" height="77" viewBox="0 0 77 77" fill="none" xmlns="http://www.w3.org/2000/svg">
<path fill-rule="evenodd" clip-rule="evenodd" d="M27.0804 31.6987C28.8858 29.281 30.2959 26.5944 31.2542 23.724C32.506 19.9839 33.0283 16.0729 33.0154 12.1368C31.9987 8.73236 31.608 5.15927 31.7455 1.60059C31.7918 0.378219 33.5837 0.19788 33.8749 1.35047C34.166 2.50306 34.3941 3.66764 34.5786 4.83923C34.9414 7.14239 35.1511 9.47646 35.1753 11.8123C35.5822 13.1266 36.0956 14.4052 36.7224 15.6424C39.8914 21.8858 45.6244 26.3991 52.0897 28.8694C58.372 31.2702 65.2005 31.9171 71.8527 31.1988C72.98 30.9392 74.1351 30.7722 75.2997 30.7068C76.5206 30.6353 76.7463 32.645 75.5555 32.8502C74.4763 33.0393 73.393 33.1962 72.3045 33.3169C70.3311 33.7726 68.4389 34.5776 66.7287 35.6896C62.2841 38.592 59.5609 43.5702 59.558 48.9122C59.5556 53.4014 61.4212 57.7656 64.5142 60.9709C65.24 61.5629 65.9408 62.1862 66.6126 62.8253C67.4898 63.6697 66.2717 65.2838 65.2932 64.5277C64.5784 63.9787 63.9021 63.3865 63.2653 62.7551C63.2087 62.7114 63.1559 62.6667 63.0993 62.6229C63.0426 62.5792 62.9899 62.5345 62.9332 62.4908C62.8971 62.4626 62.8766 62.447 62.8658 62.4373C62.8404 62.4188 62.8199 62.4033 62.7984 62.3839C62.7731 62.3654 62.7515 62.3459 62.7262 62.3275C62.4537 62.1186 62.1823 61.9136 61.9041 61.7144C61.2969 61.2793 60.6783 60.8637 60.0403 60.4697C57.3667 58.8209 54.4347 57.5336 51.2926 57.1197C47.2262 56.5807 43.3579 57.6049 39.9257 59.8153C34.9194 63.0405 30.7838 67.407 27.7995 72.527C27.2714 73.8353 26.6362 75.1129 25.876 76.2894C25.8684 76.308 25.8608 76.3266 25.8521 76.3413L25.8424 76.3354C25.5179 76.8262 24.9039 77.0418 24.3616 76.7148C23.8194 76.3878 23.7409 75.7589 23.9786 75.2196C24.5678 73.8915 25.2242 72.6001 25.9518 71.3447C26.1432 70.8505 26.3238 70.33 26.5078 69.7421C27.4855 66.6088 27.8205 63.2408 27.0382 60.0093C26.2506 56.7417 24.3828 53.9006 21.8828 51.704C17.6304 47.972 11.9229 46.4764 6.392 46.9282C4.98079 47.2565 3.55345 47.5056 2.10998 47.6757C2.10223 47.6777 2.0906 47.6807 2.08285 47.6827C1.49979 47.7447 0.92725 47.5253 0.765245 46.8929C0.617239 46.3151 0.977895 45.7236 1.54183 45.5708C3.07084 45.1541 4.63873 44.8731 6.22036 44.7425C6.79992 44.6023 7.38137 44.4534 7.95393 44.2859C15.2843 42.1834 22.323 37.8303 27.0333 31.7565C27.0487 31.7359 27.0641 31.7154 27.0843 31.6977L27.0804 31.6987ZM32.705 6.9582C32.7007 6.90937 32.7018 6.92988 32.71 6.97772C32.71 6.97772 32.708 6.96991 32.705 6.9582Z" fill="#F05D4B"/>
</svg>
