<svg width="81" height="94" viewBox="0 0 81 94" fill="none" xmlns="http://www.w3.org/2000/svg">
<g clip-path="url(#clip0_1509_1139)">
<path d="M28.6635 32.7729C29.9933 33.7139 34.7951 36.6398 43.165 33.0234C54.4866 28.1275 62.936 15.301 64.0619 13.5728C62.6969 15.7608 51.2002 34.515 53.4431 47.5059C53.9966 50.6882 55.2507 52.8543 56.6394 54.3396C54.6565 53.5177 49.4426 51.9497 41.402 55.7612C28.1868 62.0137 18.5783 77.475 17.309 79.5594C26.8523 68.1289 32.9982 54.5891 33.0077 44.4395C33.0083 37.6854 30.2935 34.2917 28.6683 32.7761L28.6635 32.7729Z" fill="#F05D4B"/>
<path d="M27.3905 34.7164C32.6722 38.4003 39.6523 37.2951 45.1262 34.6831C51.937 31.4371 57.5105 25.9253 62.1865 20.1024C63.5377 18.411 64.8242 16.6703 66.0041 14.8597L62.118 12.3124C59.8071 16.0279 57.8013 19.9227 56.0068 23.9074C53.2709 30.0046 50.9415 36.7077 50.8445 43.4609C50.786 47.9254 51.8243 52.5133 54.9038 55.8897L57.3559 52.1489C50.5368 49.3624 42.6767 51.9898 36.7531 55.6788C29.7997 60.0089 24.0715 66.0843 19.2178 72.6222C17.8598 74.4614 16.5535 76.3485 15.3602 78.2958C14.7081 79.3647 14.9619 80.8057 16.0328 81.5077C17.1812 82.2605 18.4391 81.8104 19.2463 80.8432C24.5432 74.4642 29.0081 67.3251 32.0446 59.5962C34.5804 53.1808 36.4495 45.5525 34.6174 38.6985C33.8742 35.9114 32.5116 33.2448 30.3975 31.2493C29.4861 30.3886 28.1248 30.1614 27.1144 31.037C26.2414 31.8087 25.989 33.4514 26.9101 34.3184C27.5301 34.9049 28.1057 35.5593 28.5933 36.2738C28.3755 35.9509 28.7692 36.5762 28.8213 36.6658C28.9743 36.9185 29.1147 37.1906 29.2501 37.4595C29.4983 37.9686 29.7226 38.5036 29.902 39.0437C30.8717 42.0348 30.818 45.2555 30.3937 48.3442C29.47 55.0058 26.5729 61.4545 23.1884 67.2096C20.8935 71.1227 18.2611 74.8215 15.3636 78.3118L19.24 80.8529C21.8154 76.6387 24.8405 72.6155 28.1534 69.0094C33.4773 63.2232 40.2025 57.4341 48.1646 55.9404C49.8238 55.6287 51.4463 55.563 53.1466 55.7909C53.3187 55.8136 53.4909 55.8364 53.6566 55.8689C53.3493 55.8198 53.5295 55.8409 53.7291 55.8956C54.0029 55.9642 54.2926 56.0294 54.5648 56.1109C55.019 56.2423 55.467 56.4044 55.9006 56.5778C58.064 57.4625 59.8422 54.4645 58.3527 52.837C53.9621 48.0261 55.2695 40.4938 56.8838 34.8183C57.7458 31.8018 58.8589 28.846 60.1222 25.9677C61.1565 23.6184 62.1611 21.589 63.473 19.186C64.2668 17.732 65.096 16.2873 65.9785 14.8776C67.5578 12.352 63.7249 9.81872 62.0924 12.3302C59.5883 16.2032 56.7389 19.6835 53.5063 22.8711C48.7811 27.5326 42.2772 32.6354 35.2714 32.4906C33.7719 32.4637 33.0429 32.3392 31.6391 31.8069C31.399 31.7188 31.1604 31.6178 30.9282 31.5071C31.4233 31.7347 30.9878 31.5324 30.7682 31.4023C30.4825 31.2358 30.1903 31.0581 29.9156 30.8642C27.4549 29.1542 24.9139 33.0306 27.3714 34.7455L27.3776 34.7149L27.3905 34.7164Z" fill="#F05D4B"/>
</g>
<defs>
<clipPath id="clip0_1509_1139">
<rect width="39.815" height="85.3485" fill="white" transform="translate(47.3828) rotate(33.245)"/>
</clipPath>
</defs>
</svg>
