<?xml version="1.0" encoding="utf-8"?><svg xmlns="http://www.w3.org/2000/svg" xmlns:xlink="http://www.w3.org/1999/xlink"><symbol viewBox="0 0 32 32" id="arrow_left" xmlns="http://www.w3.org/2000/svg"><path d="m22.866 16.312.082-1.933a79.15 79.15 0 0 0-10.817.285l.179 1.928a78.295 78.295 0 0 1 10.546-.28h.01Z"/><path d="m13.929 21.122 1.11-1.586a25.66 25.66 0 0 1-3.957-3.405c-.258-.276-.394-.452-.4-.54.013-.126.34-.494.523-.688l.11-.123c1.402-1.554 2.17-2.015 3.846-3.032l-1.006-1.657c-1.864 1.125-2.742 1.699-4.272 3.386l-.1.112c-.475.512-1.113 1.218-1.018 2.181.07.723.517 1.24.92 1.672a28.029 28.029 0 0 0 4.252 3.66l-.008.02Z"/></symbol><symbol viewBox="0 0 32 32" id="arrow_right" xmlns="http://www.w3.org/2000/svg"><path d="M9.2 16.94 9 14.95c3.7-.37 7.46-.49 11.18-.35l-.07 2a80.93 80.93 0 0 0-10.9.34H9.2Z"/><path d="m18.709 21.37-1.24-1.57a26.52 26.52 0 0 0 3.88-3.75c.25-.3.38-.49.38-.58-.02-.13-.38-.49-.58-.68l-.12-.12c-1.54-1.52-2.36-1.95-4.15-2.9l.94-1.77c1.99 1.05 2.93 1.59 4.61 3.24l.11.11c.52.5 1.22 1.19 1.18 2.19-.03.75-.46 1.31-.85 1.78a28.962 28.962 0 0 1-4.17 4.03l.01.02Z"/></symbol><symbol viewBox="0 0 378 386" id="bear" xmlns="http://www.w3.org/2000/svg"><g clip-path="url(#ada)"><path d="M296.086 84.413c.479 0 .888 0 1.23-.136 3.553-.882 5.397-6.171 5.397-9.426 0-1.763-.546-7.188-3.552-8.477-.547-.271-1.162-.339-1.845-.339-1.025 0-2.186.34-3.074.814-2.118 1.288-3.689 4.747-3.894 8.477-.205 3.526.751 6.78 2.527 8.07.82.61 1.982 1.017 3.211 1.017Zm-39.345 22.853c-1.23 1.56-2.528 3.052-3.826 4.543-.819.882-2.391 3.12-3.757 3.188-3.143.135-5.67-6.307-6.764-8.409-2.664-5.29-10.589-.611-7.924 4.611 2.937 5.764 7.173 13.02 14.688 12.952 6.968 0 11.819-7.391 15.576-12.274 3.553-4.679-4.44-9.222-7.925-4.611h-.068Zm-7.247-11.799c4.919-.136 11.546-5.425 11.068-9.02-.752-5.357-4.646-8.07-12.298-8.137-6.831-.272-11.682 4.543-11.067 9.222.547 3.934 6.763 8.138 12.297 8.002v-.067Zm-52.45-11.46c.615.27 1.366.406 2.049.406.888 0 1.708-.203 2.391-.542 3.28-1.628 3.894-7.12 3.211-10.375-.341-1.764-2.118-6.917-5.329-7.528-.273 0-.478-.068-.819-.068-1.367 0-2.87.61-3.894 1.56-1.777 1.695-2.596 5.425-1.982 9.087.547 3.459 2.255 6.442 4.236 7.392l.137.068Z"/><path d="M494.557 179.828c-.342-1.153-1.366-4.408-4.304-5.832-2.664-1.288-5.739-.475-7.993.543l-1.025-.814c1.571-2.645 1.981-5.696 1.025-8.409-.205-.475-1.367-3.594-4.509-4.95-4.373-1.899-9.155.813-10.658 2.034-.341.271-.751.61-1.093.949-.273-.271-.546-.542-.888-.746 1.503-3.865 1.298-7.866-.683-10.782-.273-.339-2.118-3.051-5.261-3.73-7.378-1.695-15.644 8.748-18.787 12.342-.068.136-.273.272-.342.34-4.577 1.491-9.906 5.018-13.048 9.222-3.211.814-6.49 1.221-9.701 2.645-2.255 1.017-4.168 2.306-6.081 3.865-.683.543-1.366 1.017-1.981 1.628-.136.135-1.093.949-1.503 1.356h-.273c-1.161-.068-3.348.407-4.372.543-2.187.339-4.168.881-6.149 1.763-.683.339-1.298.678-1.981 1.017 0-.61-.137-1.221-.205-1.831-.41-2.509-1.298-4.95-2.46-7.188-.751-1.424-2.049-2.781-3.142-4.001.273-1.696.546-3.391.683-5.086.273-3.12.137-6.239-.478-9.291-.547-2.577-1.64-5.221-3.006-7.459-.82-1.289-1.776-2.509-2.801-3.527a14.8 14.8 0 0 1-.957-1.017c0-.746-.068-1.627-.068-2.238 0-1.491-.068-2.916-.273-4.34-.41-3.051-1.162-5.832-2.596-8.612-1.503-2.916-3.758-5.357-6.354-7.256.137-4.001-.478-7.934-1.913-11.732-1.229-3.187-2.801-5.967-4.987-8.612-.683-.882-1.435-1.763-2.254-2.51a18.043 18.043 0 0 0-1.162-1.016c.068-2.374-.956-6.375-1.23-7.392-.751-2.78-2.049-5.628-3.757-8.07-2.733-3.933-6.422-7.256-10.863-9.155-1.366-4.814-3.894-9.222-7.515-12.816a15.501 15.501 0 0 0 1.23-3.391c.342-1.424.547-2.848.615-4.272v-.272c2.323-.949 4.304-2.644 5.465-5.018 1.162-2.373 1.435-4.882 1.23-7.391 3.894-4.95 3.758-12.207-.205-16.954-.136-3.73-1.981-7.391-5.055-9.697-1.776-6.374-7.447-10.443-14.21-9.63-1.367-.678-5.397-2.509-10.521-1.695-3.963.61-6.764 2.441-7.993 3.459-1.435 0-5.398.27-9.155 3.119-2.733 2.034-4.031 4.543-4.646 5.832-3.074 1.763-5.465 4.476-6.968 7.595a18.747 18.747 0 0 0-6.08-4.95c-4.304-2.17-9.36-2.713-14.074-1.56-5.875-4.611-13.732-5.493-20.632-2.441-7.378-3.052-15.986-2.51-22.476 2.305-6.08-.746-12.571 0-17.558 2.78-.068-.745-.341-2.17-1.366-3.458-2.255-2.916-6.08-2.78-6.49-2.78a9.612 9.612 0 0 0-2.87-3.459c-1.776-1.356-3.62-1.695-4.509-1.83-3.006-4.476-8.608-6.24-14.073-4.476-4.372-2.238-9.701-2.035-13.39 1.288-7.037-.339-13.459 4.68-14.142 11.732-4.577 4-5.875 11.935-3.006 16.953-1.298 5.222.41 10.85 4.441 14.58 0 3.052.614 5.968 2.596 8.545.41.542.888 1.017 1.366 1.492-4.441 4.204-6.968 10.443-8.471 16.546-8.199 4.611-11.956 13.291-13.459 22.582-4.031 1.424-7.447 4.543-9.496 8.883-2.665 5.697-3.826 12.275-4.236 18.717-3.142 2.17-5.739 5.561-7.173 8.816-2.255 5.154-3.211 10.646-2.938 16.139-5.738 4.747-7.515 14.106-7.515 23.26a36.764 36.764 0 0 0-3.211 7.324c-1.913-.814-3.826-1.424-5.533-1.899-3.485-.881-7.174-1.017-10.795-.61-3.142-2.102-6.626-3.797-10.316-4.543-1.57-.339-3.074-.475-4.577-.543-3.552-3.391-8.54-5.832-13.595-7.392-1.093-1.017-2.118-2.034-3.006-3.051-3.074-3.459-11.41-14.038-18.787-12.342-3.075.678-4.988 3.39-5.26 3.73-2.05 2.915-2.187 6.916-.684 10.85-.137.135-.342.271-.478.407a.813.813 0 0 0-.342.339 7.845 7.845 0 0 0-1.161-.95c-1.503-1.22-6.354-4.001-10.658-2.034-3.006 1.288-4.167 4.204-4.44 4.95-2.118 5.154.956 10.037 1.298 10.579l-.479 1.017c-.546-.203-6.353-2.17-9.7.882-2.392 2.238-2.187 5.764-2.05 7.798.478 11.732 13.253 21.769 16.26 24.074.477 3.255 2.664 14.648 12.775 22.311 4.03 3.051 8.061 4.611 11.067 5.493.615 2.238 2.87 10.036 10.521 15.393 4.85 3.391 9.77 4.273 12.366 4.544 1.298 3.865 5.123 13.02 14.62 19.53 4.03 2.713 7.993 4.205 10.999 5.086-5.124 11.054-5.124 24.074.205 35.06-2.323 3.662-3.553 8.002-3.348 12.749.137 4.068 1.298 8.002 2.801 11.799 1.161 2.78 3.963 6.578 3.894 9.562 0 3.323-1.64 6.51-1.571 9.968.136 3.527.888 6.85 2.254 10.105a29.967 29.967 0 0 0 6.422 9.493c-1.571 6.171.82 13.36 6.832 18.039 4.031 3.119 8.813 5.221 13.868 6.239a335.561 335.561 0 0 1 0 53.708c-.273 2.984 2.597 5.086 5.261 5.222 4.304.271 8.608.339 12.912.271l.41 32.076c0 5.425.478 10.036 7.105 10.104 6.285 0 12.707-.678 18.992-1.085 6.217-.339 6.286-10.037 0-9.698-3.279.204-6.558.339-9.837.543-1.913.136-4.304.542-6.491.678v-6.035c0-3.662-.068-7.256-.136-10.918l-.205-16.14a166.016 166.016 0 0 0 20.085-2.645c2.05-.407 4.167-2.916 3.894-5.018-1.913-14.715-3.347-29.499-4.235-44.35.478-.135 1.024-.339 1.571-.475 3.621 2.781 7.993 4.544 12.502 5.358 1.025 12.816 1.571 25.633 1.571 38.45 0 2.78 2.391 5.289 5.261 5.222 3.894-.068 7.788-.136 11.75-.272l.479 36.348c.068 5.358.478 10.037 7.105 10.105 6.285 0 12.707-.679 18.992-1.085 6.217-.34 6.285-10.037 0-9.698-3.279.204-6.627.339-9.906.543-1.913.068-4.236.542-6.49.678v-6.036c0-3.661-.069-7.256-.137-10.918l-.273-20.208c5.329-.068 10.726-.203 16.054-.339 2.801 0 5.398-2.373 5.261-5.222-.41-12.613-.615-25.226-.752-37.84 4.714 0 9.497-.949 14.006-2.644 5.67 3.119 12.092 4.34 18.445 3.933-1.639 12.342-3.211 24.684-4.85 37.026-.342 2.916 2.732 5.086 5.26 5.222 8.882.474 17.763.339 26.644.135-.205 2.713-.41 5.425-.683 8.138-.615 6.035-1.708 12.139-2.323 13.766-4.031 11.596-14.142 16.14-12.16 20.548.409.881 1.503 2.237 3.074 2.916 1.503.678 2.938.61 4.441.339 3.757-.611 6.968-2.103 11.545-5.29 3.894-2.645 5.192-4.476 6.49-3.933.82.339 1.025 1.356 3.621 7.392.205.474.615 1.424 1.572 1.831.819.339 1.912.339 2.596-.272.956-.746.888-2.237.819-2.644 0-2.306.41-19.192 1.162-43.74 4.645-.203 9.291-.407 13.937-.543 5.328-.135 10.589-.339 15.918-.474a253.247 253.247 0 0 1-.82 9.901c-.615 6.103-1.776 12.138-2.323 13.766-4.031 11.596-14.142 16.139-12.161 20.547.41.882 1.503 2.238 3.075 2.984 1.503.678 2.937.61 4.44.339 3.758-.61 6.969-2.102 11.546-5.289 3.894-2.645 5.192-4.476 6.49-3.934.82.339 1.025 1.357 3.621 7.392.205.475.615 1.424 1.571 1.831.82.339 1.913.339 2.597-.271.956-.746.888-2.238.819-2.645 0-2.373.41-19.869 1.23-45.299 8.471-.204 16.943-.475 25.483-.746 3.415-.136 6.011-3.255 5.123-6.646-4.235-16.14-8.539-32.415-10.93-48.961a19.47 19.47 0 0 0 1.844-2.306c5.534-.814 10.658-5.018 13.595-9.697 4.304-6.849 5.602-15.123 4.168-23.057 4.304-6.51 7.31-13.766 8.471-21.632 1.093-7.46 1.298-16.208-2.733-22.582 3.416-9.765 3.621-20.209.547-30.042.342-1.22.751-2.509 1.093-3.729.478-1.763.888-3.527 1.161-5.29a28.242 28.242 0 0 0 12.161-6.103 24.555 24.555 0 0 0 6.832-9.562c5.26-1.153 10.179-3.933 13.8-7.934 2.733-3.051 4.714-6.51 6.08-10.172 4.236-1.288 8.267-3.797 11.409-7.052 3.553-3.595 6.149-7.663 7.788-12.003 8.267-3.866 13.732-13.021 16.26-22.379 9.223-11.732 13.732-22.378 12.024-27.939v.339ZM310.441 19.585c5.944-4.001 15.508-4.95 20.7.271 3.963 4.001 3.553 9.765 3.416 11.19-.683 9.697-9.701 14.85-10.589 15.393-.82-1.085-1.845-2.238-3.075-3.458-1.434-1.357-2.801-2.51-4.03-3.391 2.254-3.323 4.44-6.578 8.539-8.545 4.646-2.237.342-8.408-4.304-6.17-3.074 1.491-5.602 3.458-7.651 5.967-1.162 1.424-2.118 2.916-3.074 4.476a136.25 136.25 0 0 1-3.895-2.238c-1.298-.814-2.459-1.628-3.552-2.374.478-1.83 2.186-7.46 7.583-11.121h-.068Zm-18.856 42.858a11.08 11.08 0 0 1 5.739-1.627c1.366 0 2.664.203 3.894.745 6.832 2.916 6.695 12.885 6.695 13.36-.137 5.357-3.074 12.749-9.359 14.308-.82.204-1.708.34-2.528.34-2.255 0-4.577-.679-6.422-2.103-6.763-5.29-5.739-20.344 1.913-25.023h.068ZM130.834 453.659c1.093-16.004 1.024-32.008-.274-48.012.82 0 1.708-.136 2.46-.271 3.416 4.068 8.061 6.849 13.595 8.069 3.553.814 7.105.882 10.521.475.82 12.613 1.981 25.227 3.552 37.772-9.906 1.628-19.88 2.17-29.854 1.899v.068Zm49.12-429.463c-4.577-2.848-9.974 3.662-5.329 6.51 3.28 2.035 5.192 5.154 6.354 8.68a93.637 93.637 0 0 0-7.857 6.782c-1.708-1.492-4.577-4.272-6.558-8.68-1.367-2.984-3.894-8.613-1.435-14.309 1.23-2.78 3.348-5.086 6.012-6.646 2.938-1.695 6.422-1.898 9.701-1.085 1.025.272 1.981.61 2.938 1.017 5.397 2.238 9.701 6.036 12.434 11.19.068.135.136.339.273.474-1.571.814-3.279 1.967-5.056 3.391-1.229 1.017-2.322 1.967-3.21 2.916-1.64-4.137-4.305-7.799-8.199-10.24h-.068Zm11.204 39.671c1.845-1.763 4.646-3.051 7.515-3.051.615 0 1.162 0 1.708.135 7.378 1.356 9.36 11.122 9.496 11.596 1.025 5.29-.205 13.088-6.012 15.936a11.234 11.234 0 0 1-4.782 1.085c-1.503 0-3.006-.339-4.304-.949-7.788-3.73-10.043-18.649-3.621-24.82v.068Zm2.596 385.791c-.136-10.986-.683-21.972-1.503-32.958 6.081-.813 11.888-3.119 17.421-5.899 3.28 1.898 6.764 3.322 10.385 4.204 0 11.325.273 22.65.614 34.042l-26.917.611Zm56.294-311.467c-1.708.067-28.693.678-36.823-18.785-6.081-14.647 2.801-30.245 11.75-38.043 2.938-2.577 12.366-10.104 25.961-9.223 12.297.746 20.154 7.934 22.887 10.511 2.391 2.238 16.601 16.14 12.57 32.212-4.031 16.004-23.296 22.853-36.277 23.328h-.068Zm74.33 310.043c-18.173.542-36.619 1.898-54.859 1.356l4.509-34.382c1.707-.678 3.415-1.424 5.055-2.373 14.347 6.985 31.221 5.832 44.953-1.967 3.348 1.289 7.105 1.424 10.658.543 3.142-.814 5.875-2.374 8.334-4.34 8.472 4.747 18.924 5.018 27.464 1.153 2.186 12.884 5.26 25.633 8.608 38.314l-54.722 1.628v.068Z"/></g><defs><clipPath id="ada"><path d="M0 0h494.913v506.418H0z"/></clipPath></defs></symbol><symbol viewBox="0 0 378 386" id="bear-right-bottom" xmlns="http://www.w3.org/2000/svg"><g clip-path="url(#aca)"><path d="M296.086 84.413c.479 0 .888 0 1.23-.136 3.553-.882 5.397-6.171 5.397-9.426 0-1.763-.546-7.188-3.552-8.477-.547-.271-1.162-.339-1.845-.339-1.025 0-2.186.34-3.074.814-2.118 1.288-3.689 4.747-3.894 8.477-.205 3.526.751 6.78 2.527 8.07.82.61 1.982 1.017 3.211 1.017Zm-39.345 22.853c-1.23 1.56-2.528 3.052-3.826 4.543-.819.882-2.391 3.12-3.757 3.188-3.143.135-5.67-6.307-6.764-8.409-2.664-5.29-10.589-.611-7.924 4.611 2.937 5.764 7.173 13.02 14.688 12.952 6.968 0 11.819-7.391 15.576-12.274 3.553-4.679-4.44-9.222-7.925-4.611h-.068Zm-7.247-11.799c4.919-.136 11.546-5.425 11.068-9.02-.752-5.357-4.646-8.07-12.298-8.137-6.831-.272-11.682 4.543-11.067 9.222.547 3.934 6.763 8.138 12.297 8.002v-.067Zm-52.45-11.46c.615.27 1.366.406 2.049.406.888 0 1.708-.203 2.391-.542 3.28-1.628 3.894-7.12 3.211-10.375-.341-1.764-2.118-6.917-5.329-7.528-.273 0-.478-.068-.819-.068-1.367 0-2.87.61-3.894 1.56-1.777 1.695-2.596 5.425-1.982 9.087.547 3.459 2.255 6.442 4.236 7.392l.137.068Z"/><path d="M494.557 179.828c-.342-1.153-1.366-4.408-4.304-5.832-2.664-1.288-5.739-.475-7.993.543l-1.025-.814c1.571-2.645 1.981-5.696 1.025-8.409-.205-.475-1.367-3.594-4.509-4.95-4.373-1.899-9.155.813-10.658 2.034-.341.271-.751.61-1.093.949-.273-.271-.546-.542-.888-.746 1.503-3.865 1.298-7.866-.683-10.782-.273-.339-2.118-3.051-5.261-3.73-7.378-1.695-15.644 8.748-18.787 12.342-.068.136-.273.272-.342.34-4.577 1.491-9.906 5.018-13.048 9.222-3.211.814-6.49 1.221-9.701 2.645-2.255 1.017-4.168 2.306-6.081 3.865-.683.543-1.366 1.017-1.981 1.628-.136.135-1.093.949-1.503 1.356h-.273c-1.161-.068-3.348.407-4.372.543-2.187.339-4.168.881-6.149 1.763-.683.339-1.298.678-1.981 1.017 0-.61-.137-1.221-.205-1.831-.41-2.509-1.298-4.95-2.46-7.188-.751-1.424-2.049-2.781-3.142-4.001.273-1.696.546-3.391.683-5.086.273-3.12.137-6.239-.478-9.291-.547-2.577-1.64-5.221-3.006-7.459-.82-1.289-1.776-2.509-2.801-3.527a14.8 14.8 0 0 1-.957-1.017c0-.746-.068-1.627-.068-2.238 0-1.491-.068-2.916-.273-4.34-.41-3.051-1.162-5.832-2.596-8.612-1.503-2.916-3.758-5.357-6.354-7.256.137-4.001-.478-7.934-1.913-11.732-1.229-3.187-2.801-5.967-4.987-8.612-.683-.882-1.435-1.763-2.254-2.51a18.043 18.043 0 0 0-1.162-1.016c.068-2.374-.956-6.375-1.23-7.392-.751-2.78-2.049-5.628-3.757-8.07-2.733-3.933-6.422-7.256-10.863-9.155-1.366-4.814-3.894-9.222-7.515-12.816a15.501 15.501 0 0 0 1.23-3.391c.342-1.424.547-2.848.615-4.272v-.272c2.323-.949 4.304-2.644 5.465-5.018 1.162-2.373 1.435-4.882 1.23-7.391 3.894-4.95 3.758-12.207-.205-16.954-.136-3.73-1.981-7.391-5.055-9.697-1.776-6.374-7.447-10.443-14.21-9.63-1.367-.678-5.397-2.509-10.521-1.695-3.963.61-6.764 2.441-7.993 3.459-1.435 0-5.398.27-9.155 3.119-2.733 2.034-4.031 4.543-4.646 5.832-3.074 1.763-5.465 4.476-6.968 7.595a18.747 18.747 0 0 0-6.08-4.95c-4.304-2.17-9.36-2.713-14.074-1.56-5.875-4.611-13.732-5.493-20.632-2.441-7.378-3.052-15.986-2.51-22.476 2.305-6.08-.746-12.571 0-17.558 2.78-.068-.745-.341-2.17-1.366-3.458-2.255-2.916-6.08-2.78-6.49-2.78a9.612 9.612 0 0 0-2.87-3.459c-1.776-1.356-3.62-1.695-4.509-1.83-3.006-4.476-8.608-6.24-14.073-4.476-4.372-2.238-9.701-2.035-13.39 1.288-7.037-.339-13.459 4.68-14.142 11.732-4.577 4-5.875 11.935-3.006 16.953-1.298 5.222.41 10.85 4.441 14.58 0 3.052.614 5.968 2.596 8.545.41.542.888 1.017 1.366 1.492-4.441 4.204-6.968 10.443-8.471 16.546-8.199 4.611-11.956 13.291-13.459 22.582-4.031 1.424-7.447 4.543-9.496 8.883-2.665 5.697-3.826 12.275-4.236 18.717-3.142 2.17-5.739 5.561-7.173 8.816-2.255 5.154-3.211 10.646-2.938 16.139-5.738 4.747-7.515 14.106-7.515 23.26a36.764 36.764 0 0 0-3.211 7.324c-1.913-.814-3.826-1.424-5.533-1.899-3.485-.881-7.174-1.017-10.795-.61-3.142-2.102-6.626-3.797-10.316-4.543-1.57-.339-3.074-.475-4.577-.543-3.552-3.391-8.54-5.832-13.595-7.392-1.093-1.017-2.118-2.034-3.006-3.051-3.074-3.459-11.41-14.038-18.787-12.342-3.075.678-4.988 3.39-5.26 3.73-2.05 2.915-2.187 6.916-.684 10.85-.137.135-.342.271-.478.407a.813.813 0 0 0-.342.339 7.845 7.845 0 0 0-1.161-.95c-1.503-1.22-6.354-4.001-10.658-2.034-3.006 1.288-4.167 4.204-4.44 4.95-2.118 5.154.956 10.037 1.298 10.579l-.479 1.017c-.546-.203-6.353-2.17-9.7.882-2.392 2.238-2.187 5.764-2.05 7.798.478 11.732 13.253 21.769 16.26 24.074.477 3.255 2.664 14.648 12.775 22.311 4.03 3.051 8.061 4.611 11.067 5.493.615 2.238 2.87 10.036 10.521 15.393 4.85 3.391 9.77 4.273 12.366 4.544 1.298 3.865 5.123 13.02 14.62 19.53 4.03 2.713 7.993 4.205 10.999 5.086-5.124 11.054-5.124 24.074.205 35.06-2.323 3.662-3.553 8.002-3.348 12.749.137 4.068 1.298 8.002 2.801 11.799 1.161 2.78 3.963 6.578 3.894 9.562 0 3.323-1.64 6.51-1.571 9.968.136 3.527.888 6.85 2.254 10.105a29.967 29.967 0 0 0 6.422 9.493c-1.571 6.171.82 13.36 6.832 18.039 4.031 3.119 8.813 5.221 13.868 6.239a335.561 335.561 0 0 1 0 53.708c-.273 2.984 2.597 5.086 5.261 5.222 4.304.271 8.608.339 12.912.271l.41 32.076c0 5.425.478 10.036 7.105 10.104 6.285 0 12.707-.678 18.992-1.085 6.217-.339 6.286-10.037 0-9.698-3.279.204-6.558.339-9.837.543-1.913.136-4.304.542-6.491.678v-6.035c0-3.662-.068-7.256-.136-10.918l-.205-16.14a166.016 166.016 0 0 0 20.085-2.645c2.05-.407 4.167-2.916 3.894-5.018-1.913-14.715-3.347-29.499-4.235-44.35.478-.135 1.024-.339 1.571-.475 3.621 2.781 7.993 4.544 12.502 5.358 1.025 12.816 1.571 25.633 1.571 38.45 0 2.78 2.391 5.289 5.261 5.222 3.894-.068 7.788-.136 11.75-.272l.479 36.348c.068 5.358.478 10.037 7.105 10.105 6.285 0 12.707-.679 18.992-1.085 6.217-.34 6.285-10.037 0-9.698-3.279.204-6.627.339-9.906.543-1.913.068-4.236.542-6.49.678v-6.036c0-3.661-.069-7.256-.137-10.918l-.273-20.208c5.329-.068 10.726-.203 16.054-.339 2.801 0 5.398-2.373 5.261-5.222-.41-12.613-.615-25.226-.752-37.84 4.714 0 9.497-.949 14.006-2.644 5.67 3.119 12.092 4.34 18.445 3.933-1.639 12.342-3.211 24.684-4.85 37.026-.342 2.916 2.732 5.086 5.26 5.222 8.882.474 17.763.339 26.644.135-.205 2.713-.41 5.425-.683 8.138-.615 6.035-1.708 12.139-2.323 13.766-4.031 11.596-14.142 16.14-12.16 20.548.409.881 1.503 2.237 3.074 2.916 1.503.678 2.938.61 4.441.339 3.757-.611 6.968-2.103 11.545-5.29 3.894-2.645 5.192-4.476 6.49-3.933.82.339 1.025 1.356 3.621 7.392.205.474.615 1.424 1.572 1.831.819.339 1.912.339 2.596-.272.956-.746.888-2.237.819-2.644 0-2.306.41-19.192 1.162-43.74 4.645-.203 9.291-.407 13.937-.543 5.328-.135 10.589-.339 15.918-.474a253.247 253.247 0 0 1-.82 9.901c-.615 6.103-1.776 12.138-2.323 13.766-4.031 11.596-14.142 16.139-12.161 20.547.41.882 1.503 2.238 3.075 2.984 1.503.678 2.937.61 4.44.339 3.758-.61 6.969-2.102 11.546-5.289 3.894-2.645 5.192-4.476 6.49-3.934.82.339 1.025 1.357 3.621 7.392.205.475.615 1.424 1.571 1.831.82.339 1.913.339 2.597-.271.956-.746.888-2.238.819-2.645 0-2.373.41-19.869 1.23-45.299 8.471-.204 16.943-.475 25.483-.746 3.415-.136 6.011-3.255 5.123-6.646-4.235-16.14-8.539-32.415-10.93-48.961a19.47 19.47 0 0 0 1.844-2.306c5.534-.814 10.658-5.018 13.595-9.697 4.304-6.849 5.602-15.123 4.168-23.057 4.304-6.51 7.31-13.766 8.471-21.632 1.093-7.46 1.298-16.208-2.733-22.582 3.416-9.765 3.621-20.209.547-30.042.342-1.22.751-2.509 1.093-3.729.478-1.763.888-3.527 1.161-5.29a28.242 28.242 0 0 0 12.161-6.103 24.555 24.555 0 0 0 6.832-9.562c5.26-1.153 10.179-3.933 13.8-7.934 2.733-3.051 4.714-6.51 6.08-10.172 4.236-1.288 8.267-3.797 11.409-7.052 3.553-3.595 6.149-7.663 7.788-12.003 8.267-3.866 13.732-13.021 16.26-22.379 9.223-11.732 13.732-22.378 12.024-27.939v.339ZM310.441 19.585c5.944-4.001 15.508-4.95 20.7.271 3.963 4.001 3.553 9.765 3.416 11.19-.683 9.697-9.701 14.85-10.589 15.393-.82-1.085-1.845-2.238-3.075-3.458-1.434-1.357-2.801-2.51-4.03-3.391 2.254-3.323 4.44-6.578 8.539-8.545 4.646-2.237.342-8.408-4.304-6.17-3.074 1.491-5.602 3.458-7.651 5.967-1.162 1.424-2.118 2.916-3.074 4.476a136.25 136.25 0 0 1-3.895-2.238c-1.298-.814-2.459-1.628-3.552-2.374.478-1.83 2.186-7.46 7.583-11.121h-.068Zm-18.856 42.858a11.08 11.08 0 0 1 5.739-1.627c1.366 0 2.664.203 3.894.745 6.832 2.916 6.695 12.885 6.695 13.36-.137 5.357-3.074 12.749-9.359 14.308-.82.204-1.708.34-2.528.34-2.255 0-4.577-.679-6.422-2.103-6.763-5.29-5.739-20.344 1.913-25.023h.068ZM130.834 453.659c1.093-16.004 1.024-32.008-.274-48.012.82 0 1.708-.136 2.46-.271 3.416 4.068 8.061 6.849 13.595 8.069 3.553.814 7.105.882 10.521.475.82 12.613 1.981 25.227 3.552 37.772-9.906 1.628-19.88 2.17-29.854 1.899v.068Zm49.12-429.463c-4.577-2.848-9.974 3.662-5.329 6.51 3.28 2.035 5.192 5.154 6.354 8.68a93.637 93.637 0 0 0-7.857 6.782c-1.708-1.492-4.577-4.272-6.558-8.68-1.367-2.984-3.894-8.613-1.435-14.309 1.23-2.78 3.348-5.086 6.012-6.646 2.938-1.695 6.422-1.898 9.701-1.085 1.025.272 1.981.61 2.938 1.017 5.397 2.238 9.701 6.036 12.434 11.19.068.135.136.339.273.474-1.571.814-3.279 1.967-5.056 3.391-1.229 1.017-2.322 1.967-3.21 2.916-1.64-4.137-4.305-7.799-8.199-10.24h-.068Zm11.204 39.671c1.845-1.763 4.646-3.051 7.515-3.051.615 0 1.162 0 1.708.135 7.378 1.356 9.36 11.122 9.496 11.596 1.025 5.29-.205 13.088-6.012 15.936a11.234 11.234 0 0 1-4.782 1.085c-1.503 0-3.006-.339-4.304-.949-7.788-3.73-10.043-18.649-3.621-24.82v.068Zm2.596 385.791c-.136-10.986-.683-21.972-1.503-32.958 6.081-.813 11.888-3.119 17.421-5.899 3.28 1.898 6.764 3.322 10.385 4.204 0 11.325.273 22.65.614 34.042l-26.917.611Zm56.294-311.467c-1.708.067-28.693.678-36.823-18.785-6.081-14.647 2.801-30.245 11.75-38.043 2.938-2.577 12.366-10.104 25.961-9.223 12.297.746 20.154 7.934 22.887 10.511 2.391 2.238 16.601 16.14 12.57 32.212-4.031 16.004-23.296 22.853-36.277 23.328h-.068Zm74.33 310.043c-18.173.542-36.619 1.898-54.859 1.356l4.509-34.382c1.707-.678 3.415-1.424 5.055-2.373 14.347 6.985 31.221 5.832 44.953-1.967 3.348 1.289 7.105 1.424 10.658.543 3.142-.814 5.875-2.374 8.334-4.34 8.472 4.747 18.924 5.018 27.464 1.153 2.186 12.884 5.26 25.633 8.608 38.314l-54.722 1.628v.068Z"/></g><defs><clipPath id="aca"><path d="M0 0h378v386H0z"/></clipPath></defs></symbol><symbol viewBox="0 0 32 32" id="blog" xmlns="http://www.w3.org/2000/svg"><path d="M9.936 26c-.667 0-1.158-.2-1.508-.425-1.358-.883-1.39-2.732-1.408-3.523a96.45 96.45 0 0 1 .792-14.459l1.649.217a94.27 94.27 0 0 0-.775 14.209c.017.816.108 1.807.65 2.157.533.35 1.44.025 1.932-.2 1.466-.666 2.749-1.74 3.74-3.04a10.782 10.782 0 0 1-.55-.674c-.525-.684-1.25-1.741-1.49-2.99-.259-1.35.132-2.699 1.024-3.524 1.09-1.016 2.898-1.016 3.864 0 .683.725.916 1.8.675 3.207a11.48 11.48 0 0 1-1.391 3.815 14.65 14.65 0 0 0 5.155 3.256c.325.117.683.233.908.15.317-.108.525-.666.583-1.566a56.453 56.453 0 0 0-.466-12.035c-.108-.758-.242-1.482-.642-1.957-.558-.658-1.649-.816-2.54-.883a22.924 22.924 0 0 0-7.337.641l-.409-1.615a24.326 24.326 0 0 1 7.871-.692c1.216.092 2.724.342 3.681 1.466.684.808.883 1.824 1.025 2.79.6 4.098.758 8.262.475 12.393-.117 1.658-.683 2.682-1.7 3.032-.716.25-1.424.058-2.023-.158a16.225 16.225 0 0 1-5.539-3.432 11.44 11.44 0 0 1-4.223 3.324c-.8.366-1.474.5-2.023.5V26Zm6.055-11.344c-.309 0-.633.108-.867.325-.458.425-.666 1.208-.516 1.99.133.692.5 1.416 1.174 2.291l.159.208a9.469 9.469 0 0 0 .94-2.781c.1-.592.142-1.383-.24-1.783-.16-.167-.4-.241-.659-.241l.009-.009Z"/></symbol><symbol viewBox="0 0 32 32" id="burger2" xmlns="http://www.w3.org/2000/svg"><path d="m26 8.03-8.066-.53-.28-.03-3.12.06.28-.03L6 8.02v1.95l8.814-.47.281.02 3.12-.059-.28.039L26 9.98V8.03Zm0 7h-8.16l-.28-.03-3.12.059.28-.03L6 15.02v1.952l8.814.01.281.019 3.12-.058-.28.038H26v-1.95Zm0 7-8.1.44-.28-.028-3.12.058.28-.03L6 22.02v1.95l8.874.452.281.02 3.12-.06-.28.04L26 23.98v-1.95Z"/></symbol><symbol viewBox="0 0 32 32" id="call" xmlns="http://www.w3.org/2000/svg"><path d="M12.96 6.05c-1.168-.16-2.35.07-3.273.669-.936.608-1.595 1.592-1.666 2.868-.125 2.214.278 5.27 2.292 8.796 1.985 3.476 4.41 5.64 6.385 6.945 2.314 1.531 5.041.27 6.236-2.002a2.314 2.314 0 0 0-.011-2.175l-1.042-1.932a3.103 3.103 0 0 0-1.604-1.42 3.061 3.061 0 0 0-2.132-.034l-1.369.484c-.326.116-.605.05-.76-.106-.87-.87-1.672-2.334-1.965-3.57-.054-.225.035-.509.297-.735l1.041-.903c.454-.393.765-.928.883-1.52a2.735 2.735 0 0 0-.23-1.748l-1.158-2.343a2.286 2.286 0 0 0-.708-.839 2.254 2.254 0 0 0-1.014-.407l-.203-.029ZM9.254 9.66c.048-.843.468-1.478 1.1-1.89.646-.418 1.525-.607 2.437-.48l.203.027c.338.046.63.258.783.566l1.158 2.343a1.474 1.474 0 0 1-.352 1.759l-1.042.904c-.523.453-.882 1.188-.694 1.976.345 1.453 1.257 3.126 2.297 4.166.577.578 1.394.628 2.04.4l1.368-.485c.415-.147.869-.14 1.28.02.41.16.75.462.962.852l1.043 1.931c.165.309.167.68.005.99-.962 1.827-2.94 2.554-4.468 1.542-1.836-1.214-4.117-3.242-5.99-6.523-1.888-3.305-2.241-6.116-2.13-8.099Z"/><path fill-rule="evenodd" clip-rule="evenodd" d="m13 5.752.202.029a2.55 2.55 0 0 1 1.949 1.411l1.16 2.342c.296.6.386 1.282.255 1.94a3.015 3.015 0 0 1-.981 1.688l-1.042.903c-.194.168-.224.344-.201.44.281 1.183 1.057 2.597 1.885 3.426l-.213.212.212-.212c.056.055.205.122.45.035l1.368-.483a3.36 3.36 0 0 1 2.34.037 3.402 3.402 0 0 1 1.76 1.557m0 0 1.042 1.931a2.614 2.614 0 0 1 .013 2.458c-1.249 2.374-4.159 3.772-6.667 2.112-2.008-1.328-4.47-3.524-6.48-7.046-2.044-3.58-2.46-6.693-2.332-8.961.078-1.38.793-2.448 1.803-3.104.99-.643 2.248-.883 3.477-.715m9.934 17.574c-1.195 2.272-3.923 3.533-6.237 2.002-1.974-1.306-4.4-3.47-6.385-6.945-2.014-3.526-2.417-6.582-2.292-8.795.071-1.277.73-2.261 1.666-2.87.924-.598 2.105-.829 3.272-.668l.203.028c.366.05.714.19 1.014.407.3.218.543.505.708.84l1.159 2.342a2.735 2.735 0 0 1-.654 3.268l-1.041.903c-.261.226-.35.51-.297.736m8.872 6.577L21.88 19.22a3.103 3.103 0 0 0-1.604-1.42 3.06 3.06 0 0 0-2.132-.034m4.778 3.385a2.313 2.313 0 0 1 .012 2.175M12.79 7.289c-.912-.126-1.79.063-2.436.482-.633.411-1.053 1.046-1.1 1.888-.112 1.983.242 4.794 2.13 8.1 1.873 3.28 4.153 5.308 5.99 6.522 1.528 1.012 3.505.285 4.467-1.543.162-.309.16-.68-.005-.988l-1.043-1.932a1.862 1.862 0 0 0-.963-.852 1.837 1.837 0 0 0-1.279-.02l-1.368.484c-.646.229-1.462.179-2.04-.399-1.04-1.04-1.951-2.713-2.297-4.166-.188-.788.171-1.523.694-1.976l1.043-.904a1.473 1.473 0 0 0 .351-1.759l-1.158-2.342a1.031 1.031 0 0 0-.783-.567l-.203-.028Zm1.875 3.07-1.158-2.342a.732.732 0 0 0-.555-.403l-.202-.028c-.85-.117-1.654.061-2.233.437-.559.363-.922.914-.964 1.653m4.833 2.082a1.173 1.173 0 0 0 .279-1.4v.001m-.279 1.4-1.042.903c-.585.508-1.01 1.35-.79 2.273.358 1.504 1.296 3.227 2.377 4.308m3.72-.014-1.368.484c-.724.256-1.672.21-2.352-.47m6.644 3.356a.757.757 0 0 0-.003-.707L20.53 19.96a1.562 1.562 0 0 0-.807-.715 1.536 1.536 0 0 0-1.07-.017m2.923 3.37c-.904 1.718-2.698 2.319-4.036 1.432-1.803-1.192-4.048-3.187-5.895-6.422-1.858-3.251-2.2-6.004-2.091-7.933"/><path d="m20.112 14.68-1.252-1.552A32.125 32.125 0 0 1 24.364 8.8l1.12 1.658a31.785 31.785 0 0 0-5.367 4.217l-.005.004Z"/><path d="m27.076 15.175-1.919-.564a26.518 26.518 0 0 0 1-5.303c.03-.39.026-.62-.026-.693-.091-.094-.593-.18-.866-.22l-.168-.028c-2.135-.35-3.053-.228-5.062.032l-.256-1.988c2.23-.293 3.31-.396 5.634-.02l.154.026c.713.107 1.683.266 2.229 1.105.409.63.381 1.335.335 1.944a28.969 28.969 0 0 1-1.074 5.699l.02.01Z"/></symbol><symbol viewBox="0 0 32 32" id="card" xmlns="http://www.w3.org/2000/svg"><path d="M28.116 12.855c-.193-1.41-.599-2.388-1.272-3.088l-1.327 1.281c.387.406.636 1.051.774 2.056.286 2.102.074 4.333-.203 6.629-.249 2.102-1.162 2.867-3.494 2.913-4.03.083-8.113.083-12.124.019-1.19-.018-2.517-.092-3.18-.692-.572-.525-.812-1.383-.849-1.954v-.138c-.48-3.209-.507-8.086.922-8.898 2.176-1.235 8.731-1.3 13.682-.977.682.046 1.475.102 2.231.221l.286-1.816a27.063 27.063 0 0 0-2.397-.24C18.519 7.996 9.63 7.572 6.45 9.38c-2.932 1.669-2.157 8.667-1.853 10.686.074 1.272.609 2.498 1.448 3.264 1.134 1.041 2.858 1.152 4.397 1.18a362.6 362.6 0 0 0 5.505.046c2.23 0 4.462-.018 6.684-.065 2.047-.037 4.822-.553 5.292-4.536.286-2.415.516-4.776.194-7.09v-.009Z"/><path d="M7.946 19.124a264.156 264.156 0 0 1 16.66.212l.083-1.844a267.672 267.672 0 0 0-16.771-.212l.037 1.844h-.01Zm6.626-4.194.083-1.844a102.904 102.904 0 0 0-6.749-.083l.037 1.844c2.204-.046 4.435-.01 6.63.083Z"/></symbol><symbol viewBox="0 0 32 32" id="cart" xmlns="http://www.w3.org/2000/svg"><path d="M24.73 11.848c-1.008-1.259-2.783-1.217-3.733-1.192h-.034a4.944 4.944 0 0 0-.041-.367c-.275-1.634-1.317-3.092-2.726-3.8-1.533-.776-3.434-.618-4.734.4-1.25.974-1.725 2.491-1.909 3.592-.025.15-.033.291-.05.441-.925.042-1.925.159-2.792.517a2.802 2.802 0 0 0-1.708 2.7l.325 7.644c.033.833.091 2.083.883 2.992 1 1.133 2.659 1.167 3.55 1.183a245.1 245.1 0 0 0 4.293.042c1.742 0 3.476-.025 5.201-.067 1.825-.041 3.784-.4 3.96-4.084.108-2.367.183-4.767.207-7.134.009-.992-.033-2.034-.7-2.867h.009ZM14.488 8.197c.784-.617 2-.709 2.96-.225.933.475 1.641 1.467 1.833 2.592 0 .042 0 .092.008.133l-6.101.159s0-.084.017-.117c.133-.808.466-1.9 1.292-2.55l-.009.008Zm9.068 13.577c-.108 2.334-.875 2.459-2.333 2.5a207.16 207.16 0 0 1-9.427.017c-.883-.016-1.859-.083-2.334-.616-.375-.434-.441-1.142-.475-1.96l-.325-7.642c-.016-.475.25-.917.684-1.092.616-.258 1.375-.35 2.117-.392a9.362 9.362 0 0 0 1.458 4.434l1.4-.908a7.698 7.698 0 0 1-1.191-3.576l6.042-.158a5.118 5.118 0 0 1-.641 1.492l1.4.9c.483-.75.8-1.592.95-2.434h.142c.125 0 .25-.008.366-.008.85 0 1.642.1 2.026.567.325.408.341 1.083.333 1.808-.025 2.35-.091 4.735-.208 7.077l.016-.009Z"/></symbol><symbol viewBox="0 0 32 32" id="cart_full" xmlns="http://www.w3.org/2000/svg"><path d="M24.712 16.695c1.05-1.65-.246-4.007-2.549-3.546-.84.17-1.667.383-2.482.64.318-.257.632-.514.95-.768 1.598-1.296.27-4.1-1.668-4.02-5.9.255-11.113 3.11-14.618 7.813-.764 1.03-.16 2.617.847 3.22a2.164 2.164 0 0 0 1.623.266 3.586 3.586 0 0 0 1.555 2.582c1.21.825 2.347.882 3.423.549l.01.028c.713 1.892 2.45 2.265 4.121 1.886.475 1.217 1.888 2.152 3.395 1.365 3.083-1.607 5.239-4.208 6.529-7.395.462-1.142-.19-2.137-1.142-2.617l.006-.003Z"/><path d="M24.73 11.848c-1.008-1.259-2.783-1.217-3.733-1.192h-.034a4.944 4.944 0 0 0-.041-.367c-.275-1.634-1.317-3.092-2.726-3.8-1.533-.776-3.434-.618-4.734.4-1.25.974-1.725 2.491-1.909 3.592-.025.15-.033.291-.05.441-.925.042-1.925.159-2.792.517a2.802 2.802 0 0 0-1.708 2.7l.325 7.644c.033.833.091 2.083.883 2.992 1 1.133 2.659 1.167 3.55 1.183a245.1 245.1 0 0 0 4.293.042c1.742 0 3.476-.025 5.201-.067 1.825-.041 3.784-.4 3.96-4.084.108-2.367.183-4.767.207-7.134.009-.992-.033-2.034-.7-2.867h.009ZM14.488 8.197c.784-.617 2-.709 2.96-.225.933.475 1.641 1.467 1.833 2.592 0 .042 0 .092.008.133l-6.101.159s0-.084.017-.117c.133-.808.466-1.9 1.292-2.55l-.009.008Zm9.068 13.577c-.108 2.334-.875 2.459-2.333 2.5a207.16 207.16 0 0 1-9.427.017c-.883-.016-1.859-.083-2.334-.616-.375-.434-.441-1.142-.475-1.96l-.325-7.642c-.016-.475.25-.917.684-1.092.616-.258 1.375-.35 2.117-.392a9.362 9.362 0 0 0 1.458 4.434l1.4-.908a7.698 7.698 0 0 1-1.191-3.576l6.042-.158a5.118 5.118 0 0 1-.641 1.492l1.4.9c.483-.75.8-1.592.95-2.434h.142c.125 0 .25-.008.366-.008.85 0 1.642.1 2.026.567.325.408.341 1.083.333 1.808-.025 2.35-.091 4.735-.208 7.077l.016-.009Z"/><path d="M18.833 22.136c-.36 0-.7-.07-1.02-.21a2.471 2.471 0 0 1-.835-.595 2.3 2.3 0 0 1-.505-.91l1.165-.315c.083.286.235.508.455.665.223.153.468.228.735.225a1.2 1.2 0 0 0 1.075-.61c.106-.19.16-.402.16-.635 0-.357-.115-.655-.345-.895-.23-.24-.527-.36-.89-.36-.11 0-.219.015-.325.045a1.4 1.4 0 0 0-.3.125l-.55-.95 2.42-2.07.105.29h-3.425V14.8h4.415v1.14l-1.945 1.87-.01-.355c.436.03.808.151 1.115.365.31.213.546.488.71.825.166.336.25.705.25 1.105 0 .453-.112.86-.335 1.22a2.41 2.41 0 0 1-.89.855c-.37.206-.78.31-1.23.31Zm-8.216-.146v-1.05l3.08-2.745c.24-.213.407-.415.5-.605.094-.19.14-.373.14-.55a1.3 1.3 0 0 0-.155-.64 1.163 1.163 0 0 0-1.055-.615c-.25 0-.472.059-.665.175-.19.114-.338.265-.445.455a1.16 1.16 0 0 0-.15.615h-1.24c0-.48.107-.898.32-1.255.217-.356.514-.633.89-.83.38-.196.819-.295 1.315-.295.46 0 .873.104 1.24.31.367.204.655.487.865.85.21.36.315.775.315 1.245 0 .344-.046.632-.14.865a2.028 2.028 0 0 1-.42.645 9.64 9.64 0 0 1-.685.655l-2.185 1.935-.11-.3h3.54v1.135h-4.955Z"/></symbol><symbol viewBox="0 0 32 32" id="cash" xmlns="http://www.w3.org/2000/svg"><path d="M27.688 12.79c-.19-1.391-.591-2.355-1.255-3.047l-1.31 1.265c.382.4.627 1.037.764 2.029.282 2.074.072 4.276-.2 6.54-.246 2.075-1.147 2.83-3.449 2.876a328.22 328.22 0 0 1-11.963.018c-1.174-.018-2.484-.09-3.139-.682-.564-.519-.8-1.365-.837-1.929v-.136c-.473-3.166-.5-7.98.91-8.78 2.147-1.219 8.616-1.283 13.501-.964.673.045 1.456.1 2.202.218l.282-1.792a26.322 26.322 0 0 0-2.366-.237c-2.61-.173-11.381-.591-14.52 1.192-2.893 1.647-2.129 8.552-1.829 10.544.073 1.256.6 2.466 1.429 3.221 1.119 1.028 2.82 1.137 4.34 1.165 1.8.027 3.611.045 5.43.045 2.203 0 4.404-.018 6.597-.064 2.02-.036 4.758-.545 5.222-4.476.282-2.383.51-4.712.191-6.996v-.01Z"/><path d="M13 17.725v-1.288h4.056c.064 0 .142-.002.234-.006.096-.008.201-.029.317-.062.33-.096.57-.269.718-.519a1.74 1.74 0 0 0 .221-.887c0-.205-.03-.409-.09-.613a1.347 1.347 0 0 0-.293-.55 1.071 1.071 0 0 0-.556-.331 1.362 1.362 0 0 0-.317-.05 6.484 6.484 0 0 0-.234-.007h-2.255V12h2.315c.044 0 .13.002.258.006.131.004.277.019.436.044.495.08.904.252 1.227.519.327.266.568.604.724 1.012.16.404.239.85.239 1.338 0 .746-.181 1.362-.544 1.85-.363.487-.912.79-1.646.906a7.95 7.95 0 0 1-.436.044 9.971 9.971 0 0 1-.258.006H13Zm0 2.05v-1.181h5.103v1.181H13ZM13.856 21v-9h1.441v9h-1.441Z"/></symbol><symbol viewBox="0 0 32 32" id="checkbox-active" xmlns="http://www.w3.org/2000/svg"><path d="M15.847 25c-1.41 0-2.812-.015-4.207-.054-.886-.023-2.534-.062-3.497-1.41-.67-.94-.77-2.142-.81-3.398l-.33-9.193c-.047-1.302.577-2.481 1.594-2.997 1.017-.524 2.219-.624 3.259-.655l8.829-.285c.886-.023 2.704-.085 3.675 1.402.608.925.647 2.104.64 3.236-.024 2.86-.093 5.741-.201 8.577-.146 3.806-1.641 4.63-3.837 4.7-1.695.054-3.405.077-5.115.077ZM21.1 8.541h-.362l-8.837.285c-.87.031-1.856.108-2.604.493-.47.24-.778.886-.755 1.572l.324 9.193c.038 1.01.1 1.965.524 2.558.431.601 1.194.74 2.28.763 3.059.077 6.171.07 9.245-.023 1.24-.039 2.219-.07 2.342-3.221.108-2.82.177-5.687.2-8.53.008-.932-.015-1.819-.385-2.381-.37-.563-1.032-.709-1.972-.709Z"/><path d="M19.601 21.945a123.86 123.86 0 0 1-6.77.017c-.758-.017-1.61-.094-2.108-.793-.413-.576-.46-1.404-.487-2.171l-.235-6.704c-.024-.72.314-1.39.856-1.666.643-.329 1.424-.396 2.136-.417 2.149-.067 4.295-.138 6.443-.206.789-.026 1.697.015 2.191.77.365.558.379 1.334.372 2.05-.02 2.08-.067 4.158-.146 6.238-.099 2.553-.998 2.85-2.252 2.887v-.005Z"/></symbol><symbol viewBox="0 0 32 32" id="checkbox-default" xmlns="http://www.w3.org/2000/svg"><path d="M15.847 25c-1.41 0-2.812-.015-4.207-.054-.886-.023-2.534-.062-3.497-1.41-.67-.94-.77-2.142-.81-3.398l-.33-9.193c-.047-1.302.577-2.481 1.594-2.997 1.017-.524 2.219-.624 3.259-.655l8.829-.285c.886-.023 2.704-.085 3.675 1.402.608.925.647 2.104.64 3.236-.024 2.86-.093 5.741-.201 8.577-.146 3.806-1.641 4.63-3.837 4.7-1.695.054-3.405.077-5.115.077ZM21.1 8.541h-.362l-8.837.285c-.87.031-1.856.108-2.604.493-.47.24-.778.886-.755 1.572l.324 9.193c.038 1.01.1 1.965.524 2.558.431.601 1.194.74 2.28.763 3.059.077 6.171.07 9.245-.023 1.24-.039 2.219-.07 2.342-3.221.108-2.82.177-5.687.2-8.53.008-.932-.015-1.819-.385-2.381-.37-.563-1.032-.709-1.972-.709Z"/></symbol><symbol viewBox="0 0 32 32" id="close2" xmlns="http://www.w3.org/2000/svg"><path d="m20.24 11.199-3.699 3.698-4.391-4.137-1.372 1.457 4.349 4.094-3.96 3.946 1.414 1.414 4.002-3.988 4.384 4.13 1.372-1.457-4.341-4.087 3.655-3.656-1.414-1.414Z"/></symbol><symbol viewBox="0 0 32 32" id="copy" xmlns="http://www.w3.org/2000/svg"><path fill-rule="evenodd" clip-rule="evenodd" d="M24.72 10.951c-.433-.1-.938-.11-1.49-.092h-.005c-3.05.08-6.11.168-9.162.257-1.025.035-1.974.117-2.705.451h-.001c-.414.189-.726.67-.703 1.265v.002l.212 4.966a60.4 60.4 0 0 0 .198 3.159c.062.664.14 1.3.233 1.805.047.254.096.457.142.606.034.11.058.156.062.165.198.24.48.399.877.501.419.108.901.137 1.437.15 3.2.062 6.398.062 9.593-.026l.564-.016v.003c.54-.053.867-.168 1.097-.374.29-.262.624-.86.692-2.395.114-2.619.185-5.228.211-7.846.01-.957-.04-1.626-.358-2.058-.192-.259-.477-.426-.894-.523Zm.4-1.723c.687.16 1.401.497 1.917 1.193l.001.002c.725.982.712 2.275.704 3.123v.003a234.868 234.868 0 0 1-.213 7.906c-.074 1.686-.449 2.889-1.277 3.634-.82.737-1.886.835-2.789.858l-.562.014-.008-.017c-3.04.074-6.079.07-9.114.012h-.005c-.542-.014-1.205-.043-1.839-.206-.647-.168-1.32-.49-1.83-1.126-.18-.225-.287-.508-.355-.725a7.133 7.133 0 0 1-.193-.812 22.946 22.946 0 0 1-.255-1.963 62.1 62.1 0 0 1-.204-3.256l-.213-4.965c-.047-1.228.596-2.426 1.739-2.946 1.09-.498 2.371-.575 3.38-.61h.005c3.052-.089 6.114-.177 9.168-.257.572-.018 1.273-.018 1.944.138Z"/><path fill-rule="evenodd" clip-rule="evenodd" d="M19.334 7.771h-.002l-9.163.266h-.003c-1.016.026-1.958.108-2.7.442-.406.188-.718.671-.695 1.267l.327 8.465c.023.488.048.927.128 1.325.078.394.2.684.372.895.232.282.58.46 1.075.561l-.352 1.735c-.725-.148-1.51-.465-2.092-1.173l-.001-.002c-.42-.515-.626-1.113-.738-1.668-.11-.55-.138-1.12-.16-1.595v-.006l-.328-8.468C4.955 8.589 5.597 7.39 6.73 6.87l.006-.002c1.098-.497 2.366-.574 3.384-.6h.001l9.165-.266h.005a6.593 6.593 0 0 1 2.081.273c.7.22 1.43.61 1.928 1.293l-1.428 1.045c-.2-.274-.546-.498-1.028-.648a4.83 4.83 0 0 0-1.51-.194Z"/></symbol><symbol viewBox="0 0 77 72" id="deco-star" xmlns="http://www.w3.org/2000/svg"><g clip-path="url(#aqa)"><path fill-rule="evenodd" clip-rule="evenodd" d="M29.267 28.753a28.296 28.296 0 0 0 6.022-6.69c2.14-3.312 3.617-6.971 4.581-10.788-.14-3.55.369-7.108 1.385-10.521.348-1.173 2.129-.903 2.125.286a38.98 38.98 0 0 1-.184 3.554 48.065 48.065 0 0 1-1.153 6.903c.068 1.374.248 2.74.548 4.094 1.52 6.835 5.955 12.63 11.605 16.627 5.49 3.885 11.944 6.206 18.566 7.161 1.157.028 2.317.153 3.462.379 1.2.234.92 2.236-.285 2.14a52.153 52.153 0 0 1-3.265-.355 17.443 17.443 0 0 0-5.99.915 15.833 15.833 0 0 0-10.228 11.03c-1.116 4.347-.392 9.038 1.81 12.91a36.81 36.81 0 0 1 1.572 2.318c.64 1.035-.94 2.297-1.701 1.322a21.347 21.347 0 0 1-1.525-2.22c-.044-.057-.084-.114-.128-.17-.044-.056-.084-.113-.128-.17l-.052-.068a.774.774 0 0 1-.052-.068c-.02-.025-.036-.049-.056-.073a32.62 32.62 0 0 0-2.14-2.466c-2.181-2.26-4.702-4.235-7.643-5.416-3.806-1.531-7.807-1.5-11.68-.21a37.647 37.647 0 0 0-14.902 9.305 22.366 22.366 0 0 1-2.797 3.168.425.425 0 0 1-.036.044l-.008-.008c-.436.395-1.084.451-1.528 0-.445-.452-.365-1.08 0-1.544.9-1.14 1.856-2.228 2.873-3.264.308-.43.612-.89.936-1.414 1.724-2.793 2.885-5.972 2.929-9.297.048-3.36-1.056-6.577-2.933-9.325-3.193-4.67-8.351-7.535-13.821-8.47a39.044 39.044 0 0 1-4.334-.339h-.028c-.58-.084-1.08-.44-1.08-1.092a1.1 1.1 0 0 1 1.08-1.088 25.924 25.924 0 0 1 4.738.359c.596.008 1.196.008 1.793-.012 7.622-.218 15.521-2.688 21.591-7.403a.364.364 0 0 1 .064-.044h-.003ZM40.855 6.182c.008-.049.004-.028 0 .02v-.02Z"/></g><defs><clipPath id="aqa"><path d="M0 0h77v72H0z"/></clipPath></defs></symbol><symbol viewBox="0 0 40 86" id="deco-star-2" xmlns="http://www.w3.org/2000/svg"><g clip-path="url(#apa)"><path d="M2.313 37.67c1.628.059 7.248-.127 12.265-7.74 6.785-10.301 6.82-25.66 6.814-27.723.057 2.578.724 24.566 9.721 34.2 2.208 2.359 4.444 3.483 6.42 3.964-2.109.4-7.33 1.947-11.964 9.542-7.625 12.474-7.184 30.673-7.103 33.112 1.715-14.792-.568-29.485-6.124-37.979-3.703-5.648-7.834-6.998-10.024-7.375h-.006Z"/><path d="M2.313 39.995c6.437.185 11.669-4.566 14.815-9.751 3.916-6.449 5.556-14.114 6.274-21.548.203-2.155.325-4.316.319-6.477h-4.647c.105 4.374.562 8.731 1.246 13.047 1.055 6.6 2.781 13.483 6.402 19.184 2.399 3.766 5.782 7.033 10.209 8.17v-4.474c-7.23 1.408-12.364 7.915-15.296 14.247-3.441 7.434-4.901 15.655-5.377 23.784-.127 2.282-.185 4.577-.115 6.86.04 1.251 1.043 2.317 2.323 2.317 1.373 0 2.178-1.066 2.323-2.317.933-8.24.753-16.658-.944-24.786-1.396-6.756-4.015-14.16-9.305-18.888-2.15-1.924-4.75-3.407-7.613-3.917-1.234-.22-2.497.336-2.862 1.623-.307 1.124.382 2.636 1.628 2.856.84.15 1.68.382 2.48.713-.36-.151.313.156.405.202a12.751 12.751 0 0 1 2.208 1.397c2.45 1.97 4.171 4.693 5.51 7.508 2.88 6.078 3.992 13.06 4.316 19.728.226 4.531.052 9.068-.458 13.575h4.635c-.156-4.936.168-9.96.962-14.791 1.28-7.758 3.731-16.287 9.571-21.9a15.418 15.418 0 0 1 4.085-2.857c.157-.076.313-.15.47-.215-.285.128-.122.047.075-.017.266-.093.544-.197.817-.278.452-.14.915-.25 1.373-.342 2.294-.446 2.138-3.928 0-4.473-6.31-1.616-9.346-8.633-11.107-14.264-.933-2.995-1.622-6.078-2.144-9.178a84.695 84.695 0 0 1-.915-7.508 83.59 83.59 0 0 1-.267-4.977c-.063-2.978-4.658-2.996-4.646 0A61.94 61.94 0 0 1 17.66 15.77c-1.397 6.489-4.039 14.322-9.977 18.041-1.27.8-1.947 1.096-3.413 1.42a8.32 8.32 0 0 1-.759.139c.539-.081.064-.012-.191 0-.33.017-.672.029-1.008.017-2.996-.08-2.996 4.554 0 4.641L2.3 40l.012-.005Z"/></g><defs><clipPath id="apa"><path d="M0 0h39.815v85.349H0z"/></clipPath></defs></symbol><symbol viewBox="0 0 32 32" id="delete" xmlns="http://www.w3.org/2000/svg"><path d="M23.168 21.39c-.106 2.732-.873 2.75-2.037 2.785-2.874.08-5.783.088-8.649.027-.978-.027-1.657-.141-2.019-.635-.37-.503-.423-1.35-.458-2.24L9.67 11.92l-1.764.062.335 9.398c.044 1.182.133 2.32.794 3.218.952 1.297 2.539 1.34 3.403 1.358 1.305.035 2.627.044 3.941.044 1.605 0 3.21-.026 4.805-.07 2.151-.062 3.606-.847 3.747-4.48.106-2.6.168-6.585.185-9.204l-1.763-.018c-.026 2.61-.088 6.578-.185 9.152v.01Z"/><path d="m13.466 16.531-1.763.097c.097 1.737.23 3.5.406 5.229l1.754-.177c-.176-1.71-.308-3.438-.396-5.149Zm3.977.053H15.68c0 1.72.026 3.483.106 5.228l1.763-.079a101.15 101.15 0 0 1-.106-5.158v.009Zm2.249-.098c-.177 1.72-.318 3.483-.415 5.229l1.764.097c.097-1.72.229-3.457.405-5.15l-1.754-.184v.008Zm1.323-7.273c.017-.397 0-.794-.062-1.173-.264-1.543-1.243-2.918-2.566-3.58-1.445-.731-3.253-.581-4.478.38-1.182.926-1.632 2.345-1.799 3.377a9.68 9.68 0 0 0-.097 1.005c-2.01.123-4.02.317-6.013.608l.256 1.746a68.4 68.4 0 0 1 5.863-.59 8.724 8.724 0 0 0 1.27 3.332l1.48-.961a6.902 6.902 0 0 1-.978-2.469 75.167 75.167 0 0 1 4.885-.018c-.071.142-.133.283-.221.424l1.49.952c.256-.406.467-.838.626-1.279 1.87.106 3.747.283 5.616.538l.238-1.745a77.163 77.163 0 0 0-5.492-.538l-.018-.01Zm-7.239-.097c.018-.212.036-.423.07-.626.115-.723.415-1.702 1.147-2.275.688-.538 1.755-.617 2.601-.194.829.423 1.455 1.305 1.622 2.301.044.256.053.52.044.794a70.856 70.856 0 0 0-5.475 0h-.009Z"/></symbol><symbol viewBox="0 0 112 24" id="dolyamy" xmlns="http://www.w3.org/2000/svg"><g clip-path="url(#asa)"><path d="M19.878 4h-2.67v13.538h2.67V4Zm-5.736.758h-2.67v13.537h2.67V4.758Zm-5.736.845h-2.67v13.54h2.67V5.603Zm-5.736.855H0V20h2.67V6.458Zm87.718 4.754-4.299-4.78h-2.513V17.5H86.2v-7.06l3.925 4.182h.484l3.857-4.183v7.06h2.624V6.434h-2.513l-4.19 4.78Zm19.202-4.779-6.503 7.192V6.433h-2.624v11.066h2.404l6.503-7.193V17.5h2.624V6.432h-2.404Zm-40.146 4.049c0 1.762.964 3.15 2.443 3.732l-2.773 3.284h3.211l2.523-2.988h2.73v2.989H80.2V6.432h-6.68c-2.49 0-4.077 1.704-4.077 4.049ZM77.58 8.87v3.272h-3.571c-1.192 0-1.83-.664-1.83-1.637 0-.974.66-1.638 1.83-1.638l3.57.003Zm-20.328-.224c-.16 3.806-.963 6.262-2.535 6.262h-.394v2.657l.42.022c3.151.176 4.893-2.59 5.18-8.631h4.145v8.543h2.62V6.432H57.34l-.088 2.213Zm-9.876-2.368c-3.55 0-6.102 2.457-6.102 5.687 0 3.341 2.778 5.71 6.102 5.71 3.461 0 6.15-2.5 6.15-5.71s-2.689-5.687-6.15-5.687Zm0 8.742c-2.006 0-3.372-1.306-3.372-3.055 0-1.792 1.367-3.063 3.372-3.063 2.003 0 3.416 1.329 3.416 3.063 0 1.734-1.432 3.055-3.416 3.055Zm-8.885-8.566h-9.26l-.088 2.213c-.132 3.188-.964 6.22-2.536 6.264l-.727.022V20l2.646-.006V17.5h9.193v2.494h2.669v-5.063H38.49V6.454Zm-2.624 8.477h-5.599c.948-1.438 1.455-3.52 1.543-5.953h4.056v5.953Z"/></g><defs><clipPath id="asa"><path transform="translate(0 4)" d="M0 0h112v16H0z"/></clipPath></defs></symbol><symbol viewBox="0 0 24 24" id="dolyamy2" xmlns="http://www.w3.org/2000/svg"><rect width="24" height="24" rx="12"/><path fill-rule="evenodd" clip-rule="evenodd" d="M16.353 6.776h1.74v7.835h-1.74V6.776Zm-3.483.87h1.742v7.836H12.87V7.647Zm-1.74.871H9.387v7.835h1.742V8.517Zm-5.224.871h1.741v7.835h-1.74V9.388Z"/></symbol><symbol viewBox="0 0 68 20" id="dolyamy3" xmlns="http://www.w3.org/2000/svg"><rect width="68" height="20" rx="4"/><g clip-path="url(#ava)"><path d="M15.94 6h-1.336v6.769h1.335V6Zm-2.869.379h-1.335v6.769h1.335v-6.77Zm-2.868.423H8.868v6.77h1.335v-6.77Zm-2.868.428H6V14h1.335V7.23Zm43.859 2.377-2.15-2.39h-1.256v5.533H49.1V9.22l1.962 2.091h.243l1.928-2.091v3.53h1.312V7.217H53.29l-2.095 2.39Zm9.601-2.39-3.252 3.596V7.217h-1.311v5.533h1.202l3.251-3.596v3.596h1.312V7.217h-1.202ZM40.722 9.241c0 .881.482 1.575 1.221 1.866l-1.386 1.643h1.605l1.262-1.495h1.365v1.495H46.1V7.217h-3.34c-1.245 0-2.038.852-2.038 2.024Zm4.067-.805v1.636h-1.785c-.596 0-.915-.332-.915-.82 0-.486.33-.818.915-.818l1.785.002Zm-10.163-.113c-.08 1.903-.482 3.132-1.268 3.132h-.196v1.328l.21.011c1.575.088 2.446-1.295 2.59-4.316h2.072v4.272h1.31V7.217H34.67l-.044 1.106ZM29.688 7.14c-1.775 0-3.051 1.228-3.051 2.843 0 1.67 1.389 2.855 3.05 2.855 1.732 0 3.076-1.25 3.076-2.855S31.42 7.14 29.689 7.14Zm0 4.37c-1.003 0-1.686-.653-1.686-1.527 0-.896.684-1.531 1.686-1.531 1.002 0 1.708.664 1.708 1.531 0 .867-.716 1.527-1.708 1.527Zm-4.442-4.283h-4.63l-.045 1.107c-.066 1.594-.481 3.11-1.267 3.132l-.364.011V14l1.323-.002V12.75h4.596v1.247h1.335v-2.532h-.948V7.227Zm-1.312 4.239h-2.8c.474-.72.727-1.76.772-2.977h2.028v2.977Z"/></g><defs><clipPath id="ava"><path transform="translate(6 6)" d="M0 0h56v8H0z"/></clipPath></defs></symbol><symbol viewBox="0 0 32 32" id="dolyamy3-1" xmlns="http://www.w3.org/2000/svg"><rect width="32" height="32" rx="16"/><path d="M25 8.756h-2.417v12.258H25V8.756Zm-5.194.686h-2.418V21.7h2.418V9.442Zm-5.194.766h-2.418v12.26h2.418v-12.26Zm-5.195.774H7v12.262h2.417V10.982Z"/></symbol><symbol viewBox="0 0 32 32" id="exit" xmlns="http://www.w3.org/2000/svg"><path d="M19.623 24.269c1.268-1.052 1.223-2.878 1.196-3.858l-1.798.045c.027.998-.027 1.996-.549 2.428-.378.315-1.034.333-1.726.324-2.33-.027-4.685-.1-7.015-.207-2.257-.108-2.374-.845-2.41-2.356-.072-3.21-.08-6.466-.018-9.676.018-.9.081-1.898.603-2.374.405-.369 1.097-.432 1.888-.468l7.581-.332c.432-.018.836.251 1.007.665.315.791.387 1.834.405 2.752l1.798-.045c-.027-1.08-.108-2.32-.54-3.381a2.837 2.837 0 0 0-2.75-1.79l-7.582.333c-.836.036-2.095.09-3.021.935-1.142 1.034-1.17 2.752-1.187 3.669-.027 1.466-.045 2.94-.045 4.406 0 1.79.018 3.57.063 5.342.045 2.032.575 3.939 4.118 4.11 2.348.116 4.73.188 7.087.215.998.01 2.05-.036 2.904-.746l-.009.009Z"/><path d="M23.716 14.862a77.248 77.248 0 0 0-7.221.225l.144 1.79a74.578 74.578 0 0 1 7.095-.216 18.13 18.13 0 0 1-2.275 1.555l.89 1.565a20.069 20.069 0 0 0 3.255-2.31c.243-.217.71-.621.828-1.242.17-.881-.45-1.6-.72-1.906a20.602 20.602 0 0 0-3.318-3.04l-1.07 1.448c.872.639 1.654 1.367 2.392 2.122v.01Z"/></symbol><symbol viewBox="0 0 283 269" id="fairy-bear" xmlns="http://www.w3.org/2000/svg"><g clip-path="url(#axa)"><path d="M170.271 79.68c.21 0 .39 0 .55-.06 1.57-.39 2.39-2.75 2.39-4.21 0-.79-.24-3.21-1.57-3.78-.24-.12-.52-.15-.82-.15-.45 0-.97.15-1.36.36-.94.57-1.63 2.12-1.73 3.78-.09 1.57.33 3.03 1.12 3.6.36.27.88.45 1.42.45v.01Zm-17.43 10.2c-.55.7-1.12 1.36-1.69 2.03-.36.39-1.06 1.39-1.66 1.42-1.39.06-2.51-2.81-3-3.75-1.18-2.36-4.69-.27-3.51 2.06 1.3 2.57 3.18 5.81 6.51 5.78 3.09 0 5.24-3.3 6.9-5.48 1.57-2.09-1.97-4.12-3.51-2.06h-.04Zm-3.21-5.27c2.18-.06 5.12-2.42 4.9-4.03-.33-2.39-2.06-3.6-5.45-3.63-3.03-.12-5.18 2.03-4.9 4.12.24 1.76 3 3.63 5.45 3.57v-.03Zm-23.251-5.12c.27.12.6.18.91.18.39 0 .76-.09 1.06-.24 1.45-.73 1.73-3.18 1.42-4.63-.15-.79-.94-3.09-2.36-3.36-.12 0-.21-.03-.36-.03-.6 0-1.27.27-1.73.7-.79.76-1.15 2.42-.88 4.06.24 1.54 1 2.87 1.88 3.3l.06.03v-.01Z"/><path d="M258.201 122.26c-.15-.52-.61-1.97-1.91-2.6-1.18-.58-2.54-.21-3.54.24l-.45-.36c.7-1.18.88-2.54.45-3.75-.09-.21-.61-1.6-2-2.21-1.94-.85-4.06.36-4.72.91-.15.12-.33.27-.48.42-.12-.12-.24-.24-.39-.33.67-1.73.58-3.51-.3-4.81-.12-.15-.94-1.36-2.33-1.66-3.27-.76-6.93 3.91-8.32 5.51-.03.06-.12.12-.15.15-2.03.67-4.39 2.24-5.78 4.12-1.42.36-2.87.54-4.3 1.18-1 .45-1.85 1.03-2.69 1.73-.3.24-.61.45-.88.73-.06.06-.48.42-.67.6h-.12c-.52-.03-1.48.18-1.94.24-.97.15-1.85.39-2.72.79-.3.15-.58.3-.88.45 0-.27-.06-.54-.09-.82-.18-1.12-.57-2.21-1.09-3.21-.33-.64-.91-1.24-1.39-1.79.12-.76.24-1.51.3-2.27.12-1.39.06-2.78-.21-4.15-.24-1.15-.73-2.33-1.33-3.33-.36-.57-.79-1.12-1.24-1.57-.12-.12-.27-.27-.42-.45 0-.33-.03-.73-.03-1 0-.66-.03-1.3-.12-1.94-.18-1.36-.52-2.6-1.15-3.84-.66-1.3-1.66-2.39-2.81-3.24a13.4 13.4 0 0 0-.85-5.23 13.38 13.38 0 0 0-2.21-3.84c-.3-.39-.64-.79-1-1.12-.15-.15-.33-.3-.51-.45.03-1.06-.42-2.85-.55-3.3-.33-1.24-.91-2.51-1.66-3.6-1.21-1.76-2.84-3.24-4.81-4.09-.61-2.15-1.73-4.12-3.33-5.72.24-.48.42-1 .54-1.51.15-.63.24-1.27.27-1.91v-.12c1.03-.42 1.91-1.18 2.42-2.24.51-1.06.63-2.18.54-3.3 1.73-2.21 1.66-5.45-.09-7.57-.06-1.66-.88-3.3-2.24-4.33-.79-2.85-3.3-4.66-6.3-4.3-.6-.3-2.39-1.12-4.66-.76-1.76.27-3 1.09-3.54 1.54-.63 0-2.39.12-4.05 1.39-1.21.91-1.79 2.03-2.06 2.6-1.36.79-2.42 2-3.09 3.39a8.376 8.376 0 0 0-2.69-2.21c-1.91-.97-4.15-1.21-6.23-.7-2.6-2.06-6.08-2.45-9.14-1.09-3.27-1.36-7.08-1.12-9.96 1.03-2.69-.33-5.57 0-7.78 1.24-.03-.33-.15-.97-.6-1.54-1-1.3-2.69-1.24-2.87-1.24-.18-.36-.55-1-1.27-1.54-.79-.61-1.6-.76-2-.82-1.33-2-3.81-2.78-6.23-2-1.94-1-4.3-.91-5.93.57-3.12-.15-5.96 2.09-6.27 5.24-2.03 1.79-2.6 5.33-1.33 7.57-.58 2.33.18 4.84 1.97 6.51 0 1.36.27 2.66 1.15 3.81.18.24.39.45.61.66-1.97 1.88-3.09 4.66-3.75 7.39-3.63 2.06-5.3 5.93-5.96 10.08-1.79.64-3.3 2.03-4.21 3.97-1.18 2.54-1.69 5.48-1.88 8.35-1.39.97-2.54 2.48-3.18 3.94-1 2.3-1.42 4.75-1.3 7.2-2.54 2.12-3.33 6.3-3.33 10.38-.61 1.06-1.06 2.12-1.42 3.27-.85-.36-1.69-.64-2.45-.85-1.54-.39-3.18-.45-4.78-.27-1.39-.94-2.94-1.69-4.57-2.03-.7-.15-1.36-.21-2.03-.24-1.57-1.51-3.78-2.6-6.02-3.3-.48-.45-.94-.91-1.33-1.36-1.36-1.54-5.05-6.26-8.32-5.51-1.36.3-2.21 1.51-2.33 1.66-.91 1.3-.97 3.09-.3 4.84-.06.06-.15.12-.21.18-.06.03-.12.09-.15.15-.15-.15-.33-.3-.51-.42-.67-.55-2.82-1.79-4.72-.91-1.33.58-1.85 1.88-1.97 2.21-.94 2.3.42 4.48.57 4.72l-.21.45c-.24-.09-2.81-.97-4.3.39-1.06 1-.97 2.57-.91 3.48.21 5.24 5.87 9.72 7.2 10.74.21 1.45 1.18 6.54 5.66 9.96a15.04 15.04 0 0 0 4.9 2.45c.27 1 1.27 4.48 4.66 6.87 2.15 1.51 4.33 1.91 5.48 2.03.58 1.73 2.27 5.81 6.48 8.72 1.79 1.21 3.54 1.88 4.87 2.27-2.27 4.93-2.27 10.74.09 15.65-1.03 1.63-1.57 3.57-1.48 5.69.06 1.82.58 3.57 1.24 5.27.51 1.24 1.76 2.94 1.73 4.27 0 1.48-.73 2.91-.7 4.45.06 1.57.39 3.06 1 4.51a13.36 13.36 0 0 0 2.85 4.24c-.7 2.75.36 5.96 3.03 8.05 1.79 1.39 3.91 2.33 6.14 2.79.64 7.99.64 15.98 0 23.97-.12 1.33 1.15 2.27 2.33 2.33 1.91.12 3.81.15 5.72.12l.18 14.32c0 2.42.21 4.48 3.15 4.51 2.78 0 5.63-.3 8.41-.48 2.75-.15 2.78-4.48 0-4.33-1.45.09-2.91.15-4.36.24-.85.06-1.91.24-2.87.3v-2.69c0-1.63-.03-3.24-.06-4.87l-.09-7.2c3-.21 5.96-.6 8.9-1.18.91-.18 1.85-1.3 1.73-2.24-.85-6.57-1.48-13.17-1.88-19.79.21-.06.45-.15.7-.21 1.6 1.24 3.54 2.03 5.54 2.39.45 5.72.7 11.44.7 17.16 0 1.24 1.06 2.36 2.33 2.33 1.73-.03 3.45-.06 5.21-.12l.21 16.22c.03 2.39.21 4.48 3.15 4.51 2.78 0 5.63-.3 8.41-.48 2.75-.15 2.78-4.48 0-4.33-1.45.09-2.94.15-4.39.24-.85.03-1.88.24-2.87.3v-2.69c0-1.63-.03-3.24-.06-4.87l-.12-9.02c2.36-.03 4.75-.09 7.11-.15 1.24 0 2.39-1.06 2.33-2.33-.18-5.63-.27-11.26-.33-16.89 2.09 0 4.21-.42 6.2-1.18 2.51 1.39 5.36 1.94 8.17 1.76-.73 5.51-1.42 11.02-2.15 16.53-.15 1.3 1.21 2.27 2.33 2.33 3.94.21 7.87.15 11.8.06-.09 1.21-.18 2.42-.3 3.63-.27 2.69-.76 5.42-1.03 6.15-1.79 5.18-6.26 7.2-5.39 9.17.18.39.67 1 1.36 1.3.66.3 1.3.27 1.97.15 1.66-.27 3.09-.94 5.12-2.36 1.73-1.18 2.3-2 2.88-1.76.36.15.45.6 1.6 3.3.09.21.27.63.7.82.36.15.85.15 1.15-.12.42-.33.39-1 .36-1.18 0-1.03.18-8.57.52-19.52 2.06-.09 4.12-.18 6.18-.24 2.36-.06 4.69-.15 7.05-.21-.09 1.45-.21 2.94-.36 4.42-.27 2.73-.79 5.42-1.03 6.15-1.79 5.18-6.26 7.2-5.39 9.17.18.39.67 1 1.36 1.33.66.3 1.3.27 1.97.15 1.67-.27 3.09-.94 5.12-2.36 1.73-1.18 2.3-2 2.88-1.76.36.15.45.6 1.6 3.3.09.21.27.63.7.82.36.15.85.15 1.15-.12.42-.33.39-1 .36-1.18 0-1.06.18-8.87.54-20.22 3.75-.09 7.51-.21 11.29-.33 1.51-.06 2.66-1.45 2.27-2.97-1.88-7.2-3.78-14.47-4.84-21.85.3-.33.58-.67.82-1.03 2.45-.36 4.72-2.24 6.02-4.33 1.91-3.06 2.48-6.75 1.85-10.29 1.91-2.91 3.24-6.15 3.75-9.66.48-3.33.58-7.23-1.21-10.08 1.51-4.36 1.6-9.02.24-13.41.15-.55.33-1.12.48-1.66.21-.79.39-1.57.52-2.36 2-.45 3.84-1.39 5.39-2.72 1.39-1.21 2.39-2.66 3.03-4.27 2.33-.51 4.51-1.76 6.11-3.54 1.21-1.36 2.09-2.91 2.69-4.54 1.88-.57 3.66-1.69 5.05-3.15 1.57-1.6 2.72-3.42 3.45-5.36 3.66-1.73 6.08-5.81 7.2-9.99 4.09-5.24 6.08-9.99 5.33-12.47v.15l-.07-.03Zm-81.57-71.52c2.63-1.79 6.87-2.21 9.17.12 1.76 1.79 1.57 4.36 1.51 4.99-.3 4.33-4.3 6.63-4.69 6.87-.36-.48-.82-1-1.36-1.54-.63-.61-1.24-1.12-1.79-1.51 1-1.48 1.97-2.94 3.78-3.81 2.06-1 .15-3.75-1.91-2.76-1.36.67-2.48 1.55-3.39 2.66-.51.64-.94 1.3-1.36 2-.55-.3-1.12-.64-1.73-1-.57-.36-1.09-.73-1.57-1.06.21-.82.97-3.33 3.36-4.96h-.03.01Zm-8.36 19.13c.73-.45 1.63-.73 2.54-.73.6 0 1.18.09 1.73.33 3.03 1.3 2.97 5.75 2.97 5.96-.06 2.39-1.36 5.69-4.15 6.39-.36.09-.76.15-1.12.15-1 0-2.03-.3-2.84-.94-3-2.36-2.54-9.08.85-11.17h.03l-.01.01Zm-71.22 174.61c.48-7.14.45-14.29-.12-21.43.36 0 .76-.06 1.09-.12 1.51 1.82 3.57 3.06 6.02 3.6 1.58.36 3.15.39 4.66.21.36 5.63.88 11.26 1.57 16.86-4.39.73-8.81.97-13.23.85v.03h.01ZM118.81 52.8c-2.03-1.27-4.42 1.63-2.36 2.91 1.45.91 2.3 2.3 2.82 3.87-1.21.94-2.39 1.97-3.48 3.03-.76-.67-2.03-1.91-2.91-3.87-.6-1.33-1.73-3.84-.63-6.39.54-1.24 1.48-2.27 2.66-2.97 1.3-.76 2.85-.85 4.3-.48.45.12.88.27 1.3.45 2.39 1 4.3 2.69 5.51 4.99.03.06.06.15.12.21-.7.36-1.45.88-2.24 1.51-.55.45-1.03.88-1.42 1.3-.73-1.85-1.91-3.48-3.63-4.57h-.03l-.01.01Zm4.97 17.7c.82-.79 2.06-1.36 3.33-1.36.27 0 .52 0 .76.06 3.27.61 4.15 4.96 4.21 5.18.45 2.36-.09 5.84-2.66 7.11-.64.3-1.36.48-2.12.48-.67 0-1.33-.15-1.91-.42-3.45-1.66-4.45-8.32-1.6-11.08v.03h-.01Zm1.15 172.2c-.06-4.9-.3-9.81-.66-14.71 2.69-.36 5.27-1.39 7.72-2.63 1.45.85 3 1.48 4.6 1.88 0 5.05.12 10.11.27 15.19l-11.93.27Zm24.94-139.02c-.76.03-12.71.3-16.32-8.38-2.69-6.54 1.24-13.5 5.21-16.98 1.3-1.15 5.48-4.51 11.5-4.12 5.45.33 8.93 3.54 10.14 4.69 1.06 1 7.35 7.2 5.57 14.38-1.79 7.14-10.32 10.2-16.07 10.41h-.03Zm32.93 138.41c-8.05.24-16.22.85-24.31.61.66-5.12 1.33-10.23 2-15.35.76-.3 1.51-.64 2.24-1.06 6.36 3.12 13.83 2.6 19.92-.88 1.48.58 3.15.64 4.72.24 1.39-.36 2.6-1.06 3.69-1.94 3.75 2.12 8.38 2.24 12.17.52.97 5.75 2.33 11.44 3.81 17.1l-24.24.73v.03Z"/><path d="M56.3 121.52 26.8 67.46c2.2.31 4.41.63 6.61.94 3.15.45 5.09-3.33 2.71-5.54-2.18-2.03-4.4-4.02-6.63-6C31 53.81 32.53 50.77 34 47.7c1.13-2.35-1.26-5.48-3.87-4.42-3.68 1.48-7.3 3.1-10.86 4.83-1.57-1.3-3.15-2.59-4.74-3.86-2.09-1.67-5.48-.22-5.27 2.61.15 2.08.36 4.16.54 6.24-2.86 1.62-5.67 3.32-8.43 5.1-2.24 1.45-1.61 5.38 1.15 5.78l8.4 1.2c.38 3.7.77 7.4 1.21 11.09.05.4.17.75.32 1.06.24 2.89 4.54 3.89 6.05 1.04 1.16-2.18 2.28-4.38 3.41-6.58 9.61 17.62 19.22 35.23 28.84 52.85 1.96 3.6 7.53.47 5.55-3.14v.02Zm47.452-36.83c-6.14-15.3-14.93-33.1-32.23-37.95-3.61-1.01-7.94-1.13-11.13 1.12-3.51 2.46-4.49 6.6-3.87 10.66.6 3.93 2.55 7.65 4.56 11.03 2.11 3.55 4.63 6.88 7.34 10 3.27 3.75 6.86 7.18 10.61 10.45-3.93.87-7.53 3.89-8.18 7.97-.74 4.69 2.58 8.57 6.21 11.04 3.83 2.61 8.7 3.75 13.29 3.21 1.71-.2 3.19-1.32 3.19-3.19 0-1.57-1.47-3.39-3.19-3.19-2.81.33-5.61.04-8.17-1.22-1.87-.91-5.02-2.86-5.08-5.26-.04-2.01 2.48-3.16 4.16-3.28 3.04-.22 6.02 1.51 8.61 2.87 3.03 1.59 6.82-2.63 3.86-5.01-10.83-8.71-22.23-17.82-28.71-30.41-1.27-2.47-2.97-5.79-2.19-8.65.73-2.7 3.91-2.68 6.15-2.17 6.52 1.47 12.14 6.16 16.36 11.14 5.55 6.56 9.08 14.65 12.26 22.56.64 1.6 2.13 2.72 3.92 2.23 1.52-.42 2.87-2.32 2.23-3.92v-.03Zm137.066-36.43c-3.31-2.42-7.64-2.53-11.53-1.83-8.4 1.52-16.09 7.08-21.8 13.21-7.46 7.99-12.4 17.83-17.21 27.54-1.82 3.67 3.68 6.9 5.51 3.22 6.86-13.85 14.57-29.53 29.57-36.06 2.79-1.21 6.09-2.29 9.18-1.86 3.41.48 4.81 3.32 4 6.55-.91 3.67-3.61 7.07-5.98 9.94-2.43 2.93-5.13 5.63-7.99 8.15-5.52 4.85-11.62 8.96-17.8 12.93-1.33.75-2.62 1.59-3.86 2.47-3.31 2.33-.29 7.74 3.22 5.51 1.58-1.01 3.16-2.02 4.74-3.04 1.24-.61 2.54-1.03 3.91-1.05 2.5-.02 4.69 1.51 3.91 4.19-.88 3.03-3.79 5.35-6.3 7.02-2.89 1.93-6 3.28-9.37 4.13-3.98 1.01-2.29 7.17 1.7 6.15 4.9-1.25 9.42-3.49 13.39-6.62 3.7-2.92 7.28-7.15 7.15-12.15-.1-3.57-2.27-6.39-5.25-7.89 2.86-2.06 5.66-4.21 8.33-6.51 3.47-2.98 6.71-6.22 9.56-9.81 2.82-3.56 5.86-7.55 6.87-12.07 1-4.49-.1-9.32-3.94-12.13l-.01.01Zm39.901 35.82c-2.17-.87-4.52-.96-6.73-1.68-1.99-.65-2.7-1.77-2.77-3.82-.11-3.55-.05-7.12 0-10.69.08-1.66.09-3.32.06-4.96-.06-3.56-5.52-3.57-5.54 0l-.02 3.21c-.23 7.41-2 16.25-10.23 17.96-3.49.72-2.01 6.06 1.47 5.34.34-.07.67-.18 1.01-.28.16.1.34.19.53.27 4.35 1.66 6.39 6.08 5.66 10.39-.12.59-.26 1.18-.45 1.75-1.13 3.4 4.16 4.8 5.34 1.47.69-1.96.95-3.94.83-5.85.11-2.02.25-4.03.98-5.9 1.46-3.71 5.3-2.71 8.37-1.85 3.52.98 4.7-4.05 1.47-5.34l.02-.02ZM60.818 191.16c-.82-.17-1.61-.18-2.38-.07-1.13-.34-2.11-1.31-2.63-2.34-.48-.94-.67-1.99-.72-3.06.31-1.27.41-2.61.25-3.96-.27-2.32-3.31-2.3-3.6 0-.14 1.08-.23 2.21-.23 3.34-.8 3.01-3.2 5.33-6.54 5.97-2.27.44-1.31 3.91.96 3.47.17-.03.34-.08.51-.12.2.1.44.17.69.19 1.56.17 2.78 1.59 3.36 2.94.6 1.39.71 2.93.69 4.45-.03.57-.05 1.14-.06 1.69-.05 2.33 3.49 2.31 3.6 0 .03-.53.04-1.06.04-1.6.06-1.73.25-3.51 1.07-5.02.54-.99 1.48-1.96 2.59-2.32a6.4 6.4 0 0 0 2.38-.1c1.7-.39 1.74-3.11 0-3.47l.02.01Zm38.603-176.4a8.823 8.823 0 0 0-3.15-.09c-1.5-.45-2.78-1.73-3.47-3.1-.63-1.25-.88-2.63-.96-4.05.4-1.68.54-3.44.33-5.24-.36-3.07-4.38-3.05-4.76 0-.18 1.43-.3 2.92-.3 4.41-1.06 3.98-4.23 7.05-8.64 7.89-3.01.58-1.73 5.17 1.27 4.59.23-.04.45-.11.67-.16.27.13.58.22.92.26 2.06.22 3.68 2.1 4.45 3.89.79 1.83.94 3.87.92 5.88-.03.75-.06 1.5-.08 2.24-.07 3.08 4.61 3.05 4.76 0 .03-.7.05-1.4.05-2.11.08-2.29.33-4.64 1.41-6.64.71-1.31 1.96-2.59 3.43-3.07 1.02.14 2.08.12 3.15-.13 2.25-.51 2.3-4.11 0-4.59v.02Z"/></g><defs><clipPath id="axa"><path d="M0 0h282.61v268.03H0z"/></clipPath></defs></symbol><symbol viewBox="0 0 32 32" id="favorite" xmlns="http://www.w3.org/2000/svg"><path d="M15.811 26a26.752 26.752 0 0 1-8.774-8.507c-.853-1.325-1.982-3.36-2.035-5.645-.054-2.392 1.253-4.614 3.173-5.405 1.743-.72 3.885-.347 6.205 1.067.338.204.658.417.951.63 1.103-.941 2.285-1.582 3.512-1.91 2.862-.765 5.92.435 7.111 2.782.756 1.485.872 3.342.311 5.094-1.217 3.858-3.653 6.463-6.48 9.485l-.062.071-1.298-1.218.062-.071c2.783-2.978 4.987-5.325 6.08-8.8.41-1.299.33-2.694-.204-3.752-.898-1.77-3.289-2.338-5.067-1.867-.987.258-1.858.774-2.622 1.387.417.453.746.933.995 1.449.836 1.716.587 3.742-.595 4.925-.72.72-1.832 1.049-2.898.87-.952-.16-1.716-.71-2.098-1.51-.57-1.183-.285-2.596.835-4.214a16.02 16.02 0 0 1 1.13-1.449c-.187-.124-.383-.258-.587-.382-1.263-.774-3.085-1.565-4.596-.943-1.467.605-2.107 2.356-2.072 3.716.036 1.396.596 2.898 1.76 4.73a24.958 24.958 0 0 0 8.188 7.938L15.82 26h-.009Zm-.426-15.432c-.392.444-.73.889-1.023 1.306-.498.72-1.03 1.734-.693 2.436.178.365.578.49.8.525.498.089 1.022-.063 1.342-.374.738-.738.685-2.009.258-2.889a4.379 4.379 0 0 0-.675-.995l-.01-.01Z"/></symbol><symbol viewBox="0 0 32 32" id="favorite_full" xmlns="http://www.w3.org/2000/svg"><path d="M24.712 13.695c1.05-1.65-.246-4.007-2.549-3.546-.84.17-1.667.383-2.482.64.318-.257.632-.514.95-.768 1.598-1.296.27-4.1-1.668-4.02-5.9.255-11.113 3.11-14.618 7.813-.764 1.03-.16 2.617.847 3.22a2.164 2.164 0 0 0 1.623.266 3.586 3.586 0 0 0 1.555 2.582c1.21.825 2.347.882 3.423.549l.01.028c.713 1.892 2.45 2.265 4.121 1.886.475 1.217 1.888 2.152 3.395 1.365 3.083-1.607 5.239-4.208 6.529-7.395.462-1.142-.19-2.137-1.142-2.617l.006-.003Z"/><path d="M15.811 26a26.752 26.752 0 0 1-8.774-8.507c-.853-1.325-1.982-3.36-2.035-5.645-.054-2.392 1.253-4.614 3.173-5.405 1.743-.72 3.885-.347 6.205 1.067.338.204.658.417.951.63 1.103-.941 2.285-1.582 3.512-1.91 2.862-.765 5.92.435 7.111 2.782.756 1.485.872 3.342.311 5.094-1.217 3.858-3.653 6.463-6.48 9.485l-.062.071-1.298-1.218.062-.071c2.783-2.978 4.987-5.325 6.08-8.8.41-1.299.33-2.694-.204-3.752-.898-1.77-3.289-2.338-5.067-1.867-.987.258-1.858.774-2.622 1.387.417.453.746.933.995 1.449.836 1.716.587 3.742-.595 4.925-.72.72-1.832 1.049-2.898.87-.952-.16-1.716-.71-2.098-1.51-.57-1.183-.285-2.596.835-4.214a16.02 16.02 0 0 1 1.13-1.449c-.187-.124-.383-.258-.587-.382-1.263-.774-3.085-1.565-4.596-.943-1.467.605-2.107 2.356-2.072 3.716.036 1.396.596 2.898 1.76 4.73a24.958 24.958 0 0 0 8.188 7.938L15.82 26h-.009Zm-.426-15.432c-.392.444-.73.889-1.023 1.306-.498.72-1.03 1.734-.693 2.436.178.365.578.49.8.525.498.089 1.022-.063 1.342-.374.738-.738.685-2.009.258-2.889a4.379 4.379 0 0 0-.675-.995l-.01-.01Z"/></symbol><symbol viewBox="0 0 32 32" id="info" xmlns="http://www.w3.org/2000/svg"><path fill-rule="evenodd" clip-rule="evenodd" d="M10.94 8.007c1.842-.925 4.129-1.198 6.777-.561h.003c4.813 1.174 7.743 4.927 8.136 8.809.196 1.943-.245 3.92-1.411 5.593-1.169 1.675-3.027 2.99-5.571 3.677-3.476.95-7.695.06-10.101-2.343l-.001-.002c-2.891-2.896-3.35-7.46-1.784-10.953.791-1.766 2.115-3.299 3.951-4.22Zm-.894 13.902c-2.29-2.294-2.722-6.031-1.416-8.945.645-1.439 1.698-2.637 3.117-3.349 1.412-.708 3.255-.97 5.548-.42 4.087.998 6.456 4.136 6.77 7.241.157 1.551-.197 3.091-1.097 4.382-.897 1.287-2.376 2.38-4.564 2.97H18.4c-2.953.809-6.474-.002-8.354-1.88Z"/><path d="M15.03 11v2.856l-.03.098.059 1.092-.03-.098L15.02 18h1.952l.01-3.085.019-.098-.058-1.092.038.098V11h-1.95Zm0 9v.816l-.03.028.059.312-.03-.028-.01.872h1.952l.01-.881.019-.029-.058-.311.038.028V20h-1.95Z"/></symbol><symbol viewBox="0 0 32 32" id="language" xmlns="http://www.w3.org/2000/svg"><path d="M25.994 15.686c-.21-4.04-2.891-8.535-8.398-9.497-4.57-.8-8.472.97-10.419 4.736-2.022 3.91-1.387 9.016 1.504 12.144C10.42 24.943 13.151 26 15.917 26c.978 0 1.964-.129 2.908-.404 4.595-1.332 7.403-5.226 7.16-9.91h.009Zm-2.507-3.18c-1.103.404-2.373.713-3.726.911-.243-1.882-.76-3.704-1.513-5.32 2.582.722 4.303 2.44 5.24 4.409Zm-5.239 3.386c0 .61-.05 1.212-.117 1.814a23.148 23.148 0 0 0-2.047-.12c-.735 0-1.47.025-2.197.086a16.815 16.815 0 0 1-.117-1.84c0-.18.008-.36.016-.541.752.069 1.521.103 2.281.103h.042c.71 0 1.42-.034 2.123-.086 0 .189.016.387.016.576v.008Zm-.376 3.524c-.367 1.745-1.002 3.378-1.846 4.788-.853-1.41-1.496-3.06-1.872-4.822a20.356 20.356 0 0 1 1.913-.069c.602 0 1.212.043 1.805.103Zm-1.763-5.724h-.042c-.718 0-1.445-.034-2.164-.095.268-2.14.936-4.177 1.914-5.861.117 0 .234.017.35.026.987 1.684 1.655 3.713 1.93 5.853-.66.051-1.32.086-1.988.086v-.009Zm-2.264-5.81c-.802 1.667-1.345 3.55-1.596 5.51a20.281 20.281 0 0 1-3.91-.98c.092-.224.192-.456.309-.671 1.103-2.123 2.924-3.43 5.197-3.85v-.01Zm-5.991 6.171c1.278.464 2.732.825 4.27 1.057-.009.25-.025.499-.025.748 0 .679.058 1.367.133 2.046-1.47.24-2.857.627-4.035 1.134a9.491 9.491 0 0 1-.343-4.976v-.009Zm1.07 6.524c1.044-.439 2.272-.774 3.567-.989.326 1.59.844 3.103 1.538 4.478-1.621-.335-3.117-1.083-4.136-2.183a7.811 7.811 0 0 1-.97-1.306Zm9.45 3.36c-.109.035-.226.043-.335.069.66-1.34 1.17-2.82 1.48-4.366 1.286.24 2.473.593 3.484 1.057-.936 1.4-2.424 2.596-4.63 3.24Zm5.422-4.753c-1.153-.541-2.531-.954-4.01-1.229.075-.679.133-1.366.133-2.054 0-.258-.016-.516-.025-.774 1.504-.215 2.925-.558 4.17-1.014a8.77 8.77 0 0 1 .259 1.659 8.43 8.43 0 0 1-.527 3.404v.008Z"/></symbol><symbol viewBox="0 0 300 45" id="logo" xmlns="http://www.w3.org/2000/svg"><g clip-path="url(#bda)"><path d="M3.134 42.79C4.614 44.212 6.704 45 8.96 45a10.302 10.302 0 0 0 7.922-3.798.486.486 0 0 0-.09-.711l-1.6-1.162a.501.501 0 0 0-.668.077c-1.283 1.53-3.08 2.471-5.009 2.637-1.707.142-3.277-.361-4.316-1.357-.824-.794-1.301-1.961-1.433-3.194-.041-.39.383-.67.735-.485a8.4 8.4 0 0 0 1.116.51c.537.195 5.301 1.789 7.827-1.192 1.23-1.452 1.546-3.532.8-5.18-1.117-2.47-3.726-3.146-5.797-2.938-2.06.207-3.648 1.15-4.645 1.938-.328.26-.83 0-.8-.41.078-1.096.603-2.056 1.129-2.784.758-1.043 1.85-1.755 3.241-2.122 2.442-.652 4.627.444 5.534 1.02a.5.5 0 0 0 .669-.12l1.182-1.57a.495.495 0 0 0-.12-.705c-1.313-.853-4.381-2.43-8.029-1.463-2.573.681-4.077 2.145-4.895 3.27-1.69 2.258-2.137 4.77-1.308 7.046.197.522.43 1.002.681 1.434.066.119.09.261.042.392-.908 3.045-.21 6.536 1.994 8.657h.012Zm1.785-9.677S6.41 31.36 8.72 31.128c.645-.065 2.215-.077 2.794 1.203.317.705.042 1.606-.364 2.104-1.033 1.215-3.671.616-4.525.314a6.037 6.037 0 0 1-1.63-.954.49.49 0 0 1-.09-.67v-.012h.013Zm16.142 9.79 1.85.705c.251.1.55-.03.645-.279l2.651-6.832a.503.503 0 0 1 .854-.13c.155.183.286.343.394.486l.316.373c1.498 1.778 3.636 4.302 6.268 4.302.561 0 1.14-.119 1.732-.367 1.098-.48 1.874-1.292 2.256-2.377.627-1.766.185-4.13-1.301-7.046-.12-.248-.43-.331-.68-.207l-1.756.925a.498.498 0 0 0-.22.651c1.038 2.045 1.456 3.793 1.14 4.717-.108.303-.299.498-.633.652-1.284.551-2.752-1.02-4.525-3.123l-.317-.379a63.014 63.014 0 0 1-1.785-2.3.488.488 0 0 1-.066-.467L31.7 22.4a.498.498 0 0 0-.286-.64l-1.851-.706a.51.51 0 0 0-.645.285l-2.895 7.437a.498.498 0 0 1-.866.106c-1.665-2.287-3.253-4.521-3.892-5.398a.505.505 0 0 0-.692-.119l-1.624 1.126c-.221.154-.287.468-.12.682.83 1.173 3.29 4.598 5.427 7.502a.5.5 0 0 1 .066.468l-3.553 9.137a.5.5 0 0 0 .287.64v-.011l.006-.006Zm29.694-2.14v2.524c0 .273.221.486.496.486h1.982a.491.491 0 0 0 .495-.486V22.648a.487.487 0 0 0-.495-.486h-3.564a.494.494 0 0 0-.448.285l-9.414 19.65a.48.48 0 0 0 .238.651l1.797.836a.516.516 0 0 0 .657-.226l1.39-2.796a.51.51 0 0 1 .449-.267h5.904c.274 0 .495.22.495.486l.012-.012.006-.006Zm0-12.444v8.521a.49.49 0 0 1-.495.486h-4.042a.494.494 0 0 1-.448-.705l4.042-8.521c.233-.48.943-.314.943.207v.012Zm16.315-.202c.233-.48.943-.314.943.208V43.28c0 .273.22.486.495.486h1.983a.491.491 0 0 0 .495-.486V22.654a.487.487 0 0 0-.496-.486h-3.563a.494.494 0 0 0-.448.284l-9.415 19.65a.48.48 0 0 0 .24.652l1.796.836a.516.516 0 0 0 .657-.226l1.271-2.536 1.905-4 4.119-8.693.012-.012.006-.006Zm19.899 2.75 2.83 12.432a.49.49 0 0 0 .59.368l1.929-.433a.486.486 0 0 0 .37-.587L88.03 22.15h-2.65c-.233 0-.43.16-.484.38L81.96 35.086c-.12.51-.854.51-.967 0L78.157 22.63a.495.495 0 0 0-.59-.367l-1.929.433a.486.486 0 0 0-.37.586L79.847 43.4c.053.225.25.38.483.38h2.257c.233 0 .43-.167.483-.38l2.938-12.539c.119-.51.853-.51.967 0v.012l-.006-.006Zm163.949-8.966c-2.961-.07-5.862 1.488-7.408 3.97a8.134 8.134 0 0 0-1.051 2.602.549.549 0 0 1-.173.285c-2.412 1.908-3.737 5.084-3.266 8.1.579 3.633 3.648 6.578 7.307 7.022a7.2 7.2 0 0 0 .944.053c3.187 0 6.268-1.92 7.581-4.77.12-.26 0-.575-.274-.67l-1.863-.681a.504.504 0 0 0-.615.249c-.955 1.92-3.23 3.176-5.403 2.904-2.322-.285-4.358-2.246-4.734-4.563-.131-.818-.041-1.66.209-2.454.132-.408.723-.456.908-.065.053.113.107.22.167.326.722 1.345 1.821 2.418 3.056 3.005 1.499.717 3.23.728 4.633.035 1.97-.978 3.092-3.395 2.597-5.623-.436-1.997-2.072-3.698-4.155-4.338a6.68 6.68 0 0 0-1.887-.302.487.487 0 0 1-.298-.871c1.021-.824 2.346-1.31 3.636-1.268 1.731.041 3.462 1.007 4.429 2.43a.486.486 0 0 0 .645.147l1.743-.942a.5.5 0 0 0 .173-.705c-1.492-2.305-4.155-3.816-6.925-3.882l.012.012.012-.006Zm-2.424 8.184c1.063.332 1.929 1.203 2.138 2.157.208.918-.263 1.985-1.033 2.364-.567.285-1.337.26-2.018-.053-.681-.326-1.295-.93-1.719-1.736a5.161 5.161 0 0 1-.603-2.069.467.467 0 0 1 .304-.497c.985-.38 2.03-.433 2.925-.16l.006-.006Zm-79.811-7.952h-1.087a.493.493 0 0 0-.447.284l-7.594 15.87c-.197.42-.824.355-.931-.101l-3.528-14.927a.492.492 0 0 0-.484-.38h-2.4a.486.486 0 0 0-.483.368l-5.105 19.294c-.065.26.09.533.353.599l1.916.497a.493.493 0 0 0 .603-.343l3.331-12.616c.131-.498.842-.486.967.012l3.003 12.704c.054.226.251.38.483.38h2.627a.52.52 0 0 0 .448-.273c.448-.9.895-1.801 1.349-2.702l1.904-4 4.12-8.693c.232-.48.943-.314.943.207V43.27c0 .272.221.486.489.486h1.982c.275 0 .496-.22.496-.492V22.619a.486.486 0 0 0-.49-.486h-2.477.012Zm22.977 2.542.43-1.961a.491.491 0 0 0-.483-.593H180.18a.491.491 0 0 0-.483.391l-4.448 20.628a.492.492 0 0 0 .484.592h7.958a.49.49 0 0 0 .483-.39l.43-1.962a.494.494 0 0 0-.483-.599h-4.693a.491.491 0 0 1-.483-.592l1.17-5.41a.492.492 0 0 1 .483-.392h6.758c.233 0 .436-.16.484-.39l.43-1.968a.49.49 0 0 0-.484-.593h-6.346a.491.491 0 0 1-.483-.592l1.17-5.41a.49.49 0 0 1 .483-.392h8.603c.232 0 .435-.16.483-.39l-.024.017-.012.006Zm40.96 8.32a.476.476 0 0 1-.042-.694 6.071 6.071 0 0 0 1.534-4.03c0-3.27-2.62-5.949-5.886-6.126l-3.946-.012h-2.639a.491.491 0 0 0-.483.39l-4.448 20.628a.492.492 0 0 0 .484.593h12.011v-.036c3.11-.331 5.534-2.939 5.534-6.103 0-1.843-.824-3.49-2.125-4.616h.012l-.006.006Zm-4.71-7.923c1.886 0 3.396 1.6 3.217 3.508-.155 1.665-1.659 2.886-3.343 2.886h-4.477c-.728 0-.961-.29-.895-.593l1.17-5.41a.49.49 0 0 1 .483-.391h3.857-.012Zm.632 15.739h-7.671a.491.491 0 0 1-.483-.593l1.17-5.41a.492.492 0 0 1 .483-.391h6.37c1.684 0 3.188 1.22 3.343 2.886.179 1.908-1.331 3.508-3.217 3.508h.005Zm-18.389-3.728h-2.298a.505.505 0 0 1-.484-.38l-3.361-14.221a.492.492 0 0 0-.483-.38h-2.4a.493.493 0 0 0-.484.374l-3.767 14.24a.491.491 0 0 1-.483.373h-5.152a.485.485 0 0 0-.484.586l1.17 5.66a.493.493 0 0 0 .484.39h2.018a.486.486 0 0 0 .483-.586l-.525-2.519a.49.49 0 0 1 .483-.586h14.758c.274 0 .495.219.495.492v2.708c0 .272.221.486.49.486h1.982c.274 0 .495-.22.495-.492v-5.594a.556.556 0 0 0-.555-.551h-2.406.024Zm-7.438-7.176 1.558 6.565a.5.5 0 0 1-.484.61H200.5a.498.498 0 0 1-.484-.621l1.732-6.566c.131-.498.841-.486.967.012Zm77.393 7.206h-4.209a.493.493 0 0 1-.496-.492v-13.99a.485.485 0 0 0-.489-.486h-3.558a.495.495 0 0 0-.448.284l-6.901 14.417a.489.489 0 0 1-.448.279h-4.375a.627.627 0 0 0-.633.628v5.517c0 .272.221.486.489.486h1.982c.275 0 .496-.22.496-.492v-2.72a.49.49 0 0 1 .489-.486h15.57c.238 0 .441.16.483.391l.603 2.916a.493.493 0 0 0 .484.39h2.017c.317 0 .55-.284.484-.586l-1.182-5.772a.358.358 0 0 0-.352-.284h-.006Zm-12.758-.326 4.119-8.693c.227-.48.938-.314.938.207v8.314a.49.49 0 0 1-.49.486h-4.722l.149-.326v.012h.006Zm28.034-14.43a.325.325 0 0 0-.317-.249h-2.393a.505.505 0 0 0-.484.38l-2.937 12.55c-.12.51-.854.51-.967 0l-2.842-12.455a.495.495 0 0 0-.591-.368l-1.928.433a.49.49 0 0 0-.376.586l4.579 20.118a.49.49 0 0 0 .483.38h2.257c.227 0 .424-.16.483-.38l2.937-12.545c.12-.51.86-.51.968 0l2.829 12.433a.49.49 0 0 0 .591.367l1.928-.433a.49.49 0 0 0 .377-.586 21030.49 21030.49 0 0 1-4.597-20.237v.006ZM124.473 7.366c.041 0 .077 0 .107-.012.31-.077.472-.54.472-.824 0-.154-.048-.628-.311-.74a.355.355 0 0 0-.161-.03.61.61 0 0 0-.269.07c-.185.113-.322.416-.34.742-.018.308.066.592.221.705a.48.48 0 0 0 .281.089Zm-3.441 1.996a9.79 9.79 0 0 1-.334.397c-.072.077-.209.273-.328.279-.275.011-.496-.551-.591-.735-.233-.462-.926-.053-.693.403.257.504.627 1.138 1.284 1.132.609 0 1.033-.646 1.361-1.073.31-.409-.388-.806-.693-.403h-.006Zm-.633-1.031c.43-.012 1.009-.474.968-.788-.066-.468-.406-.705-1.075-.711-.597-.024-1.021.397-.967.806.048.344.591.711 1.074.7V8.33Zm-4.585-1.001a.471.471 0 0 0 .388-.012c.286-.142.34-.622.28-.906-.029-.154-.185-.605-.465-.658-.024 0-.042-.006-.072-.006a.524.524 0 0 0-.34.136c-.155.148-.227.474-.173.794.048.303.197.563.37.646l.012.006Z"/><path d="M141.813 15.703c-.029-.1-.119-.385-.376-.51-.232-.112-.501-.04-.698.048l-.09-.071a.87.87 0 0 0 .09-.735c-.018-.041-.12-.314-.394-.433-.382-.166-.8.072-.931.178a1.42 1.42 0 0 0-.096.083.408.408 0 0 0-.078-.065c.132-.338.114-.687-.059-.942-.024-.03-.185-.267-.46-.326-.645-.148-1.367.764-1.642 1.078-.006.012-.023.024-.029.03-.4.13-.866.438-1.141.806-.28.071-.567.107-.847.231a2.37 2.37 0 0 0-.532.338c-.059.047-.119.089-.173.142-.012.012-.095.083-.131.119h-.024c-.102-.006-.293.035-.382.047-.191.03-.364.077-.537.154-.06.03-.114.06-.174.089 0-.053-.011-.107-.017-.16a2.136 2.136 0 0 0-.215-.628c-.066-.125-.179-.243-.275-.35.024-.148.048-.296.06-.444a2.831 2.831 0 0 0-.042-.812 2.129 2.129 0 0 0-.263-.652 1.792 1.792 0 0 0-.244-.308c-.024-.024-.054-.053-.084-.089 0-.065-.006-.142-.006-.196 0-.13-.006-.254-.024-.379a2.231 2.231 0 0 0-.227-.752 1.834 1.834 0 0 0-.555-.634 2.63 2.63 0 0 0-.603-1.778 1.722 1.722 0 0 0-.197-.22 1.82 1.82 0 0 0-.101-.088c.006-.208-.084-.557-.108-.646a2.29 2.29 0 0 0-.328-.705 2.257 2.257 0 0 0-.949-.8 2.562 2.562 0 0 0-.657-1.12 1.3 1.3 0 0 0 .107-.297c.03-.124.048-.248.054-.373V4.51a.907.907 0 0 0 .478-.438 1.22 1.22 0 0 0 .107-.646 1.194 1.194 0 0 0-.018-1.481 1.122 1.122 0 0 0-.441-.848c-.156-.557-.651-.912-1.242-.841a1.53 1.53 0 0 0-.92-.148 1.476 1.476 0 0 0-.698.302 1.33 1.33 0 0 0-1.206.782 1.528 1.528 0 0 0-.609.664 1.633 1.633 0 0 0-.531-.433 1.8 1.8 0 0 0-1.23-.136 1.753 1.753 0 0 0-1.803-.213c-.645-.267-1.397-.22-1.964.201-.531-.065-1.098 0-1.534.243a.582.582 0 0 0-.119-.302c-.197-.255-.532-.243-.568-.243a.83.83 0 0 0-.644-.462c-.263-.392-.753-.546-1.23-.392-.382-.195-.848-.177-1.17.113-.615-.03-1.176.409-1.236 1.025-.4.35-.513 1.043-.263 1.482-.113.456.036.948.388 1.274 0 .266.054.521.227.746.036.048.078.09.12.13-.388.368-.609.913-.741 1.447-.716.403-1.044 1.161-1.176 1.973-.352.124-.65.397-.829.776-.233.498-.335 1.073-.371 1.636a1.91 1.91 0 0 0-.626.77c-.197.45-.281.93-.257 1.41-.502.415-.657 1.233-.657 2.033a3.192 3.192 0 0 0-.28.64 3.976 3.976 0 0 0-.484-.166 2.65 2.65 0 0 0-.943-.053 2.557 2.557 0 0 0-.902-.397 2.36 2.36 0 0 0-.4-.048c-.31-.296-.746-.51-1.188-.646a3.629 3.629 0 0 1-.262-.267c-.269-.302-.997-1.226-1.642-1.078-.269.06-.436.296-.46.326-.179.255-.191.604-.059.948-.012.012-.03.024-.042.036a.072.072 0 0 0-.03.03.73.73 0 0 0-.101-.084c-.132-.106-.556-.35-.932-.178-.262.113-.364.368-.388.433-.185.45.084.877.114.925l-.042.088c-.048-.017-.555-.19-.848.077-.209.196-.19.504-.179.682.042 1.025 1.158 1.902 1.421 2.104.042.284.233 1.28 1.116 1.95.352.266.705.402.967.48.054.195.251.876.92 1.344a2.31 2.31 0 0 0 1.08.397 3.414 3.414 0 0 0 1.278 1.707c.352.237.698.367.961.444a3.594 3.594 0 0 0 .018 3.064c-.203.32-.311.7-.293 1.114.012.355.114.7.245 1.031.102.243.346.575.34.836 0 .29-.143.568-.137.87.012.309.078.6.197.884.131.308.322.592.561.83-.137.538.072 1.166.597 1.575.352.273.77.457 1.212.546a29.415 29.415 0 0 1 0 4.693c-.024.26.227.444.46.456.376.024.752.03 1.128.024l.036 2.803c0 .474.042.877.621.883.549 0 1.11-.06 1.659-.095.544-.03.55-.877 0-.848-.286.018-.573.03-.859.048-.168.012-.376.047-.567.059v-.528c0-.32-.006-.633-.012-.953l-.018-1.41a14.528 14.528 0 0 0 1.755-.232c.179-.035.364-.255.34-.438a56.319 56.319 0 0 1-.37-3.876c.042-.012.089-.03.137-.041.317.243.699.397 1.093.468a42.4 42.4 0 0 1 .137 3.36c0 .243.209.462.46.456.34-.006.68-.012 1.026-.024l.042 3.176c.006.469.042.878.621.884.549 0 1.111-.06 1.66-.095.543-.03.549-.877 0-.848-.287.018-.579.03-.866.048-.167.006-.37.047-.567.059v-.528c0-.32-.006-.634-.012-.954l-.024-1.766c.466-.006.937-.018 1.403-.03.245 0 .472-.207.46-.456a151.942 151.942 0 0 1-.066-3.307c.412 0 .83-.083 1.224-.23a2.953 2.953 0 0 0 1.612.343c-.144 1.078-.281 2.157-.424 3.235-.03.255.239.445.46.456.776.042 1.552.03 2.328.012-.018.237-.036.474-.06.711-.054.528-.149 1.061-.203 1.203-.352 1.014-1.236 1.41-1.063 1.796a.563.563 0 0 0 .269.255.633.633 0 0 0 .388.03c.328-.054.609-.184 1.009-.463.34-.231.454-.391.567-.344.072.03.09.119.317.646.017.042.053.125.137.16.072.03.167.03.227-.023.083-.066.077-.196.071-.231 0-.202.036-1.677.102-3.823.406-.017.812-.035 1.218-.047.465-.012.925-.03 1.391-.041-.018.284-.042.574-.072.865-.054.533-.155 1.06-.203 1.203-.352 1.013-1.236 1.41-1.063 1.795a.6.6 0 0 0 .269.26c.131.06.257.054.388.03.328-.053.609-.183 1.009-.462.34-.23.454-.39.567-.343.072.03.09.118.317.645.017.042.053.125.137.16.071.03.167.03.227-.023.083-.066.077-.196.071-.231 0-.208.036-1.737.108-3.959.74-.017 1.48-.041 2.227-.065a.468.468 0 0 0 .447-.58c-.37-1.411-.746-2.833-.955-4.279.06-.065.114-.13.161-.202.484-.07.932-.438 1.188-.847.376-.598.49-1.321.364-2.015a4.647 4.647 0 0 0 .741-1.89c.095-.652.113-1.416-.239-1.973a4.166 4.166 0 0 0 .048-2.625c.029-.107.065-.22.095-.326.042-.154.078-.308.102-.462a2.463 2.463 0 0 0 1.062-.534c.275-.237.472-.521.597-.835.46-.101.89-.344 1.206-.694.239-.266.412-.569.531-.889a2.36 2.36 0 0 0 .997-.616c.311-.314.538-.67.681-1.049.722-.337 1.2-1.137 1.421-1.955.806-1.025 1.2-1.956 1.05-2.441v.03ZM125.725 1.701c.519-.35 1.355-.433 1.809.023.346.35.31.854.298.978-.059.847-.848 1.298-.925 1.345a2.863 2.863 0 0 0-.269-.302 3.492 3.492 0 0 0-.352-.296c.197-.29.388-.575.746-.747.406-.195.03-.735-.376-.54a1.94 1.94 0 0 0-.668.522 3.36 3.36 0 0 0-.269.391 10.364 10.364 0 0 1-.34-.195c-.114-.071-.215-.142-.311-.208.042-.16.191-.651.663-.971h-.006Zm-1.648 3.745a.97.97 0 0 1 .502-.143.83.83 0 0 1 .34.066c.597.254.585 1.126.585 1.167-.012.468-.269 1.114-.818 1.25a.921.921 0 0 1-.782-.154c-.591-.462-.501-1.777.167-2.186h.006ZM110.03 39.63a27.98 27.98 0 0 0-.024-4.195c.072 0 .15-.012.215-.024.299.356.705.599 1.188.705.311.071.621.077.92.042a55.27 55.27 0 0 0 .31 3.3 13.76 13.76 0 0 1-2.609.166v.006Zm4.293-37.527c-.4-.25-.872.32-.466.568.286.178.454.45.555.759a7.997 7.997 0 0 0-.686.593c-.15-.13-.4-.374-.574-.759-.119-.26-.34-.753-.125-1.25a1.28 1.28 0 0 1 .525-.581 1.14 1.14 0 0 1 .848-.095c.09.024.173.054.257.09a2.12 2.12 0 0 1 1.086.977c.006.012.012.03.024.041a3.15 3.15 0 0 0-.722.551 1.823 1.823 0 0 0-.716-.894h-.006Zm.979 3.466a.98.98 0 0 1 .656-.267c.054 0 .102 0 .15.012.644.119.817.972.829 1.014.09.462-.018 1.143-.525 1.392a.982.982 0 0 1-.418.095.894.894 0 0 1-.376-.083c-.681-.326-.878-1.63-.316-2.169v.006Zm.226 33.712c-.011-.96-.059-1.92-.131-2.88.531-.071 1.039-.273 1.522-.516.287.166.591.29.908.368 0 .99.024 1.979.054 2.974l-2.353.054Zm4.92-27.217c-.15.006-2.508.059-3.218-1.642-.531-1.28.245-2.643 1.027-3.324.256-.225 1.08-.883 2.268-.806 1.075.065 1.761.693 2 .919.209.195 1.451 1.41 1.098 2.814-.352 1.399-2.035 1.997-3.169 2.039h-.006Zm6.495 27.092c-1.588.048-3.2.166-4.794.119l.394-3.005c.149-.059.298-.124.442-.207 1.253.61 2.728.51 3.928-.172.292.113.621.124.931.047.275-.07.514-.207.728-.379a2.698 2.698 0 0 0 2.4.101c.191 1.126.46 2.24.753 3.348l-4.782.142v.006Z"/></g><defs><clipPath id="bda"><path d="M0 0h300v45H0z"/></clipPath></defs></symbol><symbol viewBox="0 0 85 29" id="logo-short" xmlns="http://www.w3.org/2000/svg"><path d="M1.737 12.583c.82.822 1.978 1.278 3.229 1.278.145 0 .297-.007.442-.021 1.532-.13 2.958-.915 3.947-2.175a.29.29 0 0 0-.05-.411l-.887-.671a.268.268 0 0 0-.37.045c-.711.884-1.707 1.428-2.776 1.523-.946.082-1.816-.209-2.392-.785-.457-.458-.72-1.133-.794-1.845-.023-.226.212-.388.407-.282.285.161.516.256.62.295.297.113 2.937 1.034 4.336-.689.682-.839.857-2.041.443-2.992-.619-1.429-2.065-1.818-3.212-1.7-1.141.12-2.022.665-2.573 1.12-.183.152-.46 0-.443-.236.043-.634.334-1.187.625-1.609.42-.602 1.025-1.013 1.796-1.226 1.353-.377 2.564.256 3.067.59a.268.268 0 0 0 .37-.07l.655-.907a.293.293 0 0 0-.067-.407C7.383.915 5.683.003 3.661.562 2.236.956 1.402 1.802.95 2.453.014 3.758-.235 5.21.224 6.525c.109.301.239.579.378.829.036.068.05.15.023.226-.503 1.76-.116 3.777 1.105 5.003h.007Zm.989-5.593s.827-1.013 2.107-1.147c.357-.038 1.228-.045 1.548.695.175.407.023.928-.202 1.216-.573.702-2.034.357-2.508.181a3.325 3.325 0 0 1-.903-.551.291.291 0 0 1-.05-.387V6.99h.008Zm8.946 5.658 1.025.407a.274.274 0 0 0 .358-.162l1.469-3.949a.274.274 0 0 1 .473-.075c.087.106.159.198.218.281l.175.216c.831 1.028 2.015 2.486 3.474 2.486.312 0 .632-.068.96-.212a2.275 2.275 0 0 0 1.25-1.373c.348-1.02.103-2.388-.72-4.072a.273.273 0 0 0-.378-.12l-.973.533c-.132.069-.182.237-.122.377.575 1.181.808 2.192.632 2.726a.616.616 0 0 1-.351.376c-.711.319-1.525-.59-2.508-1.805l-.175-.22a36.818 36.818 0 0 1-.99-1.328.292.292 0 0 1-.036-.271L17.566.795a.293.293 0 0 0-.158-.37L16.383.018a.28.28 0 0 0-.357.163L14.422 4.48a.271.271 0 0 1-.48.062c-.923-1.323-1.804-2.614-2.157-3.12a.273.273 0 0 0-.384-.069l-.9.65a.285.285 0 0 0-.066.394 358.75 358.75 0 0 0 3.006 4.337.297.297 0 0 1 .036.27l-1.968 5.282a.294.294 0 0 0 .158.37v-.007l.004-.004.002.003Zm16.454-1.235v1.458c0 .158.122.282.274.282h1.1a.278.278 0 0 0 .274-.282V.945a.277.277 0 0 0-.274-.28h-1.976a.273.273 0 0 0-.247.163l-5.218 11.356a.282.282 0 0 0 .133.377l.995.482a.28.28 0 0 0 .364-.13l.771-1.615a.28.28 0 0 1 .248-.155h3.272c.152 0 .274.127.274.282l.007-.007.004-.007v.002Zm0-7.193v4.924a.278.278 0 0 1-.275.281h-2.24c-.201 0-.334-.219-.247-.406l2.24-4.925c.129-.277.523-.18.523.12v.007l-.001-.001Zm9.039-.117c.129-.277.523-.18.523.12v8.644c0 .158.123.282.275.282h1.099a.278.278 0 0 0 .274-.282V.945a.277.277 0 0 0-.274-.28h-1.976a.273.273 0 0 0-.248.163l-5.217 11.356a.282.282 0 0 0 .133.377l.995.482a.28.28 0 0 0 .364-.13l.704-1.465 1.056-2.312 2.282-5.025.006-.006.004-.004v.002Zm11.029 1.589 1.569 7.185c.029.151.182.25.328.213l1.068-.25c.145-.03.241-.188.205-.34L48.784.655h-1.47a.278.278 0 0 0-.267.22L45.42 8.13c-.067.295-.474.295-.537 0L43.313.933c-.036-.15-.182-.25-.329-.213l-1.068.25c-.145.03-.241.189-.205.34l2.537 11.627c.03.13.139.22.268.22h1.25a.282.282 0 0 0 .269-.22l1.627-7.247a.273.273 0 0 1 .536 0v.006l-.004-.004Zm9.608 10.575c-1.641-.041-3.248.86-4.106 2.295a4.803 4.803 0 0 0-.582 1.504.313.313 0 0 1-.095.164c-1.337 1.103-2.072 2.938-1.81 4.68.32 2.1 2.021 3.802 4.05 4.06.174.024.346.03.523.03 1.766 0 3.474-1.11 4.201-2.757.066-.151 0-.332-.152-.387l-1.032-.394a.274.274 0 0 0-.341.144c-.53 1.11-1.79 1.835-2.994 1.678-1.287-.164-2.415-1.298-2.623-2.637a3.217 3.217 0 0 1 .116-1.418c.073-.237.4-.264.503-.037.03.065.06.127.093.189.401.777 1.01 1.398 1.694 1.736.83.415 1.79.421 2.566.021 1.092-.565 1.714-1.962 1.44-3.25-.241-1.155-1.149-2.137-2.302-2.507a3.55 3.55 0 0 0-1.046-.174c-.257-.004-.363-.332-.166-.504.566-.475 1.301-.757 2.016-.733.96.024 1.918.583 2.454 1.405.08.12.235.16.357.085l.966-.544a.294.294 0 0 0 .096-.407c-.827-1.332-2.302-2.205-3.838-2.243l.007.006.006-.004-.001-.001Zm-1.344 4.73c.588.192 1.068.695 1.184 1.246.116.531-.145 1.147-.573 1.366-.314.164-.741.151-1.118-.03-.377-.189-.718-.538-.953-1.003a3.103 3.103 0 0 1-.334-1.196.272.272 0 0 1 .168-.288c.546-.219 1.124-.25 1.62-.092l.004-.004.002.001Zm-44.227-4.595h-.602a.271.271 0 0 0-.248.164l-4.208 9.171c-.108.243-.457.205-.516-.058l-1.955-8.627a.275.275 0 0 0-.268-.219h-1.33a.272.272 0 0 0-.268.213L.008 28.197a.288.288 0 0 0 .195.347l1.062.288a.272.272 0 0 0 .335-.198l1.845-7.291a.274.274 0 0 1 .536.006l1.664 7.343c.03.13.14.219.268.219h1.455a.285.285 0 0 0 .248-.157c.248-.52.496-1.042.748-1.562l1.055-2.312 2.282-5.024c.13-.277.524-.18.524.12v8.644c0 .157.122.282.271.282h1.1a.279.279 0 0 0 .274-.284V16.685a.276.276 0 0 0-.272-.281h-1.366l-.001-.002Zm12.732 1.468.239-1.133a.281.281 0 0 0-.268-.342h-6.332a.275.275 0 0 0-.268.226l-2.464 11.92a.28.28 0 0 0 .268.343h4.41a.275.275 0 0 0 .267-.226l.239-1.134c.036-.178-.093-.346-.268-.346h-2.6a.282.282 0 0 1-.268-.342l.648-3.128a.276.276 0 0 1 .268-.226h3.745a.275.275 0 0 0 .268-.226l.239-1.137a.28.28 0 0 0-.268-.343h-3.516a.282.282 0 0 1-.268-.342l.648-3.127a.276.276 0 0 1 .268-.226h4.767a.275.275 0 0 0 .268-.226l-.013.01-.006.004h-.003Zm22.7 4.81a.282.282 0 0 1-.023-.4c.53-.627.85-1.44.85-2.33 0-1.89-1.453-3.438-3.263-3.541l-2.186-.007H41.58a.275.275 0 0 0-.268.226L38.846 28.55a.281.281 0 0 0 .268.342h6.656v-.02c1.724-.192 3.067-1.7 3.067-3.529a3.58 3.58 0 0 0-1.178-2.667h.006l-.004.004h.002Zm-2.61-4.578c1.045 0 1.882.924 1.783 2.026-.086.962-.92 1.668-1.852 1.668h-2.481c-.404 0-.532-.168-.497-.342l.649-3.128a.276.276 0 0 1 .268-.226h2.13v.002Zm.35 9.095h-4.25a.282.282 0 0 1-.269-.342l.649-3.128a.276.276 0 0 1 .268-.225h3.53c.933 0 1.766.705 1.853 1.667.1 1.102-.738 2.027-1.783 2.027h.004l-.001.001Zm-10.189-2.154h-1.273a.282.282 0 0 1-.268-.22l-1.862-8.219a.275.275 0 0 0-.268-.22h-1.33a.275.275 0 0 0-.268.216l-2.087 8.23a.275.275 0 0 1-.268.216h-2.855a.278.278 0 0 0-.268.34l.648 3.27c.023.13.14.226.268.226h1.118a.279.279 0 0 0 .268-.34l-.29-1.455a.28.28 0 0 1 .267-.34h8.179c.152 0 .274.127.274.285v1.565c0 .158.123.282.272.282h1.099a.279.279 0 0 0 .274-.284v-3.233a.315.315 0 0 0-.307-.319h-1.323Zm-4.12-4.147.863 3.794a.286.286 0 0 1-.268.353h-1.822c-.183 0-.312-.174-.268-.36l.96-3.794a.274.274 0 0 1 .536.007h-.002Zm42.883 4.162h-2.332a.279.279 0 0 1-.274-.284v-8.086a.276.276 0 0 0-.272-.282h-1.972a.272.272 0 0 0-.247.164l-3.824 8.332a.27.27 0 0 1-.249.161h-2.425a.356.356 0 0 0-.35.364v3.188c0 .157.122.281.271.281h1.099a.279.279 0 0 0 .274-.284V27.04c0-.155.123-.281.272-.281h8.628a.27.27 0 0 1 .268.226l.334 1.684c.023.13.14.226.268.226h1.118a.279.279 0 0 0 .268-.34l-.654-3.336a.2.2 0 0 0-.196-.164h-.004v.003Zm-7.07-.188 2.283-5.023c.126-.278.52-.181.52.12v4.806a.278.278 0 0 1-.272.281H66.82l.083-.189v.007h.004v-.002Zm15.536-8.341a.182.182 0 0 0-.174-.144h-1.327a.282.282 0 0 0-.267.22l-1.628 7.253a.273.273 0 0 1-.536 0l-1.575-7.198c-.037-.151-.182-.25-.328-.213l-1.068.25a.283.283 0 0 0-.208.34l2.537 11.627c.03.13.14.219.268.219h1.251a.284.284 0 0 0 .268-.22l1.627-7.25c.067-.294.476-.294.536 0l1.569 7.186c.03.15.182.25.328.212l1.068-.25a.283.283 0 0 0 .208-.339c-.85-3.898-1.7-7.798-2.547-11.696v.004l-.002-.001Z"/></symbol><symbol viewBox="0 0 31 24" id="mastercard" xmlns="http://www.w3.org/2000/svg"><g clip-path="url(#bea)"><path d="M10.385 12a9.707 9.707 0 0 1 3.53-7.495A8.88 8.88 0 0 0 8.958 3C4.01 3 0 7.03 0 12s4.01 9 8.958 9a8.874 8.874 0 0 0 4.957-1.505A9.707 9.707 0 0 1 10.385 12Z"/><path d="M19 12c0-2.84-1.37-4.867-3.5-6.5C13.37 7.133 12 9.16 12 12s1.37 4.867 3.5 6.5c2.13-1.633 3.5-3.66 3.5-6.5Z"/><path d="M22.042 3a8.875 8.875 0 0 0-4.958 1.505A9.707 9.707 0 0 1 20.615 12a9.707 9.707 0 0 1-3.53 7.495A8.89 8.89 0 0 0 22.041 21C26.99 21 31 16.97 31 12s-4.012-9-8.958-9Z"/></g><defs><clipPath id="bea"><path d="M0 0h31v24H0z"/></clipPath></defs></symbol><symbol viewBox="0 0 32 32" id="minus" xmlns="http://www.w3.org/2000/svg"><path d="M22.82 15.03h-5.23l-.18-.03-2 .06.18-.03-5.59-.01v2l5.65.01.18.02 2-.06-.18.04h5.17v-2Z"/></symbol><symbol viewBox="0 0 56 24" id="mir" xmlns="http://www.w3.org/2000/svg"><path d="M1 4.502h5.066c.46 0 1.842-.156 2.456 2.031.46 1.406 1.075 3.593 1.996 6.874h.307c.921-3.437 1.689-5.78 1.996-6.874.614-2.187 2.149-2.03 2.763-2.03h4.76V19.5H15.43v-8.905h-.306l-2.61 8.905H8.829l-2.61-8.905h-.46V19.5H1M22.339 4.502h4.912v8.905h.46l3.225-7.342c.614-1.406 1.995-1.563 1.995-1.563h4.606V19.5h-4.913v-8.905h-.307l-3.224 7.343c-.614 1.406-2.149 1.562-2.149 1.562H22.34m21.8-4.53v4.53h-4.606v-7.811h15.044c-.614 1.874-2.763 3.28-5.22 3.28m5.526-4.219c.614-2.811-1.228-6.248-5.22-6.248H39.227c.307 3.28 3.07 6.249 5.987 6.249"/></symbol><symbol viewBox="0 0 32 32" id="notify" xmlns="http://www.w3.org/2000/svg"><path d="M24.712 13.695c1.05-1.65-.246-4.007-2.549-3.546-.84.17-1.667.383-2.482.64.318-.257.632-.514.95-.768 1.598-1.296.27-4.1-1.668-4.02-5.9.255-11.113 3.11-14.618 7.813-.764 1.03-.16 2.617.847 3.22a2.164 2.164 0 0 0 1.623.266 3.586 3.586 0 0 0 1.555 2.582c1.21.825 2.347.882 3.423.549l.01.028c.713 1.892 2.45 2.265 4.121 1.886.475 1.217 1.888 2.152 3.395 1.365 3.083-1.607 5.239-4.208 6.529-7.395.462-1.142-.19-2.137-1.142-2.617l.006-.003Z"/><path d="M13.523 19.99v-1.05l3.08-2.745c.24-.213.407-.415.5-.605.094-.19.14-.373.14-.55 0-.24-.051-.453-.155-.64a1.162 1.162 0 0 0-1.055-.615c-.25 0-.471.059-.665.175-.19.114-.338.265-.445.455-.106.19-.156.395-.15.615h-1.24c0-.48.107-.898.32-1.255.217-.356.514-.633.89-.83.38-.196.819-.295 1.315-.295.46 0 .874.104 1.24.31.367.204.655.487.865.85.21.36.315.775.315 1.245 0 .344-.046.632-.14.865a2.028 2.028 0 0 1-.42.645 9.618 9.618 0 0 1-.685.655l-2.185 1.935-.11-.3h3.54v1.135h-4.955Z"/></symbol><symbol viewBox="0 0 32 32" id="open" xmlns="http://www.w3.org/2000/svg"><path d="M15.361 19c-.098 0-.196 0-.294-.02-.697-.076-1.242-.422-1.707-.748A30.987 30.987 0 0 1 9 14.603l1.224-1.401a28.511 28.511 0 0 0 4.101 3.417c.313.221.626.413.93.451.42.048.857-.201 1.268-.48a23.078 23.078 0 0 0 4.2-3.59L22 14.344a24.946 24.946 0 0 1-4.53 3.869c-.58.393-1.287.777-2.108.777V19Z"/></symbol><symbol viewBox="0 0 32 32" id="open2" xmlns="http://www.w3.org/2000/svg"><path d="M16.639 13c.098 0 .196 0 .294.02.697.076 1.242.422 1.707.748A30.987 30.987 0 0 1 23 17.397l-1.224 1.401a28.511 28.511 0 0 0-4.101-3.417c-.313-.221-.626-.413-.93-.451-.42-.048-.857.201-1.268.48a23.078 23.078 0 0 0-4.2 3.59L10 17.656a24.946 24.946 0 0 1 4.53-3.869c.58-.393 1.287-.777 2.109-.777V13Z"/></symbol><symbol viewBox="0 0 32 32" id="plus2" xmlns="http://www.w3.org/2000/svg"><path d="M22.82 15.03h-5.23L17.41 9l-2 .06.18 5.97-5.59-.01v2l5.65.01.18 6.02 2-.06-.18-5.96h5.17v-2Z"/></symbol><symbol viewBox="0 0 32 32" id="point" xmlns="http://www.w3.org/2000/svg"><path d="M13.809 19.96c.72.73 2.02 1.02 3.1.72 3.18-.87 2.61-4.83-.38-5.57-3.32-.81-4.46 3.08-2.72 4.85Z"/></symbol><symbol viewBox="0 0 32 32" id="profile" xmlns="http://www.w3.org/2000/svg"><path d="M13.64 16.256a6.81 6.81 0 0 1-.733-.044c-3.21-.415-4.412-3.139-4.165-5.5.266-2.52 2.175-4.942 5.279-4.695 1.742.142 3.148 1.115 3.864 2.68.83 1.83.601 4.129-.575 5.72-.884 1.194-2.175 1.83-3.678 1.83l.009.01Zm-.035-8.488c-1.9 0-2.935 1.583-3.094 3.13-.15 1.468.442 3.28 2.626 3.563 1.476.195 2.316-.486 2.758-1.078.796-1.07.955-2.697.38-3.944-.318-.69-.98-1.538-2.387-1.653-.097 0-.194-.009-.283-.009v-.009Z"/><path d="M14.19 26a9.94 9.94 0 0 1-4.288-.964c-1.998-.973-3.377-2.555-3.793-4.341-.46-1.998.548-4.572 2.785-5.208l.486 1.697c-1.21.345-1.812 1.928-1.538 3.104.283 1.247 1.344 2.423 2.838 3.139 1.937.937 4.289 1.052 6.304.3 1.433-.53 2.52-1.459 2.98-2.546.186-.442.257-.928.221-1.397-.424.274-.92.504-1.494.584-1.096.159-2.149-.372-2.555-1.274a2.075 2.075 0 0 1-.027-1.627 2.42 2.42 0 0 1 1.264-1.343c.893-.39 2.016-.24 2.918.397.177.124.345.266.495.425a11.176 11.176 0 0 0 2.927-5.969l1.75.266c-.406 2.74-1.75 5.331-3.73 7.268a4.752 4.752 0 0 1-.142 3.36c-.663 1.547-2.078 2.794-3.988 3.51a9.69 9.69 0 0 1-3.404.601L14.19 26Zm4.236-8.303a.73.73 0 0 0-.345.071.63.63 0 0 0-.319.354c-.017.044-.053.168-.017.256.08.177.406.292.698.257.354-.054.708-.257 1.017-.487a3.778 3.778 0 0 0-.194-.159c-.266-.186-.575-.292-.84-.292Z"/></symbol><symbol viewBox="0 0 32 32" id="profile-1" xmlns="http://www.w3.org/2000/svg"><path d="M24.712 16.695c1.05-1.65-.246-4.007-2.549-3.546-.84.17-1.667.383-2.482.64.318-.257.632-.514.95-.768 1.598-1.296.27-4.1-1.668-4.02-5.9.255-11.113 3.11-14.618 7.813-.764 1.03-.16 2.617.847 3.22a2.164 2.164 0 0 0 1.623.266 3.586 3.586 0 0 0 1.555 2.582c1.21.825 2.347.882 3.423.549l.01.028c.713 1.892 2.45 2.265 4.121 1.886.475 1.217 1.888 2.152 3.395 1.365 3.083-1.607 5.239-4.208 6.529-7.395.462-1.142-.19-2.137-1.142-2.617l.006-.003Z"/><path d="M13.64 16.256a6.81 6.81 0 0 1-.733-.044c-3.21-.415-4.412-3.139-4.165-5.5.266-2.52 2.175-4.942 5.279-4.695 1.742.142 3.148 1.115 3.864 2.68.83 1.83.601 4.129-.575 5.72-.884 1.194-2.175 1.83-3.678 1.83l.009.01Zm-.035-8.488c-1.9 0-2.935 1.583-3.094 3.13-.15 1.468.442 3.28 2.626 3.563 1.476.195 2.316-.486 2.758-1.078.796-1.07.955-2.697.38-3.944-.318-.69-.98-1.538-2.387-1.653-.097 0-.194-.009-.283-.009v-.009Z"/><path d="M14.19 26a9.94 9.94 0 0 1-4.288-.964c-1.998-.973-3.377-2.555-3.793-4.341-.46-1.998.548-4.572 2.785-5.208l.486 1.697c-1.21.345-1.812 1.928-1.538 3.104.283 1.247 1.344 2.423 2.838 3.139 1.937.937 4.289 1.052 6.304.3 1.433-.53 2.52-1.459 2.98-2.546.186-.442.257-.928.221-1.397-.424.274-.92.504-1.494.584-1.096.159-2.149-.372-2.555-1.274a2.075 2.075 0 0 1-.027-1.627 2.42 2.42 0 0 1 1.264-1.343c.893-.39 2.016-.24 2.918.397.177.124.345.266.495.425a11.176 11.176 0 0 0 2.927-5.969l1.75.266c-.406 2.74-1.75 5.331-3.73 7.268a4.752 4.752 0 0 1-.142 3.36c-.663 1.547-2.078 2.794-3.988 3.51a9.69 9.69 0 0 1-3.404.601L14.19 26Zm4.236-8.303a.73.73 0 0 0-.345.071.63.63 0 0 0-.319.354c-.017.044-.053.168-.017.256.08.177.406.292.698.257.354-.054.708-.257 1.017-.487a3.778 3.778 0 0 0-.194-.159c-.266-.186-.575-.292-.84-.292Z"/></symbol><symbol viewBox="0 0 32 32" id="radio-active" xmlns="http://www.w3.org/2000/svg"><path fill-rule="evenodd" clip-rule="evenodd" d="M12.156 8.773c1.588-.79 3.545-1.017 5.791-.481h.003c4.092.99 6.606 4.167 6.944 7.48.169 1.658-.21 3.35-1.217 4.783-1.009 1.436-2.604 2.55-4.763 3.128-2.955.802-6.55.058-8.621-1.994l-.001-.002c-2.486-2.472-2.872-6.351-1.534-9.314.679-1.502 1.816-2.812 3.398-3.6Zm-.454 11.496c1.485 1.472 4.31 2.13 6.69 1.483h.003c1.767-.473 2.94-1.343 3.646-2.347.707-1.007.987-2.211.863-3.43-.249-2.442-2.13-4.94-5.423-5.738-1.853-.442-3.322-.228-4.433.326-1.119.557-1.954 1.497-2.467 2.633-1.045 2.314-.69 5.27 1.12 7.073Z"/><path d="M13.204 18.845c1.072 1.007 3.007 1.408 4.614.994 4.734-1.201 3.885-6.666-.565-7.688-4.942-1.118-6.639 4.251-4.049 6.694Z"/></symbol><symbol viewBox="0 0 32 32" id="radio-default" xmlns="http://www.w3.org/2000/svg"><path fill-rule="evenodd" clip-rule="evenodd" d="M12.156 8.773c1.588-.79 3.545-1.017 5.791-.481h.003c4.092.99 6.606 4.167 6.944 7.48.169 1.658-.21 3.35-1.217 4.783-1.009 1.436-2.604 2.55-4.763 3.128-2.955.802-6.55.058-8.621-1.994l-.001-.002c-2.486-2.472-2.872-6.351-1.534-9.314.679-1.502 1.816-2.812 3.398-3.6Zm-.454 11.496c1.485 1.472 4.31 2.13 6.69 1.483h.003c1.767-.473 2.94-1.343 3.646-2.347.707-1.007.987-2.211.863-3.43-.249-2.442-2.13-4.94-5.423-5.738-1.853-.442-3.322-.228-4.433.326-1.119.557-1.954 1.497-2.467 2.633-1.045 2.314-.69 5.27 1.12 7.073Z"/></symbol><symbol viewBox="0 0 32 32" id="right" xmlns="http://www.w3.org/2000/svg"><path d="M19 16.128c0 .09 0 .181-.02.272-.076.643-.422 1.146-.748 1.575A29.264 29.264 0 0 1 14.603 22l-1.401-1.13a26.934 26.934 0 0 0 3.417-3.786c.221-.288.413-.577.451-.857.048-.388-.201-.792-.48-1.171A21.87 21.87 0 0 0 13 11.179L14.344 10a23.638 23.638 0 0 1 3.869 4.181c.393.537.777 1.188.777 1.947H19Z"/></symbol><symbol viewBox="0 0 57 24" id="sberpay" xmlns="http://www.w3.org/2000/svg"><g clip-path="url(#bra)"><path d="M29.936 13.932h2.017c3.832 0 5.888-1.532 5.888-4.578 0-2.954-1.756-4.432-5.888-4.432H27.6v13.085h2.336v-4.075Zm0-6.86h2.225c2.278 0 3.25.618 3.25 2.225 0 1.776-1.12 2.486-3.29 2.486h-2.195l.01-4.71Zm11.417 11.095c1.498 0 2.637-.75 3.085-1.831v1.682h2.056V11.85c0-2.44-1.346-3.366-4.075-3.366-1.607 0-2.73.376-3.344.842v2.73c.634-.991 1.624-1.664 3.344-1.664 1.254 0 1.888.412 1.888 1.739v.41h-2.113c-2.297 0-3.848.597-3.848 2.729 0 1.83 1.12 2.897 3.007 2.897Zm1.105-4.205h1.85v.757c-.094.634-.787 1.463-2.262 1.463-.976 0-1.495-.45-1.495-1.16 0-.82.617-1.06 1.907-1.06Zm7.523 5.812a1.65 1.65 0 0 1-1.12-.468v2.039c.28.244.913.41 1.494.41 1.234 0 2.073-.505 2.897-2.746L56.99 8.672h-2.317l-2.093 6.41-2.56-6.41h-2.44l3.944 9.383c-.359 1.27-.863 1.72-1.542 1.72v-.001ZM6.204 9.34v2.87l3.805 2.387 9.11-6.703a9.994 9.994 0 0 0-1.2-1.988l-7.91 5.82L6.204 9.34Z"/><path d="M10.008 22a10 10 0 0 0 9.84-11.793l-2.154 1.586V12a7.695 7.695 0 1 1-3.354-6.341l1.951-1.432A10 10 0 1 0 10.013 22h-.005Z"/></g><defs><clipPath id="bra"><path transform="translate(0 2)" d="M0 0h57v20H0z"/></clipPath></defs></symbol><symbol viewBox="0 0 40 24" id="sbp" xmlns="http://www.w3.org/2000/svg"><g clip-path="url(#bsa)"><path d="M35.453 9.888v5.134h-1.754v-3.601h-1.688v3.601h-1.753V9.888h5.195Z"/><path fill-rule="evenodd" clip-rule="evenodd" d="M26.657 15.206c1.57 0 2.735-1.006 2.735-2.532 0-1.476-.86-2.435-2.297-2.435-.663 0-1.21.244-1.623.665.099-.87.803-1.506 1.578-1.506l1.526-.003.762-1.524s-1.691.04-2.478.04c-1.796.033-3.009 1.74-3.009 3.814 0 2.415 1.183 3.48 2.806 3.48Zm.01-3.617c.582 0 .986.4.986 1.085 0 .616-.359 1.124-.986 1.125-.6 0-1.005-.47-1.005-1.114 0-.685.404-1.096 1.005-1.096Z"/><path d="M22.424 13.304s-.414.25-1.033.296c-.71.022-1.344-.447-1.344-1.281 0-.814.559-1.28 1.326-1.28.471 0 1.094.34 1.094.34s.455-.873.691-1.31c-.432-.343-1.008-.53-1.677-.53-1.69 0-2.998 1.15-2.998 2.77 0 1.638 1.23 2.764 2.998 2.73.494-.02 1.176-.201 1.592-.48l-.65-1.255ZM0 6.571l2.432 4.546v2.773l-2.43 4.536L0 6.571ZM9.338 9.462l2.28-1.46 4.664-.005-6.944 4.447V9.462ZM9.326 6.544l.012 6.019-2.437-1.567V2l2.425 4.544Z"/><path d="m16.282 7.997-4.665.005-2.291-1.458L6.9 2l9.38 5.997ZM9.338 18.451v-2.92l-2.437-1.536L6.902 23l2.436-4.549Z"/><path d="m11.612 17.004-9.18-5.887L0 6.57l16.272 10.427-4.66.006ZM6.902 23l2.436-4.549 2.274-1.447 4.66-.006L6.902 23Z"/><path d="m.003 18.426 6.918-4.431-2.326-1.492-2.163 1.386-2.43 4.537Z"/></g><defs><clipPath id="bsa"><path transform="translate(0 2)" d="M0 0h40v21H0z"/></clipPath></defs></symbol><symbol viewBox="0 0 32 32" id="search" xmlns="http://www.w3.org/2000/svg"><path d="m23.917 26.775-4.22-4.507c1.582-1.404 2.476-3.344 2.44-5.562-.053-3.934-2.96-7.395-7.082-8.405-3.818-.939-7.153.349-8.915 3.443-1.887 3.317-1.386 7.78 1.163 10.372 1.502 1.53 3.862 2.397 6.25 2.397a9.4 9.4 0 0 0 2.495-.331 9.53 9.53 0 0 0 2.164-.877l4.4 4.695 1.305-1.225Zm-8.334-4.319c-2.486.68-5.428.009-7.002-1.592-2.012-2.047-2.387-5.588-.885-8.235 1.368-2.396 3.89-3.335 6.939-2.593 3.88.957 5.687 4.14 5.714 6.688.018 1.7-.653 3.166-1.878 4.23l-1.35-1.44-1.306 1.225 1.118 1.198c-.42.197-.867.385-1.36.519h.01Z"/></symbol><symbol viewBox="0 0 32 32" id="share2" xmlns="http://www.w3.org/2000/svg"><path d="M24.729 11.837c-1.052-1.268-2.878-1.223-3.858-1.196l.045 1.798c.998-.027 1.996.027 2.428.549.315.378.333 1.034.324 1.726a202.752 202.752 0 0 1-.207 7.015c-.108 2.257-.845 2.374-2.356 2.41-3.21.072-6.466.08-9.676.018-.9-.018-1.898-.081-2.374-.603-.369-.405-.432-1.097-.468-1.888l-.333-7.581a1.058 1.058 0 0 1 .666-1.007c.791-.315 1.834-.387 2.752-.405l-.045-1.799c-1.08.027-2.32.108-3.382.54a2.837 2.837 0 0 0-1.789 2.752l.333 7.58c.036.837.09 2.096.935 3.022 1.034 1.142 2.752 1.17 3.669 1.187 1.466.027 2.94.045 4.406.045 1.79 0 3.57-.018 5.342-.063 2.032-.045 3.939-.575 4.11-4.119.116-2.347.188-4.73.215-7.086.01-.998-.036-2.05-.746-2.904l.009.009Z"/><path d="M15.321 7.745a77.28 77.28 0 0 0 .225 7.221l1.79-.144a74.576 74.576 0 0 1-.216-7.095c.566.72 1.097 1.466 1.555 2.275l1.565-.89a20.067 20.067 0 0 0-2.31-3.255c-.217-.243-.621-.71-1.242-.828-.881-.17-1.6.45-1.906.72a20.594 20.594 0 0 0-3.04 3.318l1.448 1.07c.639-.872 1.367-1.655 2.122-2.392h.01Z"/></symbol><symbol viewBox="0 0 32 32" id="slider" xmlns="http://www.w3.org/2000/svg"><path d="M1.142 18.845c1.016 1.007 2.85 1.408 4.375.994 4.488-1.201 3.683-6.666-.537-7.688-4.685-1.118-6.294 4.251-3.838 6.694Z"/></symbol><symbol viewBox="0 0 70 62" id="spring" xmlns="http://www.w3.org/2000/svg"><g clip-path="url(#bwa)"><path d="M20.823 0C12.903.215 5.217 4.782 1.907 12.076-2.484 21.756.821 33.68 10.66 38.5c8.315 4.07 17.381 1.747 24.686-3.528 4.66-3.36 8.587-8.292 7.298-14.392-1.16-5.497-6.547-8.313-11.855-7.696-10.034 1.171-16.593 11.341-16.575 20.89.02 10.22 7.83 18.82 17.476 21.399 9.744 2.605 20.284-1.68 26.292-9.568 2.88-3.773 5.135-8.434 4.603-13.307-.64-5.874-5.53-10.275-11.595-9.078-6.058 1.201-9.839 6.917-11.655 12.38-1.946 5.86-1.587 12.735 1.76 18.025 3.05 4.82 8.462 8.46 14.313 8.37 6.212-.101 11.53-4.687 14.075-10.095 1.056-2.244.502-4.981-1.771-6.25-2.055-1.145-5.199-.486-6.258 1.77-1.135 2.41-3.098 4.97-5.696 5.37-2.084.315-4.655-1.172-6.125-2.96-3.706-4.504-2.929-13.435 1.911-17 .162-.121 1.07-.588 1.003-.547.29-.18.531-.309.746-.053-.298-.365-.068-.18 0 .159-.06-.317.177.982.174.88.165 2.305-1.161 4.828-2.85 6.929-3.589 4.45-9.597 7.444-15.195 6.4-5.568-1.034-10.52-4.947-11.787-10.587-1.04-4.628 1.164-10.494 5.518-13.096.837-.505 1.776-.866 2.654-.941.999-.087 1.749-.113 1.926.534.588 2.147-2.59 4.259-4.01 5.223-2.828 1.905-6.104 3.6-9.575 3.803-.51.03-1.161-.068-1.67.019-.241.041 1.187.23.154 0-1.033-.23-1.963-.437-2.921-.799-.682-.256.573.264-.124-.064-.358-.169-.72-.338-1.067-.53-.716-.388-1.18-.678-1.636-1.051-1.252-1.02-2.296-2.3-2.948-3.788-1.202-2.73-1.093-6.017.015-8.758a11.626 11.626 0 0 1 2.861-4.157 11.226 11.226 0 0 1 1.859-1.37c.264-.159 1.538-.803 1.255-.678a16.925 16.925 0 0 1 2.197-.738c.268-.072.536-.132.803-.196.144-.038 1.21-.245.472-.11-.645.117.614-.06.821-.086.264-.03.532-.034.796-.045 5.91-.162 5.744-9.346-.177-9.184h-.015Z"/></g><defs><clipPath id="bwa"><path d="M0 0h70v62H0z"/></clipPath></defs></symbol><symbol viewBox="0 0 32 32" id="toddler-left" xmlns="http://www.w3.org/2000/svg"><path d="M1.998 20.978c1.778 1.764 4.989 2.464 7.656 1.74 7.854-2.102 6.447-11.666-.938-13.453C.516 7.308-2.3 16.703 1.998 20.978Z"/></symbol><symbol viewBox="0 0 32 32" id="toddler-right" xmlns="http://www.w3.org/2000/svg"><path d="M18.998 20.978c1.778 1.764 4.989 2.464 7.656 1.74 7.854-2.102 6.447-11.666-.938-13.453-8.2-1.957-11.016 7.438-6.718 11.713Z"/></symbol><symbol viewBox="0 0 46 24" id="visa" xmlns="http://www.w3.org/2000/svg"><g clip-path="url(#bza)"><path d="M29.955 4.023c-3.263 0-6.179 1.7-6.179 4.837 0 3.599 5.171 3.848 5.171 5.656 0 .761-.868 1.443-2.352 1.443-2.106 0-3.68-.953-3.68-.953l-.673 3.167s1.813.805 4.22.805c3.567 0 6.375-1.782 6.375-4.974 0-3.803-5.193-4.044-5.193-5.722 0-.597.713-1.25 2.192-1.25 1.67 0 3.031.692 3.031.692l.66-3.058s-1.483-.643-3.573-.643ZM.102 4.254l-.08.462s1.374.252 2.61.756c1.592.577 1.705.913 1.973 1.956L7.527 18.74h3.916l6.034-14.485h-3.908l-3.876 9.849L8.11 5.755c-.145-.956-.88-1.501-1.78-1.501H.103Zm18.946 0L15.983 18.74h3.726l3.054-14.485h-3.715Zm20.781 0c-.898 0-1.374.484-1.724 1.328l-5.458 13.157h3.907l.756-2.193h4.76l.46 2.193h3.447L42.969 4.254h-3.14Zm.508 3.914 1.159 5.435h-3.103l1.945-5.435Z"/></g><defs><clipPath id="bza"><path transform="translate(0 4)" d="M0 0h46v15H0z"/></clipPath></defs></symbol></svg>